<svg width="234" height="234" viewBox="0 0 234 234" fill="none" xmlns="http://www.w3.org/2000/svg">
<path d="M117 19.5C106.657 19.5 96.7367 23.6089 89.4228 30.9228C82.1089 38.2368 78 48.1566 78 58.5C78 68.8434 82.1089 78.7633 89.4228 86.0772C96.7367 93.3911 106.657 97.5 117 97.5C127.343 97.5 137.263 93.3911 144.577 86.0772C151.891 78.7633 156 68.8434 156 58.5C156 48.1566 151.891 38.2368 144.577 30.9228C137.263 23.6089 127.343 19.5 117 19.5ZM165.75 117H68.25C60.4924 117 53.0526 120.082 47.5671 125.567C42.0817 131.053 39 138.492 39 146.25C39 168.012 47.9505 185.445 62.634 197.243C77.0835 208.845 96.4665 214.5 117 214.5C137.533 214.5 156.916 208.845 171.366 197.243C186.03 185.445 195 168.012 195 146.25C195 138.492 191.918 131.053 186.433 125.567C180.947 120.082 173.508 117 165.75 117Z" fill="#464466"/>
</svg>
