<svg width="116" height="116" viewBox="0 0 116 116" fill="none" xmlns="http://www.w3.org/2000/svg">
<path d="M87.0002 48.3334H67.6668V29C67.6668 26.4363 66.6484 23.9775 64.8355 22.1647C63.0227 20.3518 60.5639 19.3334 58.0002 19.3334C55.4364 19.3334 52.9776 20.3518 51.1648 22.1647C49.3519 23.9775 48.3335 26.4363 48.3335 29L48.6767 48.3334H29.0002C26.4364 48.3334 23.9776 49.3518 22.1648 51.1647C20.3519 52.9775 19.3335 55.4363 19.3335 58C19.3335 60.5638 20.3519 63.0225 22.1648 64.8354C23.9776 66.6483 26.4364 67.6667 29.0002 67.6667L48.6767 67.3235L48.3335 87C48.3335 89.5638 49.3519 92.0225 51.1648 93.8354C52.9776 95.6483 55.4364 96.6667 58.0002 96.6667C60.5639 96.6667 63.0227 95.6483 64.8355 93.8354C66.6484 92.0225 67.6668 89.5638 67.6668 87V67.3235L87.0002 67.6667C89.5639 67.6667 92.0227 66.6483 93.8355 64.8354C95.6484 63.0225 96.6668 60.5638 96.6668 58C96.6668 55.4363 95.6484 52.9775 93.8355 51.1647C92.0227 49.3518 89.5639 48.3334 87.0002 48.3334Z" fill="#464466"/>
</svg>
