<svg width="414" height="397" viewBox="0 0 414 397" fill="none" xmlns="http://www.w3.org/2000/svg">
<circle cx="229.5" cy="212.5" r="184.5" fill="#5D5A88"/>
<circle cx="184.5" cy="184.5" r="184.5" fill="#F0F0F0"/>
<path d="M194.419 148.388V106.647C194.419 103.591 191.58 102.099 189.256 104.256L180.726 112.654C180.329 113.046 179.794 113.265 179.236 113.266H158.843C158.285 113.265 157.75 113.046 157.353 112.654L148.823 104.256C146.498 102.097 143.659 103.591 143.659 106.647V148.388C143.659 153.089 147.399 156.899 152.013 156.899H186.066C190.677 156.899 194.419 153.089 194.419 148.388Z" fill="url(#paint0_linear_165_3184)"/>
<path d="M194.419 148.388V106.647C194.419 103.591 191.58 102.099 189.256 104.256L180.726 112.654C180.329 113.046 179.794 113.265 179.236 113.266H158.843C158.285 113.265 157.75 113.046 157.353 112.654L148.823 104.256C146.498 102.097 143.659 103.591 143.659 106.647V148.388C143.659 153.089 147.399 156.899 152.013 156.899H186.066C190.677 156.899 194.419 153.089 194.419 148.388Z" fill="url(#paint1_linear_165_3184)"/>
<path d="M194.419 148.388V106.647C194.419 103.591 191.58 102.099 189.256 104.256L180.726 112.654C180.329 113.046 179.794 113.265 179.236 113.266H158.843C158.285 113.265 157.75 113.046 157.353 112.654L148.823 104.256C146.498 102.097 143.659 103.591 143.659 106.647V148.388C143.659 153.089 147.399 156.899 152.013 156.899H186.066C190.677 156.899 194.419 153.089 194.419 148.388Z" fill="url(#paint2_linear_165_3184)"/>
<path d="M194.419 148.388V106.647C194.419 103.591 191.58 102.099 189.256 104.256L180.726 112.654C180.329 113.046 179.794 113.265 179.236 113.266H158.843C158.285 113.265 157.75 113.046 157.353 112.654L148.823 104.256C146.498 102.097 143.659 103.591 143.659 106.647V148.388C143.659 153.089 147.399 156.899 152.013 156.899H186.066C190.677 156.899 194.419 153.089 194.419 148.388Z" fill="url(#paint3_linear_165_3184)"/>
<path d="M194.419 148.388V106.647C194.419 103.591 191.58 102.099 189.256 104.256L180.726 112.654C180.329 113.046 179.794 113.265 179.236 113.266H158.843C158.285 113.265 157.75 113.046 157.353 112.654L148.823 104.256C146.498 102.097 143.659 103.591 143.659 106.647V148.388C143.659 153.089 147.399 156.899 152.013 156.899H186.066C190.677 156.899 194.419 153.089 194.419 148.388Z" fill="url(#paint4_linear_165_3184)"/>
<path d="M194.419 148.388V106.647C194.419 103.591 191.58 102.099 189.256 104.256L180.726 112.654C180.329 113.046 179.794 113.265 179.236 113.266H158.843C158.285 113.265 157.75 113.046 157.353 112.654L148.823 104.256C146.498 102.097 143.659 103.591 143.659 106.647V148.388C143.659 153.089 147.399 156.899 152.013 156.899H186.066C190.677 156.899 194.419 153.089 194.419 148.388Z" fill="url(#paint5_radial_165_3184)"/>
<g filter="url(#filter0_f_165_3184)">
<path d="M148.638 139.368H148.636C147.037 139.368 145.74 140.664 145.74 142.264V144.329C145.74 145.929 147.037 147.226 148.636 147.226H148.638C150.238 147.226 151.535 145.929 151.535 144.329V142.264C151.535 140.664 150.238 139.368 148.638 139.368Z" fill="#D67908"/>
</g>
<g filter="url(#filter1_f_165_3184)">
<path d="M179.094 114.675C172.755 114.904 190.201 125.202 190.201 125.202L192.592 105.945C192.709 104.966 191.818 103.918 189.936 105.667L181.41 114.065C181.013 114.456 180.543 114.596 179.918 114.677C179.6 114.72 179.417 114.664 179.098 114.677L179.094 114.675Z" fill="url(#paint6_linear_165_3184)"/>
</g>
<path d="M148.033 121.694L153.983 116.169C154.663 115.531 154.663 114.511 153.983 113.895L147.576 108.207C146.762 107.493 145.079 107.726 145.079 109.496V120.546C145.079 122.319 146.949 122.714 148.033 121.694Z" fill="url(#paint7_linear_165_3184)"/>
<g filter="url(#filter2_f_165_3184)">
<path d="M191.291 105.01C191.362 104.837 191.49 104.694 191.655 104.605C191.819 104.516 192.009 104.486 192.193 104.522C192.377 104.558 192.542 104.656 192.661 104.8C192.781 104.944 192.846 105.125 192.847 105.312V110.083L189.836 108.623L191.291 105.01Z" fill="url(#paint8_linear_165_3184)"/>
</g>
<g filter="url(#filter3_f_165_3184)">
<path d="M146.573 105.17L153.745 112.012C155.347 113.538 155.377 116.088 153.811 117.654" stroke="#FFDF70" stroke-linecap="round"/>
</g>
<g filter="url(#filter4_f_165_3184)">
<path d="M166.461 136.881L166.599 136.849C167.605 136.615 168.653 136.626 169.655 136.881C170.76 137.089 171.423 138.36 170.488 139.274L169.319 140.551C168.745 141.125 167.483 141.125 166.909 140.551L165.755 139.274C164.801 138.194 165.398 137.115 166.461 136.881Z" fill="url(#paint9_linear_165_3184)"/>
</g>
<path d="M167.355 135.94L167.493 135.908C168.5 135.673 169.548 135.684 170.549 135.94C171.656 136.148 172.317 137.417 171.382 138.33L170.213 139.61C169.64 140.183 168.377 140.183 167.804 139.61L166.652 138.33C165.696 137.251 166.295 136.171 167.357 135.94H167.355Z" fill="url(#paint10_radial_165_3184)"/>
<g filter="url(#filter5_f_165_3184)">
<path d="M169.574 137.657C170.468 137.657 171.193 137.396 171.193 137.075C171.193 136.753 170.468 136.492 169.574 136.492C168.679 136.492 167.955 136.753 167.955 137.075C167.955 137.396 168.679 137.657 169.574 137.657Z" fill="url(#paint11_linear_165_3184)"/>
</g>
<g filter="url(#filter6_f_165_3184)">
<path d="M187.668 141.646L195.754 137.795" stroke="url(#paint12_linear_165_3184)" stroke-width="1.2" stroke-miterlimit="10" stroke-linecap="round"/>
</g>
<g filter="url(#filter7_f_165_3184)">
<path d="M187.668 145.964L191.763 148.864" stroke="url(#paint13_linear_165_3184)" stroke-width="1.2" stroke-miterlimit="10" stroke-linecap="round"/>
</g>
<path d="M189.328 140.898L197.413 137.045" stroke="url(#paint14_linear_165_3184)" stroke-width="1.2" stroke-miterlimit="10" stroke-linecap="round"/>
<g filter="url(#filter8_f_165_3184)">
<path d="M189.328 141.259L197.413 137.408" stroke="#FF8485" stroke-width="0.3" stroke-miterlimit="10" stroke-linecap="round"/>
</g>
<g filter="url(#filter9_f_165_3184)">
<path d="M198.05 137.06C198.249 136.976 198.349 136.763 198.274 136.583C198.199 136.404 197.976 136.326 197.777 136.409C197.578 136.493 197.478 136.706 197.553 136.886C197.628 137.065 197.851 137.143 198.05 137.06Z" fill="#FFDD86"/>
</g>
<path d="M189.324 145.424L197.401 149.287" stroke="url(#paint15_linear_165_3184)" stroke-width="1.2" stroke-miterlimit="10" stroke-linecap="round"/>
<g filter="url(#filter10_f_165_3184)">
<path d="M189.183 145.169L197.263 149.032" stroke="#FF8485" stroke-width="0.3" stroke-miterlimit="10" stroke-linecap="round"/>
</g>
<g filter="url(#filter11_f_165_3184)">
<path d="M197.607 149.344C197.797 149.446 198.026 149.39 198.119 149.218C198.211 149.047 198.132 148.825 197.942 148.722C197.751 148.62 197.522 148.676 197.43 148.848C197.338 149.019 197.417 149.241 197.607 149.344Z" fill="#FFDD86"/>
</g>
<path d="M148.872 145.447L140.795 149.313" stroke="url(#paint16_linear_165_3184)" stroke-width="1.2" stroke-miterlimit="10" stroke-linecap="round"/>
<g filter="url(#filter12_f_165_3184)">
<path d="M149.01 145.19L140.933 149.057" stroke="#FF8485" stroke-width="0.3" stroke-miterlimit="10" stroke-linecap="round"/>
</g>
<g filter="url(#filter13_f_165_3184)">
<path d="M149.006 145.406C148.802 145.334 148.69 145.126 148.755 144.943C148.819 144.759 149.037 144.668 149.241 144.74C149.444 144.812 149.557 145.02 149.492 145.203C149.427 145.387 149.209 145.478 149.006 145.406Z" fill="#FFDD86"/>
</g>
<path d="M148.898 140.864L140.793 137.051" stroke="url(#paint17_linear_165_3184)" stroke-width="1.2" stroke-miterlimit="10" stroke-linecap="round"/>
<g filter="url(#filter14_f_165_3184)">
<path d="M149.182 140.81L141.077 136.998" stroke="#FF8485" stroke-width="0.3" stroke-miterlimit="10" stroke-linecap="round"/>
</g>
<g filter="url(#filter15_f_165_3184)">
<path d="M149.012 140.941C148.939 140.738 149.028 140.52 149.212 140.454C149.395 140.388 149.603 140.499 149.676 140.703C149.749 140.906 149.659 141.124 149.476 141.19C149.293 141.256 149.085 141.144 149.012 140.941Z" fill="#FFDD86"/>
</g>
<path d="M178.388 141.992C178.388 147.177 174.177 151.206 168.992 151.206C163.807 151.206 159.826 147.077 159.826 141.892C159.826 141.892 163.662 146.425 168.992 141.892C173.99 146.308 178.388 141.992 178.388 141.992Z" fill="url(#paint18_linear_165_3184)"/>
<g filter="url(#filter16_f_165_3184)">
<path d="M176.293 136.494C175.861 136.497 175.445 136.328 175.136 136.026C174.828 135.724 174.651 135.312 174.644 134.879V131.862C174.644 130.976 175.388 130.247 176.293 130.247C177.196 130.247 177.94 130.976 177.94 131.862V134.879C177.94 135.793 177.196 136.494 176.293 136.494Z" fill="url(#paint19_linear_165_3184)"/>
</g>
<path d="M177.436 135.683C177.004 135.684 176.589 135.516 176.281 135.214C175.973 134.911 175.796 134.499 175.789 134.068V131.048C175.789 130.162 176.533 129.433 177.438 129.433C178.342 129.433 179.085 130.162 179.085 131.048V134.068C179.085 134.981 178.342 135.683 177.438 135.683H177.436Z" fill="url(#paint20_linear_165_3184)"/>
<path d="M177.436 135.683C177.004 135.684 176.589 135.516 176.281 135.214C175.973 134.911 175.796 134.499 175.789 134.068V131.048C175.789 130.162 176.533 129.433 177.438 129.433C178.342 129.433 179.085 130.162 179.085 131.048V134.068C179.085 134.981 178.342 135.683 177.438 135.683H177.436Z" fill="url(#paint21_linear_165_3184)"/>
<g filter="url(#filter17_f_165_3184)">
<path d="M159.661 136.494C159.229 136.497 158.813 136.328 158.505 136.026C158.196 135.723 158.02 135.311 158.014 134.879V131.862C158.014 130.976 158.758 130.247 159.661 130.247C160.566 130.247 161.31 130.976 161.31 131.862V134.879C161.31 135.793 160.566 136.494 159.661 136.494Z" fill="url(#paint22_linear_165_3184)"/>
</g>
<path d="M160.562 135.683C160.13 135.685 159.714 135.517 159.406 135.214C159.097 134.912 158.921 134.5 158.915 134.068V131.048C158.915 130.162 159.659 129.433 160.562 129.433C161.465 129.433 162.209 130.162 162.209 131.048V134.068C162.209 134.981 161.465 135.683 160.562 135.683Z" fill="url(#paint23_linear_165_3184)"/>
<path d="M160.562 135.683C160.13 135.685 159.714 135.517 159.406 135.214C159.097 134.912 158.921 134.5 158.915 134.068V131.048C158.915 130.162 159.659 129.433 160.562 129.433C161.465 129.433 162.209 130.162 162.209 131.048V134.068C162.209 134.981 161.465 135.683 160.562 135.683Z" fill="url(#paint24_linear_165_3184)"/>
<g filter="url(#filter18_f_165_3184)">
<path d="M177.94 131.25C178.217 131.25 178.441 131.025 178.441 130.748C178.441 130.471 178.217 130.247 177.94 130.247C177.663 130.247 177.438 130.471 177.438 130.748C177.438 131.025 177.663 131.25 177.94 131.25Z" fill="#775B70"/>
</g>
<g filter="url(#filter19_f_165_3184)">
<path d="M161.063 131.25C161.34 131.25 161.565 131.025 161.565 130.748C161.565 130.471 161.34 130.247 161.063 130.247C160.786 130.247 160.562 130.471 160.562 130.748C160.562 131.025 160.786 131.25 161.063 131.25Z" fill="#775B70"/>
</g>
<g filter="url(#filter20_f_165_3184)">
<path d="M181.967 114.467H191.71V144.612H181.967V114.467Z" fill="url(#paint25_linear_165_3184)"/>
</g>
<path d="M189.895 121.694L183.945 116.169C183.785 116.026 183.656 115.851 183.568 115.655C183.48 115.459 183.435 115.247 183.435 115.032C183.435 114.817 183.48 114.605 183.568 114.409C183.656 114.213 183.785 114.038 183.945 113.895L190.352 108.207C191.164 107.493 192.849 107.726 192.849 109.496V120.546C192.849 122.319 190.979 122.714 189.895 121.694Z" fill="#FFB915"/>
<path d="M189.895 121.694L183.945 116.169C183.785 116.026 183.656 115.851 183.568 115.655C183.48 115.459 183.435 115.247 183.435 115.032C183.435 114.817 183.48 114.605 183.568 114.409C183.656 114.213 183.785 114.038 183.945 113.895L190.352 108.207C191.164 107.493 192.849 107.726 192.849 109.496V120.546C192.849 122.319 190.979 122.714 189.895 121.694Z" fill="url(#paint26_linear_165_3184)"/>
<g filter="url(#filter21_f_165_3184)">
<path d="M191.597 108.655L183.894 115.296L191.429 121.273L191.597 108.655Z" fill="url(#paint27_radial_165_3184)"/>
</g>
<g filter="url(#filter22_f_165_3184)">
<path d="M185.42 114.866L190.8 120.674" stroke="url(#paint28_linear_165_3184)" stroke-width="0.5" stroke-linecap="round"/>
</g>
<g filter="url(#filter23_f_165_3184)">
<path d="M146.099 108.938V121.49L153.471 114.924L146.099 108.938Z" fill="#FEB33E"/>
</g>
<g filter="url(#filter24_f_165_3184)">
<path d="M146.099 109.42V120.442" stroke="#FFE7A3" stroke-width="0.15" stroke-linecap="round"/>
</g>
<path d="M217.082 205.895C218.817 210.254 216.788 213.063 215.558 213.922H220.656L221.067 209.819C219.016 206.696 215.348 201.536 217.082 205.895Z" fill="url(#paint29_linear_165_3184)"/>
<path d="M262.244 192.266C261.117 192.232 260.048 191.762 259.262 190.953C258.477 190.144 258.038 189.061 258.038 187.934C258.038 186.807 258.477 185.724 259.262 184.916C260.048 184.107 261.117 183.636 262.244 183.603H262.375V179.797C262.375 178.166 260.875 176.947 259.281 177.303L217.506 186.509C216.344 186.772 215.5 187.803 215.5 189.003V205.897C216.533 205.929 217.513 206.361 218.233 207.103C218.952 207.845 219.355 208.838 219.355 209.872C219.355 210.905 218.952 211.898 218.233 212.64C217.513 213.382 216.533 213.815 215.5 213.847V217.616C215.5 219.247 217 220.466 218.594 220.109L260.369 210.903C261.531 210.641 262.375 209.609 262.375 208.409V192.247C262.319 192.266 262.281 192.266 262.244 192.266Z" fill="url(#paint30_linear_165_3184)"/>
<path d="M262.244 192.266C261.117 192.232 260.048 191.762 259.262 190.953C258.477 190.144 258.038 189.061 258.038 187.934C258.038 186.807 258.477 185.724 259.262 184.916C260.048 184.107 261.117 183.636 262.244 183.603H262.375V179.797C262.375 178.166 260.875 176.947 259.281 177.303L217.506 186.509C216.344 186.772 215.5 187.803 215.5 189.003V205.897C216.533 205.929 217.513 206.361 218.233 207.103C218.952 207.845 219.355 208.838 219.355 209.872C219.355 210.905 218.952 211.898 218.233 212.64C217.513 213.382 216.533 213.815 215.5 213.847V217.616C215.5 219.247 217 220.466 218.594 220.109L260.369 210.903C261.531 210.641 262.375 209.609 262.375 208.409V192.247C262.319 192.266 262.281 192.266 262.244 192.266Z" fill="url(#paint31_linear_165_3184)"/>
<path d="M262.244 192.266C261.117 192.232 260.048 191.762 259.262 190.953C258.477 190.144 258.038 189.061 258.038 187.934C258.038 186.807 258.477 185.724 259.262 184.916C260.048 184.107 261.117 183.636 262.244 183.603H262.375V179.797C262.375 178.166 260.875 176.947 259.281 177.303L217.506 186.509C216.344 186.772 215.5 187.803 215.5 189.003V205.897C216.533 205.929 217.513 206.361 218.233 207.103C218.952 207.845 219.355 208.838 219.355 209.872C219.355 210.905 218.952 211.898 218.233 212.64C217.513 213.382 216.533 213.815 215.5 213.847V217.616C215.5 219.247 217 220.466 218.594 220.109L260.369 210.903C261.531 210.641 262.375 209.609 262.375 208.409V192.247C262.319 192.266 262.281 192.266 262.244 192.266Z" fill="url(#paint32_linear_165_3184)"/>
<path d="M262.244 192.266C261.117 192.232 260.048 191.762 259.262 190.953C258.477 190.144 258.038 189.061 258.038 187.934C258.038 186.807 258.477 185.724 259.262 184.916C260.048 184.107 261.117 183.636 262.244 183.603H262.375V179.797C262.375 178.166 260.875 176.947 259.281 177.303L217.506 186.509C216.344 186.772 215.5 187.803 215.5 189.003V205.897C216.533 205.929 217.513 206.361 218.233 207.103C218.952 207.845 219.355 208.838 219.355 209.872C219.355 210.905 218.952 211.898 218.233 212.64C217.513 213.382 216.533 213.815 215.5 213.847V217.616C215.5 219.247 217 220.466 218.594 220.109L260.369 210.903C261.531 210.641 262.375 209.609 262.375 208.409V192.247C262.319 192.266 262.281 192.266 262.244 192.266Z" fill="url(#paint33_radial_165_3184)"/>
<path d="M216.85 186.734L237.513 168.809C238.844 167.666 240.719 167.422 242.294 168.209L260.631 177.378L216.85 186.734Z" fill="#FFCF52"/>
<path d="M216.85 186.734L237.513 168.809C238.844 167.666 240.719 167.422 242.294 168.209L260.631 177.378L216.85 186.734Z" fill="url(#paint34_linear_165_3184)"/>
<path d="M216.85 186.734L237.513 168.809C238.844 167.666 240.719 167.422 242.294 168.209L260.631 177.378L216.85 186.734Z" fill="url(#paint35_radial_165_3184)"/>
<path d="M244.968 199.539C247.651 200.394 251.228 198.151 252.379 194.531C253.673 190.467 252.604 187.591 249.919 186.736C247.467 185.956 243.895 188.037 242.742 191.658C241.589 195.281 242.284 198.684 244.968 199.539Z" fill="url(#paint36_radial_165_3184)"/>
<path d="M231.584 203.517C233.196 204.031 235.351 202.681 236.044 200.502C236.822 198.057 236.177 196.327 234.563 195.811C233.086 195.342 230.937 196.595 230.243 198.774C229.549 200.954 229.968 203.004 231.584 203.517Z" fill="url(#paint37_radial_165_3184)"/>
<path d="M241.146 207.543C242.069 207.836 243.302 207.065 243.696 205.818C244.142 204.419 243.775 203.429 242.851 203.135C242.007 202.865 240.777 203.581 240.379 204.828C239.982 206.075 240.222 207.247 241.146 207.543Z" fill="url(#paint38_radial_165_3184)"/>
<path fill-rule="evenodd" clip-rule="evenodd" d="M208 199L126 199L126 189L208 189L208 199Z" fill="#FFD463"/>
<path fill-rule="evenodd" clip-rule="evenodd" d="M240 253L148 253L148 243L240 243L240 253Z" fill="#FFD463"/>
<path d="M184.439 156.856H173.207C171.72 156.856 171.048 155.656 171.048 154.36C171.048 152.968 171.72 151.768 173.207 151.768H187.368C190.44 151.768 191.448 152.728 191.448 155.752V160.744C191.448 167.224 189.431 169.576 174.36 175.96C172.872 176.584 171.479 175.864 170.855 174.52C170.327 173.368 170.279 171.64 171.959 170.968C180.359 167.512 183.576 166.024 184.776 164.68L172.2 165.592C170.76 165.688 169.991 164.536 169.895 163.096C169.799 161.848 170.375 160.504 171.863 160.456L185.543 160.024V157.96C185.543 157.144 185.255 156.856 184.439 156.856ZM203.928 159.64H208.439C209.975 159.64 210.647 160.84 210.647 162.28C210.647 163.768 209.975 164.968 208.439 164.968H203.928V173.368C203.928 175.144 202.439 175.96 200.855 175.96C199.271 175.96 197.784 175.144 197.784 173.368V152.008C197.784 150.232 199.271 149.416 200.855 149.416C202.439 149.416 203.928 150.232 203.928 152.008V159.64ZM197.784 191.944V184.024C197.784 183.208 197.496 182.92 196.68 182.92H176.903C175.415 182.92 174.743 181.72 174.743 180.328C174.743 178.936 175.415 177.736 176.903 177.736H199.848C202.92 177.736 203.928 178.696 203.928 181.72V191.944C203.928 193.72 202.439 194.536 200.855 194.536C199.271 194.536 197.784 193.72 197.784 191.944Z" fill="black"/>
<path d="M135.808 159.16H128.368C126.88 159.16 126.208 157.96 126.208 156.568C126.208 155.176 126.88 153.976 128.368 153.976H135.808V151.048C135.808 149.272 137.296 148.456 138.88 148.456C140.464 148.456 141.952 149.272 141.952 151.048V153.976H148.912C150.4 153.976 151.072 155.176 151.072 156.568C151.072 157.96 150.4 159.16 148.912 159.16H141.952V160.024C141.952 162.04 142.624 163.336 144.592 164.632C146.896 166.168 148.72 167.272 149.92 167.944C151.312 168.76 151.36 170.344 150.688 171.544C150.064 172.648 148.624 173.416 147.088 172.552C145.888 171.88 144.4 170.968 142.624 169.816C140.032 168.136 139.36 167.464 139.072 166.552H139.024C138.736 167.56 137.776 168.472 135.184 170.152C133.264 171.4 131.776 172.312 129.712 173.464C128.128 174.328 126.784 173.368 126.16 172.264C125.488 171.064 125.44 169.48 126.976 168.616C129.04 167.464 130.864 166.36 133.168 164.824C135.136 163.528 135.808 162.232 135.808 160.216V159.16ZM160.24 158.68H164.752C166.288 158.68 166.96 159.88 166.96 161.32C166.96 162.808 166.288 164.008 164.752 164.008H160.24V170.68C160.24 172.456 158.752 173.272 157.168 173.272C155.584 173.272 154.096 172.456 154.096 170.68V152.008C154.096 150.232 155.584 149.416 157.168 149.416C158.752 149.416 160.24 150.232 160.24 152.008V158.68ZM133.792 175.048H156.16C159.232 175.048 160.24 176.008 160.24 179.032V182.872C160.24 185.896 159.232 186.856 156.16 186.856H138.592C138.112 186.856 137.872 187.096 137.872 187.576V188.728C137.872 189.208 138.112 189.448 138.592 189.448H159.232C160.576 189.448 161.2 190.6 161.2 191.8C161.2 193.048 160.576 194.2 159.232 194.2H136C132.928 194.2 131.92 193.24 131.92 190.216V186.328C131.92 183.304 132.928 182.344 136 182.344H153.568C154.048 182.344 154.288 182.104 154.288 181.624V180.52C154.288 180.04 154.048 179.8 153.568 179.8H133.792C132.448 179.8 131.824 178.648 131.824 177.4C131.824 176.2 132.448 175.048 133.792 175.048Z" fill="black"/>
<path d="M211.407 215.576H201.135C199.647 215.576 198.975 214.376 198.975 212.984C198.975 211.592 199.647 210.392 201.135 210.392H227.919C229.408 210.392 230.079 211.592 230.079 212.984C230.079 214.376 229.408 215.576 227.919 215.576H217.647V216.392C217.647 220.088 218.895 221.912 222.159 223.88C225.135 225.656 227.391 226.904 230.175 228.344C231.615 229.064 231.472 230.84 230.847 231.944C230.128 233.192 228.639 233.912 227.295 233.24C224.127 231.608 221.919 230.36 219.087 228.68C216.207 226.952 214.815 225.512 214.575 224.408H214.528C214.24 225.656 212.847 227.096 209.967 228.824C207.135 230.504 204.927 231.752 201.759 233.384C200.415 234.056 198.927 233.336 198.207 232.04C197.535 230.84 197.487 229.064 198.783 228.392C201.663 226.904 203.919 225.656 206.895 223.88C210.159 221.912 211.407 220.088 211.407 216.392V215.576ZM232.671 245.432H196.383C194.895 245.432 194.223 244.232 194.223 242.84C194.223 241.4 194.895 240.2 196.383 240.2H232.671C234.159 240.2 234.831 241.4 234.831 242.84C234.831 244.232 234.159 245.432 232.671 245.432Z" fill="black"/>
<path d="M175.064 218.504H167.96V220.904C167.96 224.84 168.728 226.568 171.416 229.256C173.336 231.176 175.064 232.76 176.6 234.104C177.752 235.112 177.368 236.888 176.408 237.848C175.448 238.808 173.864 239.192 172.712 238.184C171.464 237.08 169.976 235.64 168.248 233.912C165.752 231.416 165.128 230.6 164.936 229.688H164.888C164.648 230.792 164.12 231.656 161.576 234.104C159.848 235.784 158.216 237.368 156.344 238.904C155.096 239.912 153.368 239.288 152.504 238.28C151.592 237.176 151.448 235.544 152.648 234.536C154.712 232.808 156.44 231.176 158.36 229.256C161.048 226.568 161.816 224.84 161.816 220.904V218.504H154.328C152.84 218.504 152.168 217.304 152.168 215.912C152.168 214.472 152.84 213.272 154.328 213.272H161.816V209.864C161.816 208.088 163.304 207.272 164.888 207.272C166.472 207.272 167.96 208.088 167.96 209.864V213.272H175.064C176.552 213.272 177.224 214.472 177.224 215.912C177.224 217.304 176.552 218.504 175.064 218.504ZM187.304 210.008V246.776C187.304 248.552 185.816 249.368 184.184 249.368C182.6 249.368 181.112 248.552 181.112 246.776V210.008C181.112 208.232 182.6 207.416 184.184 207.416C185.816 207.416 187.304 208.232 187.304 210.008Z" fill="black"/>
<g filter="url(#filter25_d_165_3184)">
<path d="M106.96 244.134C106.563 244.533 106.024 244.758 105.462 244.76C104.899 244.761 104.359 244.539 103.96 244.142C103.561 243.745 103.336 243.206 103.335 242.644C103.334 242.081 103.556 241.541 103.952 241.142L129.883 215.087C130.28 214.688 130.819 214.463 131.381 214.462C131.944 214.461 132.484 214.683 132.883 215.079C133.282 215.476 133.507 216.015 133.508 216.578C133.509 217.141 133.287 217.681 132.89 218.079L106.96 244.134Z" fill="url(#paint39_linear_165_3184)"/>
<path d="M106.96 244.134C106.563 244.533 106.024 244.758 105.462 244.76C104.899 244.761 104.359 244.539 103.96 244.142C103.561 243.745 103.336 243.206 103.335 242.644C103.334 242.081 103.556 241.541 103.952 241.142L129.883 215.087C130.28 214.688 130.819 214.463 131.381 214.462C131.944 214.461 132.484 214.683 132.883 215.079C133.282 215.476 133.507 216.015 133.508 216.578C133.509 217.141 133.287 217.681 132.89 218.079L106.96 244.134Z" fill="url(#paint40_linear_165_3184)"/>
<g filter="url(#filter26_ii_165_3184)">
<path fill-rule="evenodd" clip-rule="evenodd" d="M138.28 211.61C138.221 211.338 138.087 211.089 137.894 210.889C137.7 210.689 137.455 210.548 137.185 210.48C136.487 210.29 135.81 210.031 135.163 209.708C135.024 209.643 134.907 209.541 134.825 209.412C134.743 209.283 134.699 209.133 134.699 208.98C134.699 208.828 134.743 208.678 134.825 208.549C134.907 208.42 135.024 208.317 135.163 208.253C135.81 207.93 136.487 207.672 137.185 207.482C137.455 207.414 137.7 207.273 137.894 207.073C138.087 206.874 138.221 206.624 138.28 206.352C138.448 205.517 138.721 204.485 139.135 203.477C139.184 203.338 139.275 203.217 139.396 203.131C139.516 203.046 139.661 203 139.808 203C139.956 203 140.101 203.046 140.221 203.131C140.342 203.217 140.433 203.338 140.482 203.477C140.896 204.485 141.169 205.517 141.335 206.352C141.395 206.624 141.529 206.874 141.722 207.073C141.916 207.273 142.161 207.414 142.43 207.482C143.125 207.672 143.798 207.93 144.442 208.253C145.06 208.553 145.06 209.408 144.442 209.708C143.799 210.031 143.126 210.289 142.432 210.48C142.162 210.548 141.917 210.689 141.723 210.888C141.529 211.088 141.395 211.337 141.335 211.608C141.141 212.592 140.855 213.555 140.48 214.485C140.431 214.624 140.34 214.745 140.219 214.83C140.099 214.915 139.955 214.96 139.808 214.96C139.66 214.96 139.516 214.915 139.396 214.83C139.276 214.745 139.184 214.624 139.135 214.485C138.76 213.555 138.474 212.594 138.28 211.61Z" fill="url(#paint41_linear_165_3184)"/>
</g>
<g filter="url(#filter27_ii_165_3184)">
<path fill-rule="evenodd" clip-rule="evenodd" d="M121.391 210.945C121.347 210.742 121.247 210.556 121.103 210.406C120.958 210.257 120.774 210.151 120.573 210.101C120.051 209.959 119.545 209.766 119.062 209.525C118.959 209.477 118.871 209.4 118.81 209.304C118.748 209.207 118.716 209.095 118.716 208.981C118.716 208.867 118.748 208.755 118.81 208.659C118.871 208.562 118.959 208.486 119.062 208.437C119.619 208.167 120.115 207.98 120.573 207.86C120.774 207.81 120.957 207.704 121.102 207.555C121.247 207.406 121.347 207.22 121.391 207.017C121.517 206.391 121.722 205.622 122.031 204.866C122.067 204.762 122.136 204.672 122.226 204.608C122.316 204.545 122.423 204.51 122.534 204.51C122.644 204.51 122.752 204.545 122.842 204.608C122.932 204.672 123 204.762 123.037 204.866C123.346 205.62 123.55 206.391 123.675 207.017C123.719 207.22 123.819 207.406 123.964 207.555C124.109 207.704 124.292 207.809 124.494 207.86C124.951 207.98 125.443 208.166 125.998 208.437C126.101 208.486 126.189 208.562 126.25 208.659C126.312 208.755 126.344 208.867 126.344 208.981C126.344 209.095 126.312 209.207 126.25 209.304C126.189 209.4 126.101 209.477 125.998 209.525C125.517 209.766 125.013 209.959 124.494 210.101C124.292 210.151 124.108 210.257 123.964 210.406C123.819 210.556 123.719 210.742 123.675 210.945C123.55 211.571 123.346 212.34 123.037 213.095C123 213.199 122.932 213.289 122.842 213.353C122.752 213.416 122.644 213.45 122.534 213.45C122.423 213.45 122.316 213.416 122.226 213.353C122.136 213.289 122.067 213.199 122.031 213.095C121.751 212.4 121.538 211.68 121.393 210.945H121.391Z" fill="url(#paint42_linear_165_3184)"/>
</g>
<g filter="url(#filter28_ii_165_3184)">
<path fill-rule="evenodd" clip-rule="evenodd" d="M135.736 227.399C135.692 227.196 135.592 227.009 135.447 226.86C135.302 226.711 135.119 226.605 134.917 226.554C134.395 226.412 133.889 226.219 133.405 225.977C133.302 225.928 133.215 225.852 133.154 225.756C133.093 225.659 133.06 225.548 133.06 225.434C133.06 225.32 133.093 225.209 133.154 225.112C133.215 225.016 133.302 224.939 133.405 224.891C133.963 224.621 134.458 224.433 134.917 224.313C135.119 224.263 135.302 224.157 135.447 224.008C135.592 223.859 135.692 223.672 135.736 223.469C135.861 222.845 136.066 222.074 136.374 221.319C136.41 221.215 136.478 221.124 136.569 221.06C136.659 220.996 136.767 220.962 136.877 220.962C136.988 220.962 137.096 220.996 137.186 221.06C137.277 221.124 137.345 221.215 137.382 221.319C137.691 222.074 137.895 222.845 138.019 223.469C138.063 223.672 138.163 223.859 138.308 224.008C138.453 224.157 138.636 224.263 138.838 224.313C139.294 224.433 139.786 224.619 140.341 224.889C140.445 224.938 140.533 225.014 140.595 225.111C140.656 225.207 140.689 225.319 140.689 225.434C140.689 225.548 140.656 225.661 140.595 225.757C140.533 225.854 140.445 225.93 140.341 225.978C139.86 226.219 139.357 226.412 138.838 226.554C138.636 226.605 138.453 226.711 138.308 226.86C138.163 227.009 138.063 227.196 138.019 227.399C137.874 228.134 137.66 228.853 137.382 229.548C137.345 229.653 137.277 229.743 137.186 229.808C137.096 229.872 136.988 229.906 136.877 229.906C136.767 229.906 136.659 229.872 136.569 229.808C136.478 229.743 136.41 229.653 136.374 229.548C136.094 228.854 135.881 228.134 135.736 227.399Z" fill="url(#paint43_linear_165_3184)"/>
</g>
<path d="M143.137 221.289C144.166 221.289 145 220.455 145 219.426C145 218.398 144.166 217.563 143.137 217.563C142.108 217.563 141.274 218.398 141.274 219.426C141.274 220.455 142.108 221.289 143.137 221.289Z" fill="url(#paint44_radial_165_3184)"/>
<path d="M143.137 221.289C144.166 221.289 145 220.455 145 219.426C145 218.398 144.166 217.563 143.137 217.563C142.108 217.563 141.274 218.398 141.274 219.426C141.274 220.455 142.108 221.289 143.137 221.289Z" fill="url(#paint45_radial_165_3184)"/>
<path d="M128.535 233.547C129.563 233.547 130.397 232.713 130.397 231.684C130.397 230.656 129.563 229.821 128.535 229.821C127.506 229.821 126.672 230.656 126.672 231.684C126.672 232.713 127.506 233.547 128.535 233.547Z" fill="url(#paint46_radial_165_3184)"/>
<path d="M128.535 233.547C129.563 233.547 130.397 232.713 130.397 231.684C130.397 230.656 129.563 229.821 128.535 229.821C127.506 229.821 126.672 230.656 126.672 231.684C126.672 232.713 127.506 233.547 128.535 233.547Z" fill="url(#paint47_radial_165_3184)"/>
<path d="M118.08 221.532C119.068 221.532 119.869 220.731 119.869 219.743C119.869 218.755 119.068 217.953 118.08 217.953C117.091 217.953 116.29 218.755 116.29 219.743C116.29 220.731 117.091 221.532 118.08 221.532Z" fill="url(#paint48_radial_165_3184)"/>
<path d="M118.08 221.532C119.068 221.532 119.869 220.731 119.869 219.743C119.869 218.755 119.068 217.953 118.08 217.953C117.091 217.953 116.29 218.755 116.29 219.743C116.29 220.731 117.091 221.532 118.08 221.532Z" fill="url(#paint49_radial_165_3184)"/>
<path d="M128.565 206.004C129.39 206.004 130.059 205.336 130.059 204.51C130.059 203.685 129.39 203.016 128.565 203.016C127.739 203.016 127.071 203.685 127.071 204.51C127.071 205.336 127.739 206.004 128.565 206.004Z" fill="url(#paint50_radial_165_3184)"/>
<path d="M128.565 206.004C129.39 206.004 130.059 205.336 130.059 204.51C130.059 203.685 129.39 203.016 128.565 203.016C127.739 203.016 127.071 203.685 127.071 204.51C127.071 205.336 127.739 206.004 128.565 206.004Z" fill="url(#paint51_radial_165_3184)"/>
<g filter="url(#filter29_f_165_3184)">
<path d="M128.992 218.36L106.258 241.19" stroke="url(#paint52_linear_165_3184)" stroke-width="0.5"/>
</g>
<path d="M127.3 217.683L129.883 215.087C130.28 214.688 130.819 214.463 131.381 214.462C131.944 214.461 132.484 214.683 132.883 215.079C133.282 215.476 133.507 216.015 133.508 216.578C133.509 217.141 133.287 217.681 132.891 218.079L130.319 220.662L127.299 217.683H127.3Z" fill="#CFC9D8"/>
<path d="M127.3 217.683L129.883 215.087C130.28 214.688 130.819 214.463 131.381 214.462C131.944 214.461 132.484 214.683 132.883 215.079C133.282 215.476 133.507 216.015 133.508 216.578C133.509 217.141 133.287 217.681 132.891 218.079L130.319 220.662L127.299 217.683H127.3Z" fill="url(#paint53_linear_165_3184)"/>
<path d="M127.3 217.683L129.883 215.087C130.28 214.688 130.819 214.463 131.381 214.462C131.944 214.461 132.484 214.683 132.883 215.079C133.282 215.476 133.507 216.015 133.508 216.578C133.509 217.141 133.287 217.681 132.891 218.079L130.319 220.662L127.299 217.683H127.3Z" fill="url(#paint54_linear_165_3184)"/>
<path d="M127.3 217.683L129.883 215.087C130.28 214.688 130.819 214.463 131.381 214.462C131.944 214.461 132.484 214.683 132.883 215.079C133.282 215.476 133.507 216.015 133.508 216.578C133.509 217.141 133.287 217.681 132.891 218.079L130.319 220.662L127.299 217.683H127.3Z" fill="url(#paint55_radial_165_3184)"/>
<g filter="url(#filter30_i_165_3184)">
<path d="M103.957 244.137C104.787 244.967 106.132 244.965 106.962 244.134L109.497 241.587L106.486 238.596L103.954 241.142C103.558 241.54 103.336 242.079 103.336 242.64C103.337 243.202 103.56 243.74 103.957 244.137Z" fill="#CFC6DD"/>
<path d="M103.957 244.137C104.787 244.967 106.132 244.965 106.962 244.134L109.497 241.587L106.486 238.596L103.954 241.142C103.558 241.54 103.336 242.079 103.336 242.64C103.337 243.202 103.56 243.74 103.957 244.137Z" fill="url(#paint56_linear_165_3184)"/>
</g>
<path d="M103.957 244.137C104.787 244.967 106.132 244.965 106.962 244.134L109.497 241.587L106.486 238.596L103.954 241.142C103.558 241.54 103.336 242.079 103.336 242.64C103.337 243.202 103.56 243.74 103.957 244.137Z" fill="url(#paint57_linear_165_3184)"/>
<path d="M103.957 244.137C104.787 244.967 106.132 244.965 106.962 244.134L109.497 241.587L106.486 238.596L103.954 241.142C103.558 241.54 103.336 242.079 103.336 242.64C103.337 243.202 103.56 243.74 103.957 244.137Z" fill="url(#paint58_radial_165_3184)"/>
</g>
<defs>
<filter id="filter0_f_165_3184" x="144.24" y="137.868" width="8.79488" height="10.8583" filterUnits="userSpaceOnUse" color-interpolation-filters="sRGB">
<feFlood flood-opacity="0" result="BackgroundImageFix"/>
<feBlend mode="normal" in="SourceGraphic" in2="BackgroundImageFix" result="shape"/>
<feGaussianBlur stdDeviation="0.75" result="effect1_foregroundBlur_165_3184"/>
</filter>
<filter id="filter1_f_165_3184" x="176.707" y="103.727" width="16.8951" height="22.4752" filterUnits="userSpaceOnUse" color-interpolation-filters="sRGB">
<feFlood flood-opacity="0" result="BackgroundImageFix"/>
<feBlend mode="normal" in="SourceGraphic" in2="BackgroundImageFix" result="shape"/>
<feGaussianBlur stdDeviation="0.5" result="effect1_foregroundBlur_165_3184"/>
</filter>
<filter id="filter2_f_165_3184" x="188.836" y="103.507" width="5.01112" height="7.57568" filterUnits="userSpaceOnUse" color-interpolation-filters="sRGB">
<feFlood flood-opacity="0" result="BackgroundImageFix"/>
<feBlend mode="normal" in="SourceGraphic" in2="BackgroundImageFix" result="shape"/>
<feGaussianBlur stdDeviation="0.5" result="effect1_foregroundBlur_165_3184"/>
</filter>
<filter id="filter3_f_165_3184" x="144.073" y="102.67" width="13.3932" height="17.4844" filterUnits="userSpaceOnUse" color-interpolation-filters="sRGB">
<feFlood flood-opacity="0" result="BackgroundImageFix"/>
<feBlend mode="normal" in="SourceGraphic" in2="BackgroundImageFix" result="shape"/>
<feGaussianBlur stdDeviation="1" result="effect1_foregroundBlur_165_3184"/>
</filter>
<filter id="filter4_f_165_3184" x="164.777" y="136.181" width="6.65583" height="5.30042" filterUnits="userSpaceOnUse" color-interpolation-filters="sRGB">
<feFlood flood-opacity="0" result="BackgroundImageFix"/>
<feBlend mode="normal" in="SourceGraphic" in2="BackgroundImageFix" result="shape"/>
<feGaussianBlur stdDeviation="0.25" result="effect1_foregroundBlur_165_3184"/>
</filter>
<filter id="filter5_f_165_3184" x="167.355" y="135.892" width="4.4385" height="2.36455" filterUnits="userSpaceOnUse" color-interpolation-filters="sRGB">
<feFlood flood-opacity="0" result="BackgroundImageFix"/>
<feBlend mode="normal" in="SourceGraphic" in2="BackgroundImageFix" result="shape"/>
<feGaussianBlur stdDeviation="0.3" result="effect1_foregroundBlur_165_3184"/>
</filter>
<filter id="filter6_f_165_3184" x="186.568" y="136.695" width="10.2859" height="6.05078" filterUnits="userSpaceOnUse" color-interpolation-filters="sRGB">
<feFlood flood-opacity="0" result="BackgroundImageFix"/>
<feBlend mode="normal" in="SourceGraphic" in2="BackgroundImageFix" result="shape"/>
<feGaussianBlur stdDeviation="0.25" result="effect1_foregroundBlur_165_3184"/>
</filter>
<filter id="filter7_f_165_3184" x="186.568" y="144.863" width="6.29497" height="5.10083" filterUnits="userSpaceOnUse" color-interpolation-filters="sRGB">
<feFlood flood-opacity="0" result="BackgroundImageFix"/>
<feBlend mode="normal" in="SourceGraphic" in2="BackgroundImageFix" result="shape"/>
<feGaussianBlur stdDeviation="0.25" result="effect1_foregroundBlur_165_3184"/>
</filter>
<filter id="filter8_f_165_3184" x="188.678" y="136.758" width="9.3857" height="5.15051" filterUnits="userSpaceOnUse" color-interpolation-filters="sRGB">
<feFlood flood-opacity="0" result="BackgroundImageFix"/>
<feBlend mode="normal" in="SourceGraphic" in2="BackgroundImageFix" result="shape"/>
<feGaussianBlur stdDeviation="0.25" result="effect1_foregroundBlur_165_3184"/>
</filter>
<filter id="filter9_f_165_3184" x="197.028" y="135.876" width="1.77126" height="1.71765" filterUnits="userSpaceOnUse" color-interpolation-filters="sRGB">
<feFlood flood-opacity="0" result="BackgroundImageFix"/>
<feBlend mode="normal" in="SourceGraphic" in2="BackgroundImageFix" result="shape"/>
<feGaussianBlur stdDeviation="0.25" result="effect1_foregroundBlur_165_3184"/>
</filter>
<filter id="filter10_f_165_3184" x="188.533" y="144.519" width="9.37932" height="5.16333" filterUnits="userSpaceOnUse" color-interpolation-filters="sRGB">
<feFlood flood-opacity="0" result="BackgroundImageFix"/>
<feBlend mode="normal" in="SourceGraphic" in2="BackgroundImageFix" result="shape"/>
<feGaussianBlur stdDeviation="0.25" result="effect1_foregroundBlur_165_3184"/>
</filter>
<filter id="filter11_f_165_3184" x="196.892" y="148.171" width="1.76565" height="1.72351" filterUnits="userSpaceOnUse" color-interpolation-filters="sRGB">
<feFlood flood-opacity="0" result="BackgroundImageFix"/>
<feBlend mode="normal" in="SourceGraphic" in2="BackgroundImageFix" result="shape"/>
<feGaussianBlur stdDeviation="0.25" result="effect1_foregroundBlur_165_3184"/>
</filter>
<filter id="filter12_f_165_3184" x="140.283" y="144.54" width="9.3772" height="5.1676" filterUnits="userSpaceOnUse" color-interpolation-filters="sRGB">
<feFlood flood-opacity="0" result="BackgroundImageFix"/>
<feBlend mode="normal" in="SourceGraphic" in2="BackgroundImageFix" result="shape"/>
<feGaussianBlur stdDeviation="0.25" result="effect1_foregroundBlur_165_3184"/>
</filter>
<filter id="filter13_f_165_3184" x="148.236" y="144.216" width="1.77407" height="1.7146" filterUnits="userSpaceOnUse" color-interpolation-filters="sRGB">
<feFlood flood-opacity="0" result="BackgroundImageFix"/>
<feBlend mode="normal" in="SourceGraphic" in2="BackgroundImageFix" result="shape"/>
<feGaussianBlur stdDeviation="0.25" result="effect1_foregroundBlur_165_3184"/>
</filter>
<filter id="filter14_f_165_3184" x="140.427" y="136.348" width="9.40482" height="5.1123" filterUnits="userSpaceOnUse" color-interpolation-filters="sRGB">
<feFlood flood-opacity="0" result="BackgroundImageFix"/>
<feBlend mode="normal" in="SourceGraphic" in2="BackgroundImageFix" result="shape"/>
<feGaussianBlur stdDeviation="0.25" result="effect1_foregroundBlur_165_3184"/>
</filter>
<filter id="filter15_f_165_3184" x="148.486" y="139.935" width="1.71485" height="1.7738" filterUnits="userSpaceOnUse" color-interpolation-filters="sRGB">
<feFlood flood-opacity="0" result="BackgroundImageFix"/>
<feBlend mode="normal" in="SourceGraphic" in2="BackgroundImageFix" result="shape"/>
<feGaussianBlur stdDeviation="0.25" result="effect1_foregroundBlur_165_3184"/>
</filter>
<filter id="filter16_f_165_3184" x="174.144" y="129.747" width="4.29588" height="7.24756" filterUnits="userSpaceOnUse" color-interpolation-filters="sRGB">
<feFlood flood-opacity="0" result="BackgroundImageFix"/>
<feBlend mode="normal" in="SourceGraphic" in2="BackgroundImageFix" result="shape"/>
<feGaussianBlur stdDeviation="0.25" result="effect1_foregroundBlur_165_3184"/>
</filter>
<filter id="filter17_f_165_3184" x="157.514" y="129.747" width="4.29587" height="7.24756" filterUnits="userSpaceOnUse" color-interpolation-filters="sRGB">
<feFlood flood-opacity="0" result="BackgroundImageFix"/>
<feBlend mode="normal" in="SourceGraphic" in2="BackgroundImageFix" result="shape"/>
<feGaussianBlur stdDeviation="0.25" result="effect1_foregroundBlur_165_3184"/>
</filter>
<filter id="filter18_f_165_3184" x="176.938" y="129.747" width="2.003" height="2.00305" filterUnits="userSpaceOnUse" color-interpolation-filters="sRGB">
<feFlood flood-opacity="0" result="BackgroundImageFix"/>
<feBlend mode="normal" in="SourceGraphic" in2="BackgroundImageFix" result="shape"/>
<feGaussianBlur stdDeviation="0.25" result="effect1_foregroundBlur_165_3184"/>
</filter>
<filter id="filter19_f_165_3184" x="160.062" y="129.747" width="2.003" height="2.00305" filterUnits="userSpaceOnUse" color-interpolation-filters="sRGB">
<feFlood flood-opacity="0" result="BackgroundImageFix"/>
<feBlend mode="normal" in="SourceGraphic" in2="BackgroundImageFix" result="shape"/>
<feGaussianBlur stdDeviation="0.25" result="effect1_foregroundBlur_165_3184"/>
</filter>
<filter id="filter20_f_165_3184" x="177.967" y="110.467" width="17.7431" height="38.1453" filterUnits="userSpaceOnUse" color-interpolation-filters="sRGB">
<feFlood flood-opacity="0" result="BackgroundImageFix"/>
<feBlend mode="normal" in="SourceGraphic" in2="BackgroundImageFix" result="shape"/>
<feGaussianBlur stdDeviation="2" result="effect1_foregroundBlur_165_3184"/>
</filter>
<filter id="filter21_f_165_3184" x="183.294" y="108.055" width="8.90313" height="13.8183" filterUnits="userSpaceOnUse" color-interpolation-filters="sRGB">
<feFlood flood-opacity="0" result="BackgroundImageFix"/>
<feBlend mode="normal" in="SourceGraphic" in2="BackgroundImageFix" result="shape"/>
<feGaussianBlur stdDeviation="0.3" result="effect1_foregroundBlur_165_3184"/>
</filter>
<filter id="filter22_f_165_3184" x="184.42" y="113.866" width="7.38051" height="7.80762" filterUnits="userSpaceOnUse" color-interpolation-filters="sRGB">
<feFlood flood-opacity="0" result="BackgroundImageFix"/>
<feBlend mode="normal" in="SourceGraphic" in2="BackgroundImageFix" result="shape"/>
<feGaussianBlur stdDeviation="0.375" result="effect1_foregroundBlur_165_3184"/>
</filter>
<filter id="filter23_f_165_3184" x="145.599" y="108.438" width="8.37163" height="13.5524" filterUnits="userSpaceOnUse" color-interpolation-filters="sRGB">
<feFlood flood-opacity="0" result="BackgroundImageFix"/>
<feBlend mode="normal" in="SourceGraphic" in2="BackgroundImageFix" result="shape"/>
<feGaussianBlur stdDeviation="0.25" result="effect1_foregroundBlur_165_3184"/>
</filter>
<filter id="filter24_f_165_3184" x="145.524" y="108.845" width="1.15" height="12.1724" filterUnits="userSpaceOnUse" color-interpolation-filters="sRGB">
<feFlood flood-opacity="0" result="BackgroundImageFix"/>
<feBlend mode="normal" in="SourceGraphic" in2="BackgroundImageFix" result="shape"/>
<feGaussianBlur stdDeviation="0.25" result="effect1_foregroundBlur_165_3184"/>
</filter>
<filter id="filter25_d_165_3184" x="96" y="200" width="56" height="56" filterUnits="userSpaceOnUse" color-interpolation-filters="sRGB">
<feFlood flood-opacity="0" result="BackgroundImageFix"/>
<feColorMatrix in="SourceAlpha" type="matrix" values="0 0 0 0 0 0 0 0 0 0 0 0 0 0 0 0 0 0 127 0" result="hardAlpha"/>
<feOffset dy="4"/>
<feGaussianBlur stdDeviation="2"/>
<feComposite in2="hardAlpha" operator="out"/>
<feColorMatrix type="matrix" values="0 0 0 0 0 0 0 0 0 0 0 0 0 0 0 0 0 0 0.25 0"/>
<feBlend mode="normal" in2="BackgroundImageFix" result="effect1_dropShadow_165_3184"/>
<feBlend mode="normal" in="SourceGraphic" in2="effect1_dropShadow_165_3184" result="shape"/>
</filter>
<filter id="filter26_ii_165_3184" x="134.549" y="202.85" width="10.5063" height="12.2603" filterUnits="userSpaceOnUse" color-interpolation-filters="sRGB">
<feFlood flood-opacity="0" result="BackgroundImageFix"/>
<feBlend mode="normal" in="SourceGraphic" in2="BackgroundImageFix" result="shape"/>
<feColorMatrix in="SourceAlpha" type="matrix" values="0 0 0 0 0 0 0 0 0 0 0 0 0 0 0 0 0 0 127 0" result="hardAlpha"/>
<feOffset dx="0.15" dy="-0.15"/>
<feGaussianBlur stdDeviation="0.375"/>
<feComposite in2="hardAlpha" operator="arithmetic" k2="-1" k3="1"/>
<feColorMatrix type="matrix" values="0 0 0 0 0.94902 0 0 0 0 0.513726 0 0 0 0 0.392157 0 0 0 1 0"/>
<feBlend mode="normal" in2="shape" result="effect1_innerShadow_165_3184"/>
<feColorMatrix in="SourceAlpha" type="matrix" values="0 0 0 0 0 0 0 0 0 0 0 0 0 0 0 0 0 0 127 0" result="hardAlpha"/>
<feOffset dx="-0.15" dy="0.15"/>
<feGaussianBlur stdDeviation="0.3"/>
<feComposite in2="hardAlpha" operator="arithmetic" k2="-1" k3="1"/>
<feColorMatrix type="matrix" values="0 0 0 0 1 0 0 0 0 0.823529 0 0 0 0 0.407843 0 0 0 1 0"/>
<feBlend mode="normal" in2="effect1_innerShadow_165_3184" result="effect2_innerShadow_165_3184"/>
</filter>
<filter id="filter27_ii_165_3184" x="118.566" y="204.36" width="7.92871" height="9.23982" filterUnits="userSpaceOnUse" color-interpolation-filters="sRGB">
<feFlood flood-opacity="0" result="BackgroundImageFix"/>
<feBlend mode="normal" in="SourceGraphic" in2="BackgroundImageFix" result="shape"/>
<feColorMatrix in="SourceAlpha" type="matrix" values="0 0 0 0 0 0 0 0 0 0 0 0 0 0 0 0 0 0 127 0" result="hardAlpha"/>
<feOffset dx="0.15" dy="-0.15"/>
<feGaussianBlur stdDeviation="0.375"/>
<feComposite in2="hardAlpha" operator="arithmetic" k2="-1" k3="1"/>
<feColorMatrix type="matrix" values="0 0 0 0 0.94902 0 0 0 0 0.513726 0 0 0 0 0.392157 0 0 0 1 0"/>
<feBlend mode="normal" in2="shape" result="effect1_innerShadow_165_3184"/>
<feColorMatrix in="SourceAlpha" type="matrix" values="0 0 0 0 0 0 0 0 0 0 0 0 0 0 0 0 0 0 127 0" result="hardAlpha"/>
<feOffset dx="-0.15" dy="0.15"/>
<feGaussianBlur stdDeviation="0.3"/>
<feComposite in2="hardAlpha" operator="arithmetic" k2="-1" k3="1"/>
<feColorMatrix type="matrix" values="0 0 0 0 1 0 0 0 0 0.823529 0 0 0 0 0.407843 0 0 0 1 0"/>
<feBlend mode="normal" in2="effect1_innerShadow_165_3184" result="effect2_innerShadow_165_3184"/>
</filter>
<filter id="filter28_ii_165_3184" x="132.91" y="220.812" width="7.92872" height="9.24409" filterUnits="userSpaceOnUse" color-interpolation-filters="sRGB">
<feFlood flood-opacity="0" result="BackgroundImageFix"/>
<feBlend mode="normal" in="SourceGraphic" in2="BackgroundImageFix" result="shape"/>
<feColorMatrix in="SourceAlpha" type="matrix" values="0 0 0 0 0 0 0 0 0 0 0 0 0 0 0 0 0 0 127 0" result="hardAlpha"/>
<feOffset dx="0.15" dy="-0.15"/>
<feGaussianBlur stdDeviation="0.375"/>
<feComposite in2="hardAlpha" operator="arithmetic" k2="-1" k3="1"/>
<feColorMatrix type="matrix" values="0 0 0 0 0.94902 0 0 0 0 0.513726 0 0 0 0 0.392157 0 0 0 1 0"/>
<feBlend mode="normal" in2="shape" result="effect1_innerShadow_165_3184"/>
<feColorMatrix in="SourceAlpha" type="matrix" values="0 0 0 0 0 0 0 0 0 0 0 0 0 0 0 0 0 0 127 0" result="hardAlpha"/>
<feOffset dx="-0.15" dy="0.15"/>
<feGaussianBlur stdDeviation="0.3"/>
<feComposite in2="hardAlpha" operator="arithmetic" k2="-1" k3="1"/>
<feColorMatrix type="matrix" values="0 0 0 0 1 0 0 0 0 0.823529 0 0 0 0 0.407843 0 0 0 1 0"/>
<feBlend mode="normal" in2="effect1_innerShadow_165_3184" result="effect2_innerShadow_165_3184"/>
</filter>
<filter id="filter29_f_165_3184" x="105.581" y="217.684" width="24.0883" height="24.1827" filterUnits="userSpaceOnUse" color-interpolation-filters="sRGB">
<feFlood flood-opacity="0" result="BackgroundImageFix"/>
<feBlend mode="normal" in="SourceGraphic" in2="BackgroundImageFix" result="shape"/>
<feGaussianBlur stdDeviation="0.25" result="effect1_foregroundBlur_165_3184"/>
</filter>
<filter id="filter30_i_165_3184" x="103.236" y="238.096" width="6.26021" height="6.66223" filterUnits="userSpaceOnUse" color-interpolation-filters="sRGB">
<feFlood flood-opacity="0" result="BackgroundImageFix"/>
<feBlend mode="normal" in="SourceGraphic" in2="BackgroundImageFix" result="shape"/>
<feColorMatrix in="SourceAlpha" type="matrix" values="0 0 0 0 0 0 0 0 0 0 0 0 0 0 0 0 0 0 127 0" result="hardAlpha"/>
<feOffset dx="-0.1" dy="-0.5"/>
<feGaussianBlur stdDeviation="0.5"/>
<feComposite in2="hardAlpha" operator="arithmetic" k2="-1" k3="1"/>
<feColorMatrix type="matrix" values="0 0 0 0 0.698039 0 0 0 0 0.619608 0 0 0 0 0.792157 0 0 0 1 0"/>
<feBlend mode="normal" in2="shape" result="effect1_innerShadow_165_3184"/>
</filter>
<linearGradient id="paint0_linear_165_3184" x1="151.923" y1="95.4012" x2="151.923" y2="159.024" gradientUnits="userSpaceOnUse">
<stop offset="0.288" stop-color="#F2CC26"/>
<stop offset="0.762" stop-color="#E99E20"/>
<stop offset="0.993" stop-color="#E3821D"/>
<stop offset="1" stop-color="#E3801D"/>
</linearGradient>
<linearGradient id="paint1_linear_165_3184" x1="153.878" y1="118.334" x2="137.675" y2="118.334" gradientUnits="userSpaceOnUse">
<stop stop-color="#E99E20" stop-opacity="0"/>
<stop offset="0.993" stop-color="#E3821D"/>
<stop offset="1" stop-color="#E3801D"/>
</linearGradient>
<linearGradient id="paint2_linear_165_3184" x1="191.863" y1="118.334" x2="199.166" y2="118.334" gradientUnits="userSpaceOnUse">
<stop stop-color="#E99E20" stop-opacity="0"/>
<stop offset="0.993" stop-color="#E3821D"/>
<stop offset="1" stop-color="#E3801D"/>
</linearGradient>
<linearGradient id="paint3_linear_165_3184" x1="169.043" y1="89.0815" x2="169.04" y2="159.024" gradientUnits="userSpaceOnUse">
<stop offset="0.771" stop-color="#F59639" stop-opacity="0"/>
<stop offset="1" stop-color="#FF63C4"/>
</linearGradient>
<linearGradient id="paint4_linear_165_3184" x1="169.04" y1="116.658" x2="169.04" y2="162.211" gradientUnits="userSpaceOnUse">
<stop offset="0.854" stop-color="white" stop-opacity="0"/>
<stop offset="0.985" stop-color="white"/>
</linearGradient>
<radialGradient id="paint5_radial_165_3184" cx="0" cy="0" r="1" gradientUnits="userSpaceOnUse" gradientTransform="translate(182.099 102.116) rotate(55.85) scale(11.4746 22.6746)">
<stop stop-color="#FFA720"/>
<stop offset="0.921" stop-color="#FFA720" stop-opacity="0"/>
</radialGradient>
<linearGradient id="paint6_linear_165_3184" x1="181.555" y1="107.56" x2="194.851" y2="122.102" gradientUnits="userSpaceOnUse">
<stop stop-color="#FFA720"/>
<stop offset="1" stop-color="#FFA720" stop-opacity="0"/>
</linearGradient>
<linearGradient id="paint7_linear_165_3184" x1="157.529" y1="115.561" x2="145.079" y2="114.399" gradientUnits="userSpaceOnUse">
<stop offset="0.437" stop-color="#ED8C1B"/>
<stop offset="1" stop-color="#FFB03A"/>
</linearGradient>
<linearGradient id="paint8_linear_165_3184" x1="192.46" y1="103.542" x2="191.194" y2="108.517" gradientUnits="userSpaceOnUse">
<stop offset="0.286" stop-color="#FFE792"/>
<stop offset="1" stop-color="#FFDD65" stop-opacity="0"/>
</linearGradient>
<linearGradient id="paint9_linear_165_3184" x1="168.471" y1="140.496" x2="167.043" y2="142.821" gradientUnits="userSpaceOnUse">
<stop stop-color="#E3900E"/>
<stop offset="1" stop-color="#EA9D26" stop-opacity="0"/>
</linearGradient>
<radialGradient id="paint10_radial_165_3184" cx="0" cy="0" r="1" gradientUnits="userSpaceOnUse" gradientTransform="translate(169.948 138.007) rotate(-153.246) scale(4.49924 4.52583)">
<stop stop-color="#EA088B"/>
<stop offset="1" stop-color="#E61E27"/>
</radialGradient>
<linearGradient id="paint11_linear_165_3184" x1="171.559" y1="137.075" x2="168.32" y2="137.075" gradientUnits="userSpaceOnUse">
<stop stop-color="white" stop-opacity="0.9"/>
<stop offset="1" stop-color="white" stop-opacity="0"/>
</linearGradient>
<linearGradient id="paint12_linear_165_3184" x1="186.616" y1="142.377" x2="194.551" y2="138.305" gradientUnits="userSpaceOnUse">
<stop stop-color="#E88105"/>
<stop offset="1" stop-color="#E37D02" stop-opacity="0"/>
</linearGradient>
<linearGradient id="paint13_linear_165_3184" x1="186.616" y1="145.233" x2="194.551" y2="149.302" gradientUnits="userSpaceOnUse">
<stop offset="0.286" stop-color="#DE7D07"/>
<stop offset="0.818" stop-color="#E37D02" stop-opacity="0"/>
</linearGradient>
<linearGradient id="paint14_linear_165_3184" x1="188.741" y1="141.758" x2="197.413" y2="137.642" gradientUnits="userSpaceOnUse">
<stop offset="0.156" stop-color="#D64A38"/>
<stop offset="1" stop-color="#FB7425"/>
</linearGradient>
<linearGradient id="paint15_linear_165_3184" x1="188.282" y1="145.509" x2="196.935" y2="149.663" gradientUnits="userSpaceOnUse">
<stop offset="0.156" stop-color="#D64A38"/>
<stop offset="1" stop-color="#FB7425"/>
</linearGradient>
<linearGradient id="paint16_linear_165_3184" x1="149.913" y1="145.532" x2="141.258" y2="149.689" gradientUnits="userSpaceOnUse">
<stop offset="0.156" stop-color="#D64A38"/>
<stop offset="1" stop-color="#FB7425"/>
</linearGradient>
<linearGradient id="paint17_linear_165_3184" x1="149.488" y1="141.724" x2="140.797" y2="137.651" gradientUnits="userSpaceOnUse">
<stop offset="0.156" stop-color="#D64A38"/>
<stop offset="1" stop-color="#FB7425"/>
</linearGradient>
<linearGradient id="paint18_linear_165_3184" x1="169.1" y1="151.486" x2="169.1" y2="142.087" gradientUnits="userSpaceOnUse">
<stop stop-color="#E61E27"/>
<stop offset="1" stop-color="#672A7A"/>
</linearGradient>
<linearGradient id="paint19_linear_165_3184" x1="178.962" y1="134.82" x2="181.087" y2="142.175" gradientUnits="userSpaceOnUse">
<stop stop-color="#EC9611"/>
<stop offset="1" stop-color="#EA9D26" stop-opacity="0"/>
</linearGradient>
<linearGradient id="paint20_linear_165_3184" x1="183.66" y1="131.698" x2="174.164" y2="131.698" gradientUnits="userSpaceOnUse">
<stop stop-color="#432A3D"/>
<stop offset="0.568" stop-color="#684E61"/>
<stop offset="0.766" stop-color="#43253D"/>
</linearGradient>
<linearGradient id="paint21_linear_165_3184" x1="178.182" y1="131.367" x2="178.182" y2="136.248" gradientUnits="userSpaceOnUse">
<stop offset="0.327" stop-color="#43253D" stop-opacity="0"/>
<stop offset="1" stop-color="#43253D"/>
</linearGradient>
<linearGradient id="paint22_linear_165_3184" x1="162.332" y1="134.82" x2="164.457" y2="142.175" gradientUnits="userSpaceOnUse">
<stop stop-color="#E89311"/>
<stop offset="1" stop-color="#EA9D26" stop-opacity="0"/>
</linearGradient>
<linearGradient id="paint23_linear_165_3184" x1="166.784" y1="131.698" x2="157.289" y2="131.698" gradientUnits="userSpaceOnUse">
<stop stop-color="#432A3D"/>
<stop offset="0.568" stop-color="#684E61"/>
<stop offset="0.766" stop-color="#43253D"/>
</linearGradient>
<linearGradient id="paint24_linear_165_3184" x1="161.305" y1="131.367" x2="161.305" y2="136.248" gradientUnits="userSpaceOnUse">
<stop offset="0.327" stop-color="#43253D" stop-opacity="0"/>
<stop offset="1" stop-color="#43253D"/>
</linearGradient>
<linearGradient id="paint25_linear_165_3184" x1="184.623" y1="116.031" x2="183.782" y2="141.639" gradientUnits="userSpaceOnUse">
<stop offset="0.548" stop-color="#FFDD65"/>
<stop offset="1" stop-color="#FFDD65" stop-opacity="0"/>
</linearGradient>
<linearGradient id="paint26_linear_165_3184" x1="191.397" y1="125.955" x2="188.741" y2="118.583" gradientUnits="userSpaceOnUse">
<stop stop-color="#EF8A47"/>
<stop offset="1" stop-color="#EF8A47" stop-opacity="0"/>
</linearGradient>
<radialGradient id="paint27_radial_165_3184" cx="0" cy="0" r="1" gradientUnits="userSpaceOnUse" gradientTransform="translate(183.595 109.518) rotate(55.7389) scale(16.6321 19.9415)">
<stop stop-color="#FFDF70"/>
<stop offset="1" stop-color="#FFDF70" stop-opacity="0"/>
</radialGradient>
<linearGradient id="paint28_linear_165_3184" x1="188.242" y1="115.264" x2="188.242" y2="120.242" gradientUnits="userSpaceOnUse">
<stop offset="0.432" stop-color="#FFE7A3"/>
<stop offset="1" stop-color="#FFDF83" stop-opacity="0"/>
</linearGradient>
<linearGradient id="paint29_linear_165_3184" x1="218.312" y1="205.25" x2="218.312" y2="213.922" gradientUnits="userSpaceOnUse">
<stop stop-color="#CB8E66"/>
<stop offset="0.419" stop-color="#CE9439"/>
<stop offset="1" stop-color="#E3AB36"/>
</linearGradient>
<linearGradient id="paint30_linear_165_3184" x1="238.937" y1="177.239" x2="238.937" y2="220.171" gradientUnits="userSpaceOnUse">
<stop stop-color="#FFE73E"/>
<stop offset="0.931" stop-color="#FEDA55"/>
</linearGradient>
<linearGradient id="paint31_linear_165_3184" x1="215.5" y1="220.171" x2="251.359" y2="220.171" gradientUnits="userSpaceOnUse">
<stop stop-color="#D1AA28"/>
<stop offset="0.02" stop-color="#FBB66B"/>
<stop offset="0.033" stop-color="#F9B26A" stop-opacity="0"/>
</linearGradient>
<linearGradient id="paint32_linear_165_3184" x1="233.605" y1="181.812" x2="240.931" y2="215.797" gradientUnits="userSpaceOnUse">
<stop offset="0.043" stop-color="#FFF16D"/>
<stop offset="0.058" stop-color="#FFF26F" stop-opacity="0"/>
</linearGradient>
<radialGradient id="paint33_radial_165_3184" cx="0" cy="0" r="1" gradientUnits="userSpaceOnUse" gradientTransform="translate(261.673 187.788) rotate(122.381) scale(5.68933 6.21204)">
<stop offset="0.53" stop-color="#F7CF4D"/>
<stop offset="0.975" stop-color="#FECF3A" stop-opacity="0"/>
</radialGradient>
<linearGradient id="paint34_linear_165_3184" x1="228.098" y1="173.99" x2="238.741" y2="186.734" gradientUnits="userSpaceOnUse">
<stop offset="0.109" stop-color="#E6BC58"/>
<stop offset="0.209" stop-color="#EDC050" stop-opacity="0"/>
</linearGradient>
<radialGradient id="paint35_radial_165_3184" cx="0" cy="0" r="1" gradientUnits="userSpaceOnUse" gradientTransform="translate(215.031 192.946) rotate(-16.5688) scale(14.794 17.2274)">
<stop stop-color="#EBBC41"/>
<stop offset="1" stop-color="#F6C945" stop-opacity="0"/>
</radialGradient>
<radialGradient id="paint36_radial_165_3184" cx="0" cy="0" r="1" gradientUnits="userSpaceOnUse" gradientTransform="translate(244.328 196.578) rotate(-44.5692) scale(11.0212 13.0279)">
<stop stop-color="#FFDD6C"/>
<stop offset="0.336" stop-color="#FFC360"/>
<stop offset="1" stop-color="#CD872B"/>
</radialGradient>
<radialGradient id="paint37_radial_165_3184" cx="0" cy="0" r="1" gradientUnits="userSpaceOnUse" gradientTransform="translate(231.198 201.734) rotate(-44.569) scale(6.63291 7.84057)">
<stop stop-color="#FFDD6C"/>
<stop offset="0.336" stop-color="#FFC360"/>
<stop offset="1" stop-color="#CD872B"/>
</radialGradient>
<radialGradient id="paint38_radial_165_3184" cx="0" cy="0" r="1" gradientUnits="userSpaceOnUse" gradientTransform="translate(240.925 206.523) rotate(-44.5692) scale(3.79441 4.48526)">
<stop stop-color="#FFDD6C"/>
<stop offset="0.336" stop-color="#FFC360"/>
<stop offset="1" stop-color="#CD872B"/>
</radialGradient>
<linearGradient id="paint39_linear_165_3184" x1="128.851" y1="219.531" x2="107.758" y2="241.094" gradientUnits="userSpaceOnUse">
<stop stop-color="#60105F"/>
<stop offset="1" stop-color="#54155E"/>
</linearGradient>
<linearGradient id="paint40_linear_165_3184" x1="108.25" y1="236.102" x2="110.453" y2="238.281" gradientUnits="userSpaceOnUse">
<stop stop-color="#523253"/>
<stop offset="1" stop-color="#523253" stop-opacity="0"/>
</linearGradient>
<linearGradient id="paint41_linear_165_3184" x1="143.471" y1="206.168" x2="137.525" y2="212.118" gradientUnits="userSpaceOnUse">
<stop stop-color="#FFD459"/>
<stop offset="1" stop-color="#FFA271"/>
</linearGradient>
<linearGradient id="paint42_linear_165_3184" x1="125.272" y1="206.877" x2="120.827" y2="211.326" gradientUnits="userSpaceOnUse">
<stop stop-color="#FFD465"/>
<stop offset="1" stop-color="#FFAF36"/>
</linearGradient>
<linearGradient id="paint43_linear_165_3184" x1="139.615" y1="223.331" x2="135.171" y2="227.78" gradientUnits="userSpaceOnUse">
<stop stop-color="#FFD465"/>
<stop offset="1" stop-color="#FFAF36"/>
</linearGradient>
<radialGradient id="paint44_radial_165_3184" cx="0" cy="0" r="1" gradientUnits="userSpaceOnUse" gradientTransform="translate(143.962 218.694) rotate(127.823) scale(2.81211 2.63015)">
<stop stop-color="#FFD463"/>
<stop offset="1" stop-color="#E68F2B"/>
</radialGradient>
<radialGradient id="paint45_radial_165_3184" cx="0" cy="0" r="1" gradientUnits="userSpaceOnUse" gradientTransform="translate(143.137 218.196) rotate(90) scale(3.09303 2.69628)">
<stop offset="0.797" stop-color="#E37A42" stop-opacity="0"/>
<stop offset="1" stop-color="#E37A42"/>
</radialGradient>
<radialGradient id="paint46_radial_165_3184" cx="0" cy="0" r="1" gradientUnits="userSpaceOnUse" gradientTransform="translate(129.361 230.951) rotate(127.823) scale(2.81211 2.63015)">
<stop stop-color="#FFD463"/>
<stop offset="1" stop-color="#E68F2B"/>
</radialGradient>
<radialGradient id="paint47_radial_165_3184" cx="0" cy="0" r="1" gradientUnits="userSpaceOnUse" gradientTransform="translate(128.535 230.454) rotate(90) scale(3.09303 2.69628)">
<stop offset="0.797" stop-color="#E37A42" stop-opacity="0"/>
<stop offset="1" stop-color="#E37A42"/>
</radialGradient>
<radialGradient id="paint48_radial_165_3184" cx="0" cy="0" r="1" gradientUnits="userSpaceOnUse" gradientTransform="translate(118.872 219.04) rotate(127.823) scale(2.70157 2.52677)">
<stop stop-color="#FFD463"/>
<stop offset="1" stop-color="#E68F2B"/>
</radialGradient>
<radialGradient id="paint49_radial_165_3184" cx="0" cy="0" r="1" gradientUnits="userSpaceOnUse" gradientTransform="translate(118.08 218.561) rotate(90) scale(2.97144 2.59029)">
<stop offset="0.797" stop-color="#E37A42" stop-opacity="0"/>
<stop offset="1" stop-color="#E37A42"/>
</radialGradient>
<radialGradient id="paint50_radial_165_3184" cx="0" cy="0" r="1" gradientUnits="userSpaceOnUse" gradientTransform="translate(129.226 203.922) rotate(127.823) scale(2.255 2.10909)">
<stop stop-color="#FFD463"/>
<stop offset="1" stop-color="#E68F2B"/>
</radialGradient>
<radialGradient id="paint51_radial_165_3184" cx="0" cy="0" r="1" gradientUnits="userSpaceOnUse" gradientTransform="translate(128.565 203.525) rotate(90) scale(2.48025 2.16211)">
<stop offset="0.869" stop-color="#E37A42" stop-opacity="0"/>
<stop offset="1" stop-color="#E37A42"/>
</radialGradient>
<linearGradient id="paint52_linear_165_3184" x1="127.82" y1="220.001" x2="106.258" y2="241.188" gradientUnits="userSpaceOnUse">
<stop stop-color="#692167"/>
<stop offset="1" stop-color="#5B2460"/>
</linearGradient>
<linearGradient id="paint53_linear_165_3184" x1="128.27" y1="216.531" x2="129.773" y2="217.953" gradientUnits="userSpaceOnUse">
<stop stop-color="#C1BFC3"/>
<stop offset="1" stop-color="#C1BFC3" stop-opacity="0"/>
</linearGradient>
<linearGradient id="paint54_linear_165_3184" x1="132.133" y1="219.321" x2="131.195" y2="218.337" gradientUnits="userSpaceOnUse">
<stop stop-color="#B0A1BF"/>
<stop offset="1" stop-color="#B0A1BF" stop-opacity="0"/>
</linearGradient>
<radialGradient id="paint55_radial_165_3184" cx="0" cy="0" r="1" gradientUnits="userSpaceOnUse" gradientTransform="translate(132.695 215.172) rotate(133.939) scale(1.79018 2.16279)">
<stop offset="0.21" stop-color="#ECE8F2"/>
<stop offset="1" stop-color="#ECE8F2" stop-opacity="0"/>
</radialGradient>
<linearGradient id="paint56_linear_165_3184" x1="104.925" y1="239.877" x2="106.416" y2="241.367" gradientUnits="userSpaceOnUse">
<stop stop-color="#A8A6AD"/>
<stop offset="1" stop-color="#A8A6AD" stop-opacity="0"/>
</linearGradient>
<linearGradient id="paint57_linear_165_3184" x1="103.914" y1="244.61" x2="105.087" y2="243.156" gradientUnits="userSpaceOnUse">
<stop stop-color="#968FA1"/>
<stop offset="1" stop-color="#968FA1" stop-opacity="0"/>
</linearGradient>
<radialGradient id="paint58_radial_165_3184" cx="0" cy="0" r="1" gradientUnits="userSpaceOnUse" gradientTransform="translate(106.416 238.844) rotate(98.4726) scale(7.2747 7.42647)">
<stop offset="0.661" stop-color="#8F6EAF" stop-opacity="0"/>
<stop offset="0.918" stop-color="#8F6EAF"/>
</radialGradient>
</defs>
</svg>
