<svg width="150" height="150" viewBox="0 0 150 150" fill="none" xmlns="http://www.w3.org/2000/svg">
<path d="M70.4249 97.4532L58.8187 92.0297C58.7624 89.5172 60.2671 88.3735 61.1718 88.1344L71.9062 93.1078C72.6937 95.1891 71.2827 96.7875 70.4249 97.4485V97.4532Z" fill="url(#paint0_radial_153_2888)"/>
<path d="M66.1265 99.6656C66.5784 98.9215 66.7162 98.0285 66.5097 97.1828C66.3031 96.3371 65.769 95.6081 65.0249 95.1562C64.2809 94.7043 63.3878 94.5665 62.5421 94.7731C61.6964 94.9797 60.9675 95.5137 60.5156 96.2578L66.1265 99.6656ZM33.9656 133.8C33.5299 133.758 33.0902 133.804 32.6725 133.934C32.2547 134.065 31.8672 134.277 31.5329 134.56C31.1986 134.842 30.9242 135.189 30.7258 135.579C30.5275 135.969 30.4092 136.395 30.3779 136.832C30.3466 137.268 30.403 137.707 30.5437 138.121C30.6845 138.536 30.9067 138.918 31.1973 139.245C31.4879 139.572 31.8411 139.838 32.236 140.027C32.6309 140.215 33.0596 140.323 33.4968 140.344L33.9656 133.8ZM60.5156 96.2578C59.4515 98.0203 56.7984 103.158 55.964 110.016L62.4796 110.808C63.1687 105.127 65.3859 100.884 66.1265 99.6656L60.5156 96.2578ZM55.964 110.016C55.4718 114.07 55.1062 118.008 54.5671 121.523C54.0046 125.161 53.3578 127.533 52.6453 128.639L58.1765 132.178C59.7328 129.741 60.5109 126.037 61.0546 122.522C61.6124 118.88 62.0203 114.591 62.4796 110.808L55.964 110.016ZM52.6499 128.639C51.2437 130.833 49.9312 132.141 47.6249 132.966C45.0796 133.88 41.0437 134.302 33.9656 133.8L33.4968 140.344C40.8093 140.869 45.9703 140.531 49.8421 139.144C53.9531 137.672 56.2828 135.131 58.1765 132.178L52.6453 128.639H52.6499Z" fill="#1E86F5"/>
<path d="M66.1265 99.6656C66.5784 98.9215 66.7162 98.0285 66.5097 97.1828C66.3031 96.3371 65.769 95.6081 65.0249 95.1562C64.2809 94.7043 63.3878 94.5665 62.5421 94.7731C61.6964 94.9797 60.9675 95.5137 60.5156 96.2578L66.1265 99.6656ZM33.9656 133.8C33.5299 133.758 33.0902 133.804 32.6725 133.934C32.2547 134.065 31.8672 134.277 31.5329 134.56C31.1986 134.842 30.9242 135.189 30.7258 135.579C30.5275 135.969 30.4092 136.395 30.3779 136.832C30.3466 137.268 30.403 137.707 30.5437 138.121C30.6845 138.536 30.9067 138.918 31.1973 139.245C31.4879 139.572 31.8411 139.838 32.236 140.027C32.6309 140.215 33.0596 140.323 33.4968 140.344L33.9656 133.8ZM60.5156 96.2578C59.4515 98.0203 56.7984 103.158 55.964 110.016L62.4796 110.808C63.1687 105.127 65.3859 100.884 66.1265 99.6656L60.5156 96.2578ZM55.964 110.016C55.4718 114.07 55.1062 118.008 54.5671 121.523C54.0046 125.161 53.3578 127.533 52.6453 128.639L58.1765 132.178C59.7328 129.741 60.5109 126.037 61.0546 122.522C61.6124 118.88 62.0203 114.591 62.4796 110.808L55.964 110.016ZM52.6499 128.639C51.2437 130.833 49.9312 132.141 47.6249 132.966C45.0796 133.88 41.0437 134.302 33.9656 133.8L33.4968 140.344C40.8093 140.869 45.9703 140.531 49.8421 139.144C53.9531 137.672 56.2828 135.131 58.1765 132.178L52.6453 128.639H52.6499Z" fill="url(#paint1_linear_153_2888)"/>
<path d="M66.1265 99.6656C66.5784 98.9215 66.7162 98.0285 66.5097 97.1828C66.3031 96.3371 65.769 95.6081 65.0249 95.1562C64.2809 94.7043 63.3878 94.5665 62.5421 94.7731C61.6964 94.9797 60.9675 95.5137 60.5156 96.2578L66.1265 99.6656ZM33.9656 133.8C33.5299 133.758 33.0902 133.804 32.6725 133.934C32.2547 134.065 31.8672 134.277 31.5329 134.56C31.1986 134.842 30.9242 135.189 30.7258 135.579C30.5275 135.969 30.4092 136.395 30.3779 136.832C30.3466 137.268 30.403 137.707 30.5437 138.121C30.6845 138.536 30.9067 138.918 31.1973 139.245C31.4879 139.572 31.8411 139.838 32.236 140.027C32.6309 140.215 33.0596 140.323 33.4968 140.344L33.9656 133.8ZM60.5156 96.2578C59.4515 98.0203 56.7984 103.158 55.964 110.016L62.4796 110.808C63.1687 105.127 65.3859 100.884 66.1265 99.6656L60.5156 96.2578ZM55.964 110.016C55.4718 114.07 55.1062 118.008 54.5671 121.523C54.0046 125.161 53.3578 127.533 52.6453 128.639L58.1765 132.178C59.7328 129.741 60.5109 126.037 61.0546 122.522C61.6124 118.88 62.0203 114.591 62.4796 110.808L55.964 110.016ZM52.6499 128.639C51.2437 130.833 49.9312 132.141 47.6249 132.966C45.0796 133.88 41.0437 134.302 33.9656 133.8L33.4968 140.344C40.8093 140.869 45.9703 140.531 49.8421 139.144C53.9531 137.672 56.2828 135.131 58.1765 132.178L52.6453 128.639H52.6499Z" fill="url(#paint2_linear_153_2888)"/>
<g filter="url(#filter0_i_153_2888)">
<path fill-rule="evenodd" clip-rule="evenodd" d="M54.3936 92.8453C54.8476 91.8572 55.6754 91.0898 56.6951 90.7118C57.7147 90.3338 58.8428 90.3762 59.8311 90.8297L70.528 95.7375C71.0294 95.9544 71.4824 96.2693 71.8604 96.6636C72.2384 97.0579 72.5339 97.5238 72.7294 98.0339C72.9249 98.544 73.0166 99.088 72.999 99.6339C72.9814 100.18 72.855 100.717 72.627 101.213C72.3991 101.71 72.0743 102.156 71.6717 102.525C71.2691 102.894 70.7968 103.179 70.2825 103.363C69.7683 103.548 69.2224 103.627 68.6769 103.597C68.1315 103.568 67.5974 103.43 67.1061 103.191L56.414 98.2828C55.4258 97.8289 54.6584 97.0011 54.2804 95.9814C53.9024 94.9617 53.9401 93.8337 54.3936 92.8453Z" fill="#A50641"/>
<path fill-rule="evenodd" clip-rule="evenodd" d="M54.3936 92.8453C54.8476 91.8572 55.6754 91.0898 56.6951 90.7118C57.7147 90.3338 58.8428 90.3762 59.8311 90.8297L70.528 95.7375C71.0294 95.9544 71.4824 96.2693 71.8604 96.6636C72.2384 97.0579 72.5339 97.5238 72.7294 98.0339C72.9249 98.544 73.0166 99.088 72.999 99.6339C72.9814 100.18 72.855 100.717 72.627 101.213C72.3991 101.71 72.0743 102.156 71.6717 102.525C71.2691 102.894 70.7968 103.179 70.2825 103.363C69.7683 103.548 69.2224 103.627 68.6769 103.597C68.1315 103.568 67.5974 103.43 67.1061 103.191L56.414 98.2828C55.4258 97.8289 54.6584 97.0011 54.2804 95.9814C53.9024 94.9617 53.9401 93.8337 54.3936 92.8453Z" fill="url(#paint3_linear_153_2888)"/>
<path fill-rule="evenodd" clip-rule="evenodd" d="M54.3936 92.8453C54.8476 91.8572 55.6754 91.0898 56.6951 90.7118C57.7147 90.3338 58.8428 90.3762 59.8311 90.8297L70.528 95.7375C71.0294 95.9544 71.4824 96.2693 71.8604 96.6636C72.2384 97.0579 72.5339 97.5238 72.7294 98.0339C72.9249 98.544 73.0166 99.088 72.999 99.6339C72.9814 100.18 72.855 100.717 72.627 101.213C72.3991 101.71 72.0743 102.156 71.6717 102.525C71.2691 102.894 70.7968 103.179 70.2825 103.363C69.7683 103.548 69.2224 103.627 68.6769 103.597C68.1315 103.568 67.5974 103.43 67.1061 103.191L56.414 98.2828C55.4258 97.8289 54.6584 97.0011 54.2804 95.9814C53.9024 94.9617 53.9401 93.8337 54.3936 92.8453Z" fill="url(#paint4_radial_153_2888)"/>
</g>
<path d="M83.7328 95.0344C107.387 95.0344 126.562 75.8589 126.562 52.2047C126.562 28.5505 107.387 9.375 83.7328 9.375C60.0786 9.375 40.9031 28.5505 40.9031 52.2047C40.9031 75.8589 60.0786 95.0344 83.7328 95.0344Z" fill="url(#paint5_radial_153_2888)"/>
<path d="M83.7328 95.0344C107.387 95.0344 126.562 75.8589 126.562 52.2047C126.562 28.5505 107.387 9.375 83.7328 9.375C60.0786 9.375 40.9031 28.5505 40.9031 52.2047C40.9031 75.8589 60.0786 95.0344 83.7328 95.0344Z" fill="url(#paint6_radial_153_2888)"/>
<path d="M83.7328 95.0344C107.387 95.0344 126.562 75.8589 126.562 52.2047C126.562 28.5505 107.387 9.375 83.7328 9.375C60.0786 9.375 40.9031 28.5505 40.9031 52.2047C40.9031 75.8589 60.0786 95.0344 83.7328 95.0344Z" fill="url(#paint7_radial_153_2888)"/>
<path d="M83.7328 95.0344C107.387 95.0344 126.562 75.8589 126.562 52.2047C126.562 28.5505 107.387 9.375 83.7328 9.375C60.0786 9.375 40.9031 28.5505 40.9031 52.2047C40.9031 75.8589 60.0786 95.0344 83.7328 95.0344Z" fill="url(#paint8_radial_153_2888)"/>
<path d="M83.7328 95.0344C107.387 95.0344 126.562 75.8589 126.562 52.2047C126.562 28.5505 107.387 9.375 83.7328 9.375C60.0786 9.375 40.9031 28.5505 40.9031 52.2047C40.9031 75.8589 60.0786 95.0344 83.7328 95.0344Z" fill="url(#paint9_radial_153_2888)"/>
<path d="M115.605 44.3538C119.081 41.7265 119.19 36.0139 115.85 31.5944C112.509 27.1749 106.983 25.722 103.507 28.3494C100.031 30.9767 99.9221 36.6893 103.263 41.1088C106.604 45.5283 112.129 46.9812 115.605 44.3538Z" fill="url(#paint10_radial_153_2888)"/>
<g filter="url(#filter1_f_153_2888)">
<path d="M61.3453 104.775C60.7125 106.58 59.3531 111.806 59.0015 118.252C58.4531 128.302 54.7546 139.05 38.3484 137.733" stroke="url(#paint11_linear_153_2888)" stroke-width="0.25"/>
</g>
<defs>
<filter id="filter0_i_153_2888" x="54.0226" y="90.4561" width="18.9785" height="13.3975" filterUnits="userSpaceOnUse" color-interpolation-filters="sRGB">
<feFlood flood-opacity="0" result="BackgroundImageFix"/>
<feBlend mode="normal" in="SourceGraphic" in2="BackgroundImageFix" result="shape"/>
<feColorMatrix in="SourceAlpha" type="matrix" values="0 0 0 0 0 0 0 0 0 0 0 0 0 0 0 0 0 0 127 0" result="hardAlpha"/>
<feOffset dy="0.25"/>
<feGaussianBlur stdDeviation="0.25"/>
<feComposite in2="hardAlpha" operator="arithmetic" k2="-1" k3="1"/>
<feColorMatrix type="matrix" values="0 0 0 0 0.576471 0 0 0 0 0.101961 0 0 0 0 0.294118 0 0 0 1 0"/>
<feBlend mode="normal" in2="shape" result="effect1_innerShadow_153_2888"/>
</filter>
<filter id="filter1_f_153_2888" x="37.9384" y="104.334" width="23.9249" height="34.0341" filterUnits="userSpaceOnUse" color-interpolation-filters="sRGB">
<feFlood flood-opacity="0" result="BackgroundImageFix"/>
<feBlend mode="normal" in="SourceGraphic" in2="BackgroundImageFix" result="shape"/>
<feGaussianBlur stdDeviation="0.2" result="effect1_foregroundBlur_153_2888"/>
</filter>
<radialGradient id="paint0_radial_153_2888" cx="0" cy="0" r="1" gradientUnits="userSpaceOnUse" gradientTransform="translate(67.2465 95.8133) rotate(-155.2) scale(6.27811 3.0682)">
<stop stop-color="#236FDE"/>
<stop offset="1" stop-color="#245CAD"/>
</radialGradient>
<linearGradient id="paint1_linear_153_2888" x1="31.6078" y1="137.297" x2="40.1062" y2="137.297" gradientUnits="userSpaceOnUse">
<stop stop-color="#1F67FF"/>
<stop offset="1" stop-color="#1F67FF" stop-opacity="0"/>
</linearGradient>
<linearGradient id="paint2_linear_153_2888" x1="60.1734" y1="99.5015" x2="61.4906" y2="105.797" gradientUnits="userSpaceOnUse">
<stop stop-color="#1F67FF"/>
<stop offset="1" stop-color="#1F67FF" stop-opacity="0"/>
</linearGradient>
<linearGradient id="paint3_linear_153_2888" x1="59.2733" y1="100.823" x2="61.378" y2="96.1782" gradientUnits="userSpaceOnUse">
<stop stop-color="#994CA1"/>
<stop offset="1" stop-color="#994CA1" stop-opacity="0"/>
</linearGradient>
<radialGradient id="paint4_radial_153_2888" cx="0" cy="0" r="1" gradientUnits="userSpaceOnUse" gradientTransform="translate(65.2218 97.0078) rotate(116.155) scale(2.46919 10.1403)">
<stop stop-color="#BE4369"/>
<stop offset="0.702" stop-color="#BE4369" stop-opacity="0"/>
</radialGradient>
<radialGradient id="paint5_radial_153_2888" cx="0" cy="0" r="1" gradientUnits="userSpaceOnUse" gradientTransform="translate(114.075 32.0625) rotate(140.847) scale(69.1369 74.6564)">
<stop stop-color="#FF3C47"/>
<stop offset="1" stop-color="#AC2146"/>
</radialGradient>
<radialGradient id="paint6_radial_153_2888" cx="0" cy="0" r="1" gradientUnits="userSpaceOnUse" gradientTransform="translate(89.6947 13.3501) rotate(99.176) scale(88.5127)">
<stop offset="0.719" stop-color="#8A4BB7" stop-opacity="0"/>
<stop offset="0.946" stop-color="#8A4BB7"/>
</radialGradient>
<radialGradient id="paint7_radial_153_2888" cx="0" cy="0" r="1" gradientUnits="userSpaceOnUse" gradientTransform="translate(67.289 101.4) rotate(-84.6678) scale(50.6306 56.1867)">
<stop stop-color="#A52082"/>
<stop offset="1" stop-color="#A52082" stop-opacity="0"/>
</radialGradient>
<radialGradient id="paint8_radial_153_2888" cx="0" cy="0" r="1" gradientUnits="userSpaceOnUse" gradientTransform="translate(93.2773 55.555) rotate(-164.672) scale(54.3052 71.6147)">
<stop offset="0.741" stop-color="#8C4972" stop-opacity="0"/>
<stop offset="1" stop-color="#8C4972"/>
</radialGradient>
<radialGradient id="paint9_radial_153_2888" cx="0" cy="0" r="1" gradientUnits="userSpaceOnUse" gradientTransform="translate(110.859 0.187501) rotate(107.21) scale(54.4584 76.3205)">
<stop stop-color="#EE4952"/>
<stop offset="1" stop-color="#EE4952" stop-opacity="0"/>
</radialGradient>
<radialGradient id="paint10_radial_153_2888" cx="0" cy="0" r="1" gradientUnits="userSpaceOnUse" gradientTransform="translate(107.925 27.7655) rotate(80.4561) scale(18.015 39.4886)">
<stop offset="0.121" stop-color="#FFFBFC"/>
<stop offset="1" stop-color="#FFFBFC" stop-opacity="0"/>
</radialGradient>
<linearGradient id="paint11_linear_153_2888" x1="62.2218" y1="108.947" x2="43.4015" y2="140.147" gradientUnits="userSpaceOnUse">
<stop stop-color="#5CB2FF" stop-opacity="0"/>
<stop offset="0.298" stop-color="#5CB2FF"/>
<stop offset="0.812" stop-color="#5CB2FF"/>
<stop offset="1" stop-color="#5CB2FF" stop-opacity="0"/>
</linearGradient>
</defs>
</svg>
