<svg width="76" height="76" viewBox="0 0 76 76" fill="none" xmlns="http://www.w3.org/2000/svg">
<path d="M11.5041 53.067C13.701 58.5889 11.1312 62.1466 9.57324 63.2344H16.0309L16.551 58.0379C13.9527 54.0811 9.30724 47.5451 11.5041 53.067Z" fill="url(#paint0_linear_88_366)"/>
<path d="M68.7088 35.8031C67.2817 35.7611 65.9271 35.1647 64.9325 34.1404C63.9379 33.1161 63.3816 31.7446 63.3816 30.3169C63.3816 28.8892 63.9379 27.5176 64.9325 26.4933C65.9271 25.4691 67.2817 24.8726 68.7088 24.8306H68.875V20.0094C68.875 17.9431 66.975 16.3994 64.9562 16.8506L12.0413 28.5119C10.5688 28.8444 9.5 30.1506 9.5 31.6706V53.0694C10.8086 53.1096 12.0501 53.6577 12.9616 54.5975C13.873 55.5374 14.3827 56.7952 14.3827 58.1044C14.3827 59.4136 13.873 60.6714 12.9616 61.6112C12.0501 62.5511 10.8086 63.0992 9.5 63.1394V67.9131C9.5 69.9794 11.4 71.5231 13.4188 71.0719L66.3338 59.4106C67.8063 59.0781 68.875 57.7719 68.875 56.2519V35.7794C68.8037 35.8031 68.7563 35.8031 68.7088 35.8031Z" fill="url(#paint1_linear_88_366)"/>
<path d="M68.7088 35.8031C67.2817 35.7611 65.9271 35.1647 64.9325 34.1404C63.9379 33.1161 63.3816 31.7446 63.3816 30.3169C63.3816 28.8892 63.9379 27.5176 64.9325 26.4933C65.9271 25.4691 67.2817 24.8726 68.7088 24.8306H68.875V20.0094C68.875 17.9431 66.975 16.3994 64.9562 16.8506L12.0413 28.5119C10.5688 28.8444 9.5 30.1506 9.5 31.6706V53.0694C10.8086 53.1096 12.0501 53.6577 12.9616 54.5975C13.873 55.5374 14.3827 56.7952 14.3827 58.1044C14.3827 59.4136 13.873 60.6714 12.9616 61.6112C12.0501 62.5511 10.8086 63.0992 9.5 63.1394V67.9131C9.5 69.9794 11.4 71.5231 13.4188 71.0719L66.3338 59.4106C67.8063 59.0781 68.875 57.7719 68.875 56.2519V35.7794C68.8037 35.8031 68.7563 35.8031 68.7088 35.8031Z" fill="url(#paint2_linear_88_366)"/>
<path d="M68.7088 35.8031C67.2817 35.7611 65.9271 35.1647 64.9325 34.1404C63.9379 33.1161 63.3816 31.7446 63.3816 30.3169C63.3816 28.8892 63.9379 27.5176 64.9325 26.4933C65.9271 25.4691 67.2817 24.8726 68.7088 24.8306H68.875V20.0094C68.875 17.9431 66.975 16.3994 64.9562 16.8506L12.0413 28.5119C10.5688 28.8444 9.5 30.1506 9.5 31.6706V53.0694C10.8086 53.1096 12.0501 53.6577 12.9616 54.5975C13.873 55.5374 14.3827 56.7952 14.3827 58.1044C14.3827 59.4136 13.873 60.6714 12.9616 61.6112C12.0501 62.5511 10.8086 63.0992 9.5 63.1394V67.9131C9.5 69.9794 11.4 71.5231 13.4188 71.0719L66.3338 59.4106C67.8063 59.0781 68.875 57.7719 68.875 56.2519V35.7794C68.8037 35.8031 68.7563 35.8031 68.7088 35.8031Z" fill="url(#paint3_linear_88_366)"/>
<path d="M68.7088 35.8031C67.2817 35.7611 65.9271 35.1647 64.9325 34.1404C63.9379 33.1161 63.3816 31.7446 63.3816 30.3169C63.3816 28.8892 63.9379 27.5176 64.9325 26.4933C65.9271 25.4691 67.2817 24.8726 68.7088 24.8306H68.875V20.0094C68.875 17.9431 66.975 16.3994 64.9562 16.8506L12.0413 28.5119C10.5688 28.8444 9.5 30.1506 9.5 31.6706V53.0694C10.8086 53.1096 12.0501 53.6577 12.9616 54.5975C13.873 55.5374 14.3827 56.7952 14.3827 58.1044C14.3827 59.4136 13.873 60.6714 12.9616 61.6112C12.0501 62.5511 10.8086 63.0992 9.5 63.1394V67.9131C9.5 69.9794 11.4 71.5231 13.4188 71.0719L66.3338 59.4106C67.8063 59.0781 68.875 57.7719 68.875 56.2519V35.7794C68.8037 35.8031 68.7563 35.8031 68.7088 35.8031Z" fill="url(#paint4_radial_88_366)"/>
<path d="M11.21 28.7969L37.3825 6.09188C39.0687 4.64313 41.4437 4.33438 43.4387 5.33188L66.6662 16.9456L11.21 28.7969Z" fill="#FFCF52"/>
<path d="M11.21 28.7969L37.3825 6.09188C39.0687 4.64313 41.4437 4.33438 43.4387 5.33188L66.6662 16.9456L11.21 28.7969Z" fill="url(#paint5_linear_88_366)"/>
<path d="M11.21 28.7969L37.3825 6.09188C39.0687 4.64313 41.4437 4.33438 43.4387 5.33188L66.6662 16.9456L11.21 28.7969Z" fill="url(#paint6_radial_88_366)"/>
<path d="M46.8253 45.0158C50.2239 46.0988 54.7554 43.2583 56.2137 38.6721C57.8524 33.5255 56.4987 29.8823 53.0977 28.7993C49.9912 27.8113 45.4668 30.4475 44.0062 35.0336C42.5455 39.6221 43.4267 43.9328 46.8253 45.0158Z" fill="url(#paint7_radial_88_366)"/>
<path d="M29.8727 50.0555C31.9152 50.7063 34.6441 48.9963 35.5228 46.2365C36.5084 43.1395 35.6914 40.9474 33.6466 40.2943C31.7751 39.7005 29.0533 41.287 28.1746 44.0468C27.2958 46.8089 27.8254 49.4048 29.8727 50.0555Z" fill="url(#paint8_radial_88_366)"/>
<path d="M41.9853 55.1546C43.1538 55.5251 44.7166 54.549 45.2153 52.9696C45.7806 51.1979 45.3151 49.9439 44.1442 49.571C43.0755 49.229 41.5175 50.1363 41.014 51.7156C40.5105 53.295 40.8145 54.7794 41.9853 55.1546Z" fill="url(#paint9_radial_88_366)"/>
<defs>
<linearGradient id="paint0_linear_88_366" x1="13.0621" y1="52.25" x2="13.0621" y2="63.2344" gradientUnits="userSpaceOnUse">
<stop stop-color="#CB8E66"/>
<stop offset="0.419" stop-color="#CE9439"/>
<stop offset="1" stop-color="#E3AB36"/>
</linearGradient>
<linearGradient id="paint1_linear_88_366" x1="39.1875" y1="16.7699" x2="39.1875" y2="71.1503" gradientUnits="userSpaceOnUse">
<stop stop-color="#FFE73E"/>
<stop offset="0.931" stop-color="#FEDA55"/>
</linearGradient>
<linearGradient id="paint2_linear_88_366" x1="9.5" y1="71.1503" x2="54.9219" y2="71.1503" gradientUnits="userSpaceOnUse">
<stop stop-color="#D1AA28"/>
<stop offset="0.02" stop-color="#FBB66B"/>
<stop offset="0.033" stop-color="#F9B26A" stop-opacity="0"/>
</linearGradient>
<linearGradient id="paint3_linear_88_366" x1="32.433" y1="22.5625" x2="41.7121" y2="65.6094" gradientUnits="userSpaceOnUse">
<stop offset="0.043" stop-color="#FFF16D"/>
<stop offset="0.058" stop-color="#FFF26F" stop-opacity="0"/>
</linearGradient>
<radialGradient id="paint4_radial_88_366" cx="0" cy="0" r="1" gradientUnits="userSpaceOnUse" gradientTransform="translate(67.9853 30.1313) rotate(122.381) scale(7.20649 7.86859)">
<stop offset="0.53" stop-color="#F7CF4D"/>
<stop offset="0.975" stop-color="#FECF3A" stop-opacity="0"/>
</radialGradient>
<linearGradient id="paint5_linear_88_366" x1="25.4576" y1="12.654" x2="38.9381" y2="28.7969" gradientUnits="userSpaceOnUse">
<stop offset="0.109" stop-color="#E6BC58"/>
<stop offset="0.209" stop-color="#EDC050" stop-opacity="0"/>
</linearGradient>
<radialGradient id="paint6_radial_88_366" cx="0" cy="0" r="1" gradientUnits="userSpaceOnUse" gradientTransform="translate(8.90621 36.6653) rotate(-16.5688) scale(18.739 21.8213)">
<stop stop-color="#EBBC41"/>
<stop offset="1" stop-color="#F6C945" stop-opacity="0"/>
</radialGradient>
<radialGradient id="paint7_radial_88_366" cx="0" cy="0" r="1" gradientUnits="userSpaceOnUse" gradientTransform="translate(46.0154 41.2656) rotate(-44.5692) scale(13.9602 16.502)">
<stop stop-color="#FFDD6C"/>
<stop offset="0.336" stop-color="#FFC360"/>
<stop offset="1" stop-color="#CD872B"/>
</radialGradient>
<radialGradient id="paint8_radial_88_366" cx="0" cy="0" r="1" gradientUnits="userSpaceOnUse" gradientTransform="translate(29.3834 47.7969) rotate(-44.569) scale(8.40168 9.93139)">
<stop stop-color="#FFDD6C"/>
<stop offset="0.336" stop-color="#FFC360"/>
<stop offset="1" stop-color="#CD872B"/>
</radialGradient>
<radialGradient id="paint9_radial_88_366" cx="0" cy="0" r="1" gradientUnits="userSpaceOnUse" gradientTransform="translate(41.7051 53.8626) rotate(-44.5692) scale(4.80625 5.68133)">
<stop stop-color="#FFDD6C"/>
<stop offset="0.336" stop-color="#FFC360"/>
<stop offset="1" stop-color="#CD872B"/>
</radialGradient>
</defs>
</svg>
