<svg width="76" height="76" viewBox="0 0 76 76" fill="none" xmlns="http://www.w3.org/2000/svg">
<g filter="url(#filter0_ii_139_134)">
<path d="M71.3688 33.9293C71.3688 29.336 68.533 25.4363 64.5122 23.7738C64.3026 23.6893 64.1267 23.5381 64.0117 23.3436C63.8966 23.1492 63.8488 22.9222 63.8757 22.6979C63.922 22.3498 63.9466 21.9992 63.9493 21.6481C63.9493 15.5444 58.9618 10.5973 52.8058 10.5973C50.6065 10.5973 48.5925 11.2456 46.8754 12.3453C46.623 12.5005 46.3202 12.5516 46.0308 12.4878C45.7415 12.424 45.4882 12.2503 45.3245 12.0033C44.528 10.7845 43.4398 9.78394 42.1587 9.09217C40.8776 8.4004 39.4441 8.03935 37.9882 8.04176C34.9315 8.04176 32.2407 9.60926 30.6945 11.9748C30.5319 12.2229 30.2794 12.3982 29.9901 12.4637C29.7008 12.5293 29.3973 12.48 29.1437 12.3263C27.3766 11.1876 25.3202 10.5794 23.218 10.5735C17.062 10.5735 12.0745 15.5183 12.0745 21.6244C12.0745 21.9806 12.103 22.3298 12.1458 22.6718C12.1727 22.8964 12.1252 23.1237 12.0107 23.3189C11.8962 23.514 11.7209 23.6663 11.5117 23.7524C7.46941 25.4339 4.62891 29.3336 4.62891 33.9293C4.62891 38.5201 7.46703 42.4199 11.4879 44.0824C11.9154 44.2605 12.1838 44.6999 12.1244 45.1583C12.078 45.5063 12.0534 45.8569 12.0508 46.208C12.0508 52.3118 17.0383 57.2589 23.1943 57.2589C25.3912 57.2589 27.4052 56.6129 29.1223 55.5133C29.3755 55.3587 29.6787 55.3082 29.9683 55.3724C30.2579 55.4366 30.5114 55.6105 30.6755 55.8576C31.4682 57.067 32.5496 58.0599 33.8222 58.7466C35.0948 59.4333 36.5184 59.7921 37.9644 59.7906C41.021 59.7906 43.7119 58.2231 45.258 55.8576C45.4206 55.6095 45.6732 55.4342 45.9625 55.3686C46.2518 55.3031 46.5552 55.3524 46.8089 55.5061C48.576 56.6448 50.6324 57.253 52.7345 57.2589C58.8905 57.2589 63.878 52.3141 63.878 46.208C63.878 45.8518 63.8495 45.505 63.8068 45.163C63.7804 44.9375 63.8289 44.7096 63.9448 44.5143C64.0606 44.3191 64.2375 44.1673 64.448 44.0824C68.5093 42.4199 71.3712 38.5201 71.3712 33.9293H71.3688Z" fill="url(#paint0_radial_139_134)"/>
<path d="M71.3688 33.9293C71.3688 29.336 68.533 25.4363 64.5122 23.7738C64.3026 23.6893 64.1267 23.5381 64.0117 23.3436C63.8966 23.1492 63.8488 22.9222 63.8757 22.6979C63.922 22.3498 63.9466 21.9992 63.9493 21.6481C63.9493 15.5444 58.9618 10.5973 52.8058 10.5973C50.6065 10.5973 48.5925 11.2456 46.8754 12.3453C46.623 12.5005 46.3202 12.5516 46.0308 12.4878C45.7415 12.424 45.4882 12.2503 45.3245 12.0033C44.528 10.7845 43.4398 9.78394 42.1587 9.09217C40.8776 8.4004 39.4441 8.03935 37.9882 8.04176C34.9315 8.04176 32.2407 9.60926 30.6945 11.9748C30.5319 12.2229 30.2794 12.3982 29.9901 12.4637C29.7008 12.5293 29.3973 12.48 29.1437 12.3263C27.3766 11.1876 25.3202 10.5794 23.218 10.5735C17.062 10.5735 12.0745 15.5183 12.0745 21.6244C12.0745 21.9806 12.103 22.3298 12.1458 22.6718C12.1727 22.8964 12.1252 23.1237 12.0107 23.3189C11.8962 23.514 11.7209 23.6663 11.5117 23.7524C7.46941 25.4339 4.62891 29.3336 4.62891 33.9293C4.62891 38.5201 7.46703 42.4199 11.4879 44.0824C11.9154 44.2605 12.1838 44.6999 12.1244 45.1583C12.078 45.5063 12.0534 45.8569 12.0508 46.208C12.0508 52.3118 17.0383 57.2589 23.1943 57.2589C25.3912 57.2589 27.4052 56.6129 29.1223 55.5133C29.3755 55.3587 29.6787 55.3082 29.9683 55.3724C30.2579 55.4366 30.5114 55.6105 30.6755 55.8576C31.4682 57.067 32.5496 58.0599 33.8222 58.7466C35.0948 59.4333 36.5184 59.7921 37.9644 59.7906C41.021 59.7906 43.7119 58.2231 45.258 55.8576C45.4206 55.6095 45.6732 55.4342 45.9625 55.3686C46.2518 55.3031 46.5552 55.3524 46.8089 55.5061C48.576 56.6448 50.6324 57.253 52.7345 57.2589C58.8905 57.2589 63.878 52.3141 63.878 46.208C63.878 45.8518 63.8495 45.505 63.8068 45.163C63.7804 44.9375 63.8289 44.7096 63.9448 44.5143C64.0606 44.3191 64.2375 44.1673 64.448 44.0824C68.5093 42.4199 71.3712 38.5201 71.3712 33.9293H71.3688Z" fill="url(#paint1_radial_139_134)"/>
<path d="M71.3688 33.9293C71.3688 29.336 68.533 25.4363 64.5122 23.7738C64.3026 23.6893 64.1267 23.5381 64.0117 23.3436C63.8966 23.1492 63.8488 22.9222 63.8757 22.6979C63.922 22.3498 63.9466 21.9992 63.9493 21.6481C63.9493 15.5444 58.9618 10.5973 52.8058 10.5973C50.6065 10.5973 48.5925 11.2456 46.8754 12.3453C46.623 12.5005 46.3202 12.5516 46.0308 12.4878C45.7415 12.424 45.4882 12.2503 45.3245 12.0033C44.528 10.7845 43.4398 9.78394 42.1587 9.09217C40.8776 8.4004 39.4441 8.03935 37.9882 8.04176C34.9315 8.04176 32.2407 9.60926 30.6945 11.9748C30.5319 12.2229 30.2794 12.3982 29.9901 12.4637C29.7008 12.5293 29.3973 12.48 29.1437 12.3263C27.3766 11.1876 25.3202 10.5794 23.218 10.5735C17.062 10.5735 12.0745 15.5183 12.0745 21.6244C12.0745 21.9806 12.103 22.3298 12.1458 22.6718C12.1727 22.8964 12.1252 23.1237 12.0107 23.3189C11.8962 23.514 11.7209 23.6663 11.5117 23.7524C7.46941 25.4339 4.62891 29.3336 4.62891 33.9293C4.62891 38.5201 7.46703 42.4199 11.4879 44.0824C11.9154 44.2605 12.1838 44.6999 12.1244 45.1583C12.078 45.5063 12.0534 45.8569 12.0508 46.208C12.0508 52.3118 17.0383 57.2589 23.1943 57.2589C25.3912 57.2589 27.4052 56.6129 29.1223 55.5133C29.3755 55.3587 29.6787 55.3082 29.9683 55.3724C30.2579 55.4366 30.5114 55.6105 30.6755 55.8576C31.4682 57.067 32.5496 58.0599 33.8222 58.7466C35.0948 59.4333 36.5184 59.7921 37.9644 59.7906C41.021 59.7906 43.7119 58.2231 45.258 55.8576C45.4206 55.6095 45.6732 55.4342 45.9625 55.3686C46.2518 55.3031 46.5552 55.3524 46.8089 55.5061C48.576 56.6448 50.6324 57.253 52.7345 57.2589C58.8905 57.2589 63.878 52.3141 63.878 46.208C63.878 45.8518 63.8495 45.505 63.8068 45.163C63.7804 44.9375 63.8289 44.7096 63.9448 44.5143C64.0606 44.3191 64.2375 44.1673 64.448 44.0824C68.5093 42.4199 71.3712 38.5201 71.3712 33.9293H71.3688Z" fill="url(#paint2_radial_139_134)"/>
<path d="M71.3688 33.9293C71.3688 29.336 68.533 25.4363 64.5122 23.7738C64.3026 23.6893 64.1267 23.5381 64.0117 23.3436C63.8966 23.1492 63.8488 22.9222 63.8757 22.6979C63.922 22.3498 63.9466 21.9992 63.9493 21.6481C63.9493 15.5444 58.9618 10.5973 52.8058 10.5973C50.6065 10.5973 48.5925 11.2456 46.8754 12.3453C46.623 12.5005 46.3202 12.5516 46.0308 12.4878C45.7415 12.424 45.4882 12.2503 45.3245 12.0033C44.528 10.7845 43.4398 9.78394 42.1587 9.09217C40.8776 8.4004 39.4441 8.03935 37.9882 8.04176C34.9315 8.04176 32.2407 9.60926 30.6945 11.9748C30.5319 12.2229 30.2794 12.3982 29.9901 12.4637C29.7008 12.5293 29.3973 12.48 29.1437 12.3263C27.3766 11.1876 25.3202 10.5794 23.218 10.5735C17.062 10.5735 12.0745 15.5183 12.0745 21.6244C12.0745 21.9806 12.103 22.3298 12.1458 22.6718C12.1727 22.8964 12.1252 23.1237 12.0107 23.3189C11.8962 23.514 11.7209 23.6663 11.5117 23.7524C7.46941 25.4339 4.62891 29.3336 4.62891 33.9293C4.62891 38.5201 7.46703 42.4199 11.4879 44.0824C11.9154 44.2605 12.1838 44.6999 12.1244 45.1583C12.078 45.5063 12.0534 45.8569 12.0508 46.208C12.0508 52.3118 17.0383 57.2589 23.1943 57.2589C25.3912 57.2589 27.4052 56.6129 29.1223 55.5133C29.3755 55.3587 29.6787 55.3082 29.9683 55.3724C30.2579 55.4366 30.5114 55.6105 30.6755 55.8576C31.4682 57.067 32.5496 58.0599 33.8222 58.7466C35.0948 59.4333 36.5184 59.7921 37.9644 59.7906C41.021 59.7906 43.7119 58.2231 45.258 55.8576C45.4206 55.6095 45.6732 55.4342 45.9625 55.3686C46.2518 55.3031 46.5552 55.3524 46.8089 55.5061C48.576 56.6448 50.6324 57.253 52.7345 57.2589C58.8905 57.2589 63.878 52.3141 63.878 46.208C63.878 45.8518 63.8495 45.505 63.8068 45.163C63.7804 44.9375 63.8289 44.7096 63.9448 44.5143C64.0606 44.3191 64.2375 44.1673 64.448 44.0824C68.5093 42.4199 71.3712 38.5201 71.3712 33.9293H71.3688Z" fill="url(#paint3_linear_139_134)"/>
<path d="M71.3688 33.9293C71.3688 29.336 68.533 25.4363 64.5122 23.7738C64.3026 23.6893 64.1267 23.5381 64.0117 23.3436C63.8966 23.1492 63.8488 22.9222 63.8757 22.6979C63.922 22.3498 63.9466 21.9992 63.9493 21.6481C63.9493 15.5444 58.9618 10.5973 52.8058 10.5973C50.6065 10.5973 48.5925 11.2456 46.8754 12.3453C46.623 12.5005 46.3202 12.5516 46.0308 12.4878C45.7415 12.424 45.4882 12.2503 45.3245 12.0033C44.528 10.7845 43.4398 9.78394 42.1587 9.09217C40.8776 8.4004 39.4441 8.03935 37.9882 8.04176C34.9315 8.04176 32.2407 9.60926 30.6945 11.9748C30.5319 12.2229 30.2794 12.3982 29.9901 12.4637C29.7008 12.5293 29.3973 12.48 29.1437 12.3263C27.3766 11.1876 25.3202 10.5794 23.218 10.5735C17.062 10.5735 12.0745 15.5183 12.0745 21.6244C12.0745 21.9806 12.103 22.3298 12.1458 22.6718C12.1727 22.8964 12.1252 23.1237 12.0107 23.3189C11.8962 23.514 11.7209 23.6663 11.5117 23.7524C7.46941 25.4339 4.62891 29.3336 4.62891 33.9293C4.62891 38.5201 7.46703 42.4199 11.4879 44.0824C11.9154 44.2605 12.1838 44.6999 12.1244 45.1583C12.078 45.5063 12.0534 45.8569 12.0508 46.208C12.0508 52.3118 17.0383 57.2589 23.1943 57.2589C25.3912 57.2589 27.4052 56.6129 29.1223 55.5133C29.3755 55.3587 29.6787 55.3082 29.9683 55.3724C30.2579 55.4366 30.5114 55.6105 30.6755 55.8576C31.4682 57.067 32.5496 58.0599 33.8222 58.7466C35.0948 59.4333 36.5184 59.7921 37.9644 59.7906C41.021 59.7906 43.7119 58.2231 45.258 55.8576C45.4206 55.6095 45.6732 55.4342 45.9625 55.3686C46.2518 55.3031 46.5552 55.3524 46.8089 55.5061C48.576 56.6448 50.6324 57.253 52.7345 57.2589C58.8905 57.2589 63.878 52.3141 63.878 46.208C63.878 45.8518 63.8495 45.505 63.8068 45.163C63.7804 44.9375 63.8289 44.7096 63.9448 44.5143C64.0606 44.3191 64.2375 44.1673 64.448 44.0824C68.5093 42.4199 71.3712 38.5201 71.3712 33.9293H71.3688Z" fill="url(#paint4_radial_139_134)"/>
</g>
<g filter="url(#filter1_i_139_134)">
<path d="M11.1626 69.5875C12.8601 69.5875 14.4882 68.9132 15.6885 67.7128C16.8889 66.5125 17.5632 64.8844 17.5632 63.1869C17.5632 61.4893 16.8889 59.8613 15.6885 58.661C14.4882 57.4606 12.8601 56.7863 11.1626 56.7863C9.46504 56.7863 7.83701 57.4606 6.63666 58.661C5.43631 59.8613 4.76196 61.4893 4.76196 63.1869C4.76196 64.8844 5.43631 66.5125 6.63666 67.7128C7.83701 68.9132 9.46504 69.5875 11.1626 69.5875Z" fill="url(#paint5_radial_139_134)"/>
<path d="M11.1626 69.5875C12.8601 69.5875 14.4882 68.9132 15.6885 67.7128C16.8889 66.5125 17.5632 64.8844 17.5632 63.1869C17.5632 61.4893 16.8889 59.8613 15.6885 58.661C14.4882 57.4606 12.8601 56.7863 11.1626 56.7863C9.46504 56.7863 7.83701 57.4606 6.63666 58.661C5.43631 59.8613 4.76196 61.4893 4.76196 63.1869C4.76196 64.8844 5.43631 66.5125 6.63666 67.7128C7.83701 68.9132 9.46504 69.5875 11.1626 69.5875Z" fill="url(#paint6_radial_139_134)"/>
<path d="M11.1626 69.5875C12.8601 69.5875 14.4882 68.9132 15.6885 67.7128C16.8889 66.5125 17.5632 64.8844 17.5632 63.1869C17.5632 61.4893 16.8889 59.8613 15.6885 58.661C14.4882 57.4606 12.8601 56.7863 11.1626 56.7863C9.46504 56.7863 7.83701 57.4606 6.63666 58.661C5.43631 59.8613 4.76196 61.4893 4.76196 63.1869C4.76196 64.8844 5.43631 66.5125 6.63666 67.7128C7.83701 68.9132 9.46504 69.5875 11.1626 69.5875Z" fill="url(#paint7_radial_139_134)"/>
<path d="M11.1626 69.5875C12.8601 69.5875 14.4882 68.9132 15.6885 67.7128C16.8889 66.5125 17.5632 64.8844 17.5632 63.1869C17.5632 61.4893 16.8889 59.8613 15.6885 58.661C14.4882 57.4606 12.8601 56.7863 11.1626 56.7863C9.46504 56.7863 7.83701 57.4606 6.63666 58.661C5.43631 59.8613 4.76196 61.4893 4.76196 63.1869C4.76196 64.8844 5.43631 66.5125 6.63666 67.7128C7.83701 68.9132 9.46504 69.5875 11.1626 69.5875Z" fill="url(#paint8_linear_139_134)"/>
<path d="M11.1626 69.5875C12.8601 69.5875 14.4882 68.9132 15.6885 67.7128C16.8889 66.5125 17.5632 64.8844 17.5632 63.1869C17.5632 61.4893 16.8889 59.8613 15.6885 58.661C14.4882 57.4606 12.8601 56.7863 11.1626 56.7863C9.46504 56.7863 7.83701 57.4606 6.63666 58.661C5.43631 59.8613 4.76196 61.4893 4.76196 63.1869C4.76196 64.8844 5.43631 66.5125 6.63666 67.7128C7.83701 68.9132 9.46504 69.5875 11.1626 69.5875Z" fill="url(#paint9_radial_139_134)"/>
</g>
<g filter="url(#filter2_f_139_134)">
<path d="M20.3396 29.4714L13.6492 20.4559L13.0626 23.8688L10.2529 25.0729L20.3396 29.4714Z" fill="url(#paint10_linear_139_134)" fill-opacity="0.6"/>
</g>
<g filter="url(#filter3_f_139_134)">
<path d="M57.513 15.0527C62.2535 16.8791 62.3675 21.8595 61.8355 24.1252L54.5514 27.3315L57.513 15.0527Z" fill="url(#paint11_linear_139_134)"/>
</g>
<g filter="url(#filter4_f_139_134)">
<path d="M60.6647 42.3914C63.8709 46.5239 60.9805 51.8011 59.0568 52.9411L49.4927 38.1924L60.6647 42.3914Z" fill="url(#paint12_linear_139_134)"/>
</g>
<g filter="url(#filter5_f_139_134)">
<path d="M29.4975 14.6823C32.0625 17.3471 31.8487 21.7978 31.4379 23.4461L20.824 13.1979C22.648 12.4569 26.9301 12.0152 29.4975 14.6823Z" fill="#FAFAFC" fill-opacity="0.25"/>
</g>
<g filter="url(#filter6_f_139_134)">
<path d="M43.8141 22.8879L45.7877 13.9721C50.2005 11.6565 52.5778 11.9344 53.5326 11.9344L43.8141 22.8879Z" fill="#E6E4EC" fill-opacity="0.5"/>
</g>
<defs>
<filter id="filter0_ii_139_134" x="4.62891" y="7.74175" width="66.8423" height="52.1489" filterUnits="userSpaceOnUse" color-interpolation-filters="sRGB">
<feFlood flood-opacity="0" result="BackgroundImageFix"/>
<feBlend mode="normal" in="SourceGraphic" in2="BackgroundImageFix" result="shape"/>
<feColorMatrix in="SourceAlpha" type="matrix" values="0 0 0 0 0 0 0 0 0 0 0 0 0 0 0 0 0 0 127 0" result="hardAlpha"/>
<feOffset dx="0.1" dy="0.1"/>
<feGaussianBlur stdDeviation="0.5"/>
<feComposite in2="hardAlpha" operator="arithmetic" k2="-1" k3="1"/>
<feColorMatrix type="matrix" values="0 0 0 0 0.716667 0 0 0 0 0.716667 0 0 0 0 0.716667 0 0 0 1 0"/>
<feBlend mode="normal" in2="shape" result="effect1_innerShadow_139_134"/>
<feColorMatrix in="SourceAlpha" type="matrix" values="0 0 0 0 0 0 0 0 0 0 0 0 0 0 0 0 0 0 127 0" result="hardAlpha"/>
<feOffset dy="-0.3"/>
<feGaussianBlur stdDeviation="0.25"/>
<feComposite in2="hardAlpha" operator="arithmetic" k2="-1" k3="1"/>
<feColorMatrix type="matrix" values="0 0 0 0 0.764633 0 0 0 0 0.670625 0 0 0 0 0.925 0 0 0 1 0"/>
<feBlend mode="normal" in2="effect1_innerShadow_139_134" result="effect2_innerShadow_139_134"/>
</filter>
<filter id="filter1_i_139_134" x="4.76196" y="56.7863" width="12.9013" height="12.9013" filterUnits="userSpaceOnUse" color-interpolation-filters="sRGB">
<feFlood flood-opacity="0" result="BackgroundImageFix"/>
<feBlend mode="normal" in="SourceGraphic" in2="BackgroundImageFix" result="shape"/>
<feColorMatrix in="SourceAlpha" type="matrix" values="0 0 0 0 0 0 0 0 0 0 0 0 0 0 0 0 0 0 127 0" result="hardAlpha"/>
<feOffset dx="0.1" dy="0.1"/>
<feGaussianBlur stdDeviation="0.5"/>
<feComposite in2="hardAlpha" operator="arithmetic" k2="-1" k3="1"/>
<feColorMatrix type="matrix" values="0 0 0 0 0.758333 0 0 0 0 0.758333 0 0 0 0 0.758333 0 0 0 1 0"/>
<feBlend mode="normal" in2="shape" result="effect1_innerShadow_139_134"/>
</filter>
<filter id="filter2_f_139_134" x="9.65293" y="19.8559" width="11.2867" height="10.2155" filterUnits="userSpaceOnUse" color-interpolation-filters="sRGB">
<feFlood flood-opacity="0" result="BackgroundImageFix"/>
<feBlend mode="normal" in="SourceGraphic" in2="BackgroundImageFix" result="shape"/>
<feGaussianBlur stdDeviation="0.3" result="effect1_foregroundBlur_139_134"/>
</filter>
<filter id="filter3_f_139_134" x="53.5514" y="14.0527" width="9.50049" height="14.2788" filterUnits="userSpaceOnUse" color-interpolation-filters="sRGB">
<feFlood flood-opacity="0" result="BackgroundImageFix"/>
<feBlend mode="normal" in="SourceGraphic" in2="BackgroundImageFix" result="shape"/>
<feGaussianBlur stdDeviation="0.5" result="effect1_foregroundBlur_139_134"/>
</filter>
<filter id="filter4_f_139_134" x="47.4927" y="36.1924" width="16.6088" height="18.7488" filterUnits="userSpaceOnUse" color-interpolation-filters="sRGB">
<feFlood flood-opacity="0" result="BackgroundImageFix"/>
<feBlend mode="normal" in="SourceGraphic" in2="BackgroundImageFix" result="shape"/>
<feGaussianBlur stdDeviation="1" result="effect1_foregroundBlur_139_134"/>
</filter>
<filter id="filter5_f_139_134" x="19.824" y="11.6307" width="12.8635" height="12.8153" filterUnits="userSpaceOnUse" color-interpolation-filters="sRGB">
<feFlood flood-opacity="0" result="BackgroundImageFix"/>
<feBlend mode="normal" in="SourceGraphic" in2="BackgroundImageFix" result="shape"/>
<feGaussianBlur stdDeviation="0.5" result="effect1_foregroundBlur_139_134"/>
</filter>
<filter id="filter6_f_139_134" x="42.8141" y="10.924" width="11.7185" height="12.9639" filterUnits="userSpaceOnUse" color-interpolation-filters="sRGB">
<feFlood flood-opacity="0" result="BackgroundImageFix"/>
<feBlend mode="normal" in="SourceGraphic" in2="BackgroundImageFix" result="shape"/>
<feGaussianBlur stdDeviation="0.5" result="effect1_foregroundBlur_139_134"/>
</filter>
<radialGradient id="paint0_radial_139_134" cx="0" cy="0" r="1" gradientUnits="userSpaceOnUse" gradientTransform="translate(48.8951 17.0888) rotate(102.766) scale(37.3744 70.2798)">
<stop stop-color="white"/>
<stop offset="1" stop-color="#E4DBF7"/>
</radialGradient>
<radialGradient id="paint1_radial_139_134" cx="0" cy="0" r="1" gradientUnits="userSpaceOnUse" gradientTransform="translate(49.6187 56.6266) rotate(-165.279) scale(57.3774 105.919)">
<stop offset="0.523" stop-color="#CECECE" stop-opacity="0"/>
<stop offset="1" stop-color="#CECECE"/>
</radialGradient>
<radialGradient id="paint2_radial_139_134" cx="0" cy="0" r="1" gradientUnits="userSpaceOnUse" gradientTransform="translate(50.4661 56.745) rotate(-131.228) scale(57.4332 47.0226)">
<stop offset="0.753" stop-color="#CECECE" stop-opacity="0"/>
<stop offset="1" stop-color="#CECECE"/>
</radialGradient>
<linearGradient id="paint3_linear_139_134" x1="20.6412" y1="32.5138" x2="3.44616" y2="58.0973" gradientUnits="userSpaceOnUse">
<stop offset="0.439" stop-color="#B6A8F2" stop-opacity="0"/>
<stop offset="0.966" stop-color="#B6A8F2"/>
</linearGradient>
<radialGradient id="paint4_radial_139_134" cx="0" cy="0" r="1" gradientUnits="userSpaceOnUse" gradientTransform="translate(44.5479 25.365) rotate(117.537) scale(70.5149 162.9)">
<stop offset="0.278" stop-color="#B6A8F2" stop-opacity="0"/>
<stop offset="1" stop-color="#B6A8F2"/>
</radialGradient>
<radialGradient id="paint5_radial_139_134" cx="0" cy="0" r="1" gradientUnits="userSpaceOnUse" gradientTransform="translate(17.5606 59.5672) rotate(124.829) scale(10.3232 15.3504)">
<stop stop-color="white"/>
<stop offset="1" stop-color="#E0D8F0"/>
</radialGradient>
<radialGradient id="paint6_radial_139_134" cx="0" cy="0" r="1" gradientUnits="userSpaceOnUse" gradientTransform="translate(13.3885 68.8017) rotate(-161.281) scale(11.2397 25.6607)">
<stop offset="0.523" stop-color="#CECECE" stop-opacity="0"/>
<stop offset="1" stop-color="#CECECE"/>
</radialGradient>
<radialGradient id="paint7_radial_139_134" cx="0" cy="0" r="1" gradientUnits="userSpaceOnUse" gradientTransform="translate(12.8895 69.3969) rotate(-128.192) scale(16.0441 17.6446)">
<stop offset="0.619" stop-color="#CECECE" stop-opacity="0"/>
<stop offset="1" stop-color="#CECECE"/>
</radialGradient>
<linearGradient id="paint8_linear_139_134" x1="7.83046" y1="62.8401" x2="3.28234" y2="68.0865" gradientUnits="userSpaceOnUse">
<stop offset="0.439" stop-color="#B6A8F2" stop-opacity="0"/>
<stop offset="0.966" stop-color="#B6A8F2"/>
</linearGradient>
<radialGradient id="paint9_radial_139_134" cx="0" cy="0" r="1" gradientUnits="userSpaceOnUse" gradientTransform="translate(12.4166 61.0708) rotate(112.012) scale(16.6854 32.6722)">
<stop offset="0.278" stop-color="#B6A8F2" stop-opacity="0"/>
<stop offset="1" stop-color="#B6A8F2"/>
</radialGradient>
<linearGradient id="paint10_linear_139_134" x1="20.8241" y1="29.8063" x2="19.9406" y2="22.6671" gradientUnits="userSpaceOnUse">
<stop offset="0.516" stop-color="#CEC7D4" stop-opacity="0"/>
<stop offset="1" stop-color="#CEC7D5"/>
</linearGradient>
<linearGradient id="paint11_linear_139_134" x1="61.5244" y1="25.6049" x2="51.5898" y2="20.8525" gradientUnits="userSpaceOnUse">
<stop stop-color="white"/>
<stop offset="1" stop-color="white" stop-opacity="0"/>
</linearGradient>
<linearGradient id="paint12_linear_139_134" x1="61.4009" y1="53.0409" x2="54.2427" y2="40.1138" gradientUnits="userSpaceOnUse">
<stop stop-color="white" stop-opacity="0.6"/>
<stop offset="1" stop-color="white" stop-opacity="0"/>
</linearGradient>
</defs>
</svg>
