<svg width="96" height="96" viewBox="0 0 96 96" fill="none" xmlns="http://www.w3.org/2000/svg">
<g filter="url(#filter0_i_81_1520)">
<path d="M47.928 76.941C67.5004 76.941 83.367 61.0744 83.367 41.502C83.367 21.9296 67.5004 6.06299 47.928 6.06299C28.3556 6.06299 12.489 21.9296 12.489 41.502C12.489 61.0744 28.3556 76.941 47.928 76.941Z" fill="url(#paint0_radial_81_1520)"/>
<path d="M47.928 76.941C67.5004 76.941 83.367 61.0744 83.367 41.502C83.367 21.9296 67.5004 6.06299 47.928 6.06299C28.3556 6.06299 12.489 21.9296 12.489 41.502C12.489 61.0744 28.3556 76.941 47.928 76.941Z" fill="url(#paint1_radial_81_1520)"/>
<path d="M47.928 76.941C67.5004 76.941 83.367 61.0744 83.367 41.502C83.367 21.9296 67.5004 6.06299 47.928 6.06299C28.3556 6.06299 12.489 21.9296 12.489 41.502C12.489 61.0744 28.3556 76.941 47.928 76.941Z" fill="url(#paint2_radial_81_1520)"/>
<path d="M47.928 76.941C67.5004 76.941 83.367 61.0744 83.367 41.502C83.367 21.9296 67.5004 6.06299 47.928 6.06299C28.3556 6.06299 12.489 21.9296 12.489 41.502C12.489 61.0744 28.3556 76.941 47.928 76.941Z" fill="url(#paint3_linear_81_1520)"/>
</g>
<g filter="url(#filter1_f_81_1520)">
<path fill-rule="evenodd" clip-rule="evenodd" d="M29.7301 50.586C29.4901 49.386 28.5391 48.447 27.3541 48.138C25.8395 47.7232 24.3695 47.1605 22.9651 46.458C22.6651 46.3179 22.4114 46.0952 22.2336 45.8159C22.0559 45.5367 21.9614 45.2125 21.9614 44.8815C21.9614 44.5505 22.0559 44.2263 22.2336 43.9471C22.4114 43.6678 22.6651 43.4451 22.9651 43.305C24.3696 42.6037 25.8397 42.042 27.3541 41.628C28.5391 41.319 29.4931 40.38 29.7301 39.18C30.0931 37.365 30.6871 35.13 31.5841 32.94C31.6915 32.6385 31.8896 32.3776 32.1512 32.1932C32.4127 32.0087 32.725 31.9097 33.0451 31.9097C33.3651 31.9097 33.6774 32.0087 33.9389 32.1932C34.2005 32.3776 34.3986 32.6385 34.5061 32.94C35.4061 35.13 35.9971 37.365 36.3601 39.18C36.6001 40.38 37.5541 41.319 38.7361 41.631C40.0621 41.979 41.4901 42.519 43.1011 43.302C43.4025 43.4419 43.6576 43.6651 43.8364 43.9452C44.0152 44.2253 44.1102 44.5507 44.1102 44.883C44.1102 45.2153 44.0152 45.5407 43.8364 45.8208C43.6576 46.1009 43.4025 46.3241 43.1011 46.464C41.7042 47.1624 40.2422 47.7221 38.7361 48.135C38.1511 48.2819 37.6189 48.5892 37.1991 49.0222C36.7793 49.4552 36.4887 49.9968 36.3601 50.586C36.0001 52.401 35.4061 54.636 34.5061 56.826C34.3986 57.1275 34.2005 57.3884 33.9389 57.5729C33.6774 57.7573 33.3651 57.8564 33.0451 57.8564C32.725 57.8564 32.4127 57.7573 32.1512 57.5729C31.8896 57.3884 31.6915 57.1275 31.5841 56.826C30.6841 54.636 30.0931 52.401 29.7301 50.586Z" fill="#453852"/>
</g>
<g filter="url(#filter2_ii_81_1520)">
<path fill-rule="evenodd" clip-rule="evenodd" d="M29.7301 50.586C29.4901 49.386 28.5391 48.447 27.3541 48.138C25.8395 47.7232 24.3695 47.1605 22.9651 46.458C22.6651 46.3179 22.4114 46.0952 22.2336 45.8159C22.0559 45.5367 21.9614 45.2125 21.9614 44.8815C21.9614 44.5505 22.0559 44.2263 22.2336 43.9471C22.4114 43.6678 22.6651 43.4451 22.9651 43.305C24.3696 42.6037 25.8397 42.042 27.3541 41.628C28.5391 41.319 29.4931 40.38 29.7301 39.18C30.0931 37.365 30.6871 35.13 31.5841 32.94C31.6915 32.6385 31.8896 32.3776 32.1512 32.1932C32.4127 32.0087 32.725 31.9097 33.0451 31.9097C33.3651 31.9097 33.6774 32.0087 33.9389 32.1932C34.2005 32.3776 34.3986 32.6385 34.5061 32.94C35.4061 35.13 35.9971 37.365 36.3601 39.18C36.6001 40.38 37.5541 41.319 38.7361 41.631C40.0621 41.979 41.4901 42.519 43.1011 43.302C43.4025 43.4419 43.6576 43.6651 43.8364 43.9452C44.0152 44.2253 44.1102 44.5507 44.1102 44.883C44.1102 45.2153 44.0152 45.5407 43.8364 45.8208C43.6576 46.1009 43.4025 46.3241 43.1011 46.464C41.7042 47.1624 40.2422 47.7221 38.7361 48.135C38.1511 48.2819 37.6189 48.5892 37.1991 49.0222C36.7793 49.4552 36.4887 49.9968 36.3601 50.586C36.0001 52.401 35.4061 54.636 34.5061 56.826C34.3986 57.1275 34.2005 57.3884 33.9389 57.5729C33.6774 57.7573 33.3651 57.8564 33.0451 57.8564C32.725 57.8564 32.4127 57.7573 32.1512 57.5729C31.8896 57.3884 31.6915 57.1275 31.5841 56.826C30.6841 54.636 30.0931 52.401 29.7301 50.586Z" fill="url(#paint4_linear_81_1520)"/>
</g>
<g filter="url(#filter3_ii_81_1520)">
<path fill-rule="evenodd" clip-rule="evenodd" d="M42.2371 21.729C42.1859 21.4922 42.0694 21.2745 41.9008 21.1006C41.7321 20.9267 41.5181 20.8035 41.283 20.745C40.6765 20.579 40.0877 20.354 39.5251 20.073C39.4056 20.0163 39.3046 19.9269 39.2339 19.8151C39.1633 19.7033 39.1257 19.5738 39.1257 19.4415C39.1257 19.3092 39.1633 19.1797 39.2339 19.0679C39.3046 18.9561 39.4056 18.8667 39.5251 18.81C40.1731 18.495 40.749 18.276 41.283 18.138C41.5181 18.0795 41.7321 17.9564 41.9008 17.7824C42.0694 17.6085 42.1859 17.3908 42.2371 17.154C42.3811 16.428 42.6181 15.531 42.9781 14.652C43.0204 14.5302 43.0997 14.4247 43.2048 14.35C43.3099 14.2752 43.4356 14.2351 43.5645 14.2351C43.6935 14.2351 43.8192 14.2752 43.9243 14.35C44.0294 14.4247 44.1087 14.5302 44.1511 14.652C44.5111 15.531 44.7511 16.428 44.8951 17.154C44.9911 17.634 45.375 18.012 45.846 18.138C46.4505 18.3033 47.0373 18.5274 47.5981 18.807C47.7192 18.863 47.8218 18.9525 47.8937 19.0649C47.9656 19.1774 48.0038 19.308 48.0038 19.4415C48.0038 19.575 47.9656 19.7056 47.8937 19.8181C47.8218 19.9305 47.7192 20.02 47.5981 20.076C47.0374 20.3559 46.4506 20.5799 45.846 20.745C45.6117 20.8043 45.3985 20.9278 45.2305 21.1016C45.0625 21.2755 44.9463 21.4927 44.8951 21.729C44.7259 22.5845 44.4769 23.4221 44.1511 24.231C44.108 24.3517 44.0287 24.4562 43.924 24.5301C43.8193 24.604 43.6942 24.6436 43.5661 24.6436C43.4379 24.6436 43.3128 24.604 43.2081 24.5301C43.1034 24.4562 43.0241 24.3517 42.981 24.231C42.621 23.352 42.3811 22.455 42.2371 21.729Z" fill="url(#paint5_linear_81_1520)"/>
</g>
<g filter="url(#filter4_ii_81_1520)">
<path fill-rule="evenodd" clip-rule="evenodd" d="M65.508 34.659C65.4348 34.3211 65.2684 34.0105 65.0277 33.7624C64.7869 33.5142 64.4815 33.3385 64.146 33.255C63.2796 33.0182 62.4385 32.6966 61.635 32.295C61.4639 32.2146 61.3191 32.0871 61.2177 31.9275C61.1163 31.7678 61.0625 31.5826 61.0625 31.3935C61.0625 31.2044 61.1163 31.0192 61.2177 30.8595C61.3191 30.6999 61.4639 30.5724 61.635 30.492C62.562 30.042 63.384 29.733 64.146 29.532C64.4811 29.4487 64.7863 29.2734 65.027 29.0259C65.2677 28.7783 65.4343 28.4683 65.508 28.131C65.7483 26.9104 66.1028 25.7151 66.567 24.561C66.6283 24.388 66.7417 24.2383 66.8916 24.1324C67.0415 24.0265 67.2205 23.9696 67.404 23.9696C67.5876 23.9696 67.7666 24.0265 67.9165 24.1324C68.0664 24.2383 68.1797 24.388 68.241 24.561C68.751 25.812 69.093 27.093 69.3 28.131C69.435 28.821 69.981 29.355 70.659 29.532C71.418 29.733 72.237 30.042 73.158 30.492C73.3291 30.5729 73.4736 30.7008 73.5748 30.8606C73.676 31.0205 73.7297 31.2058 73.7297 31.395C73.7297 31.5842 73.676 31.7695 73.5748 31.9294C73.4736 32.0892 73.3291 32.2171 73.158 32.298C72.237 32.748 71.418 33.057 70.659 33.258C70.3245 33.3417 70.02 33.5173 69.7799 33.7648C69.5398 34.0124 69.3736 34.3221 69.3 34.659C69.0597 35.8795 68.7051 37.0748 68.241 38.229C68.1797 38.402 68.0664 38.5517 67.9165 38.6576C67.7666 38.7635 67.5876 38.8204 67.404 38.8204C67.2205 38.8204 67.0415 38.7635 66.8916 38.6576C66.7417 38.5517 66.6283 38.402 66.567 38.229C66.1028 37.0749 65.7483 35.8796 65.508 34.659Z" fill="url(#paint6_linear_81_1520)"/>
</g>
<g filter="url(#filter5_ii_81_1520)">
<path fill-rule="evenodd" clip-rule="evenodd" d="M65.508 34.659C65.4348 34.3211 65.2684 34.0105 65.0277 33.7624C64.7869 33.5142 64.4815 33.3385 64.146 33.255C63.2796 33.0182 62.4385 32.6966 61.635 32.295C61.4639 32.2146 61.3191 32.0871 61.2177 31.9275C61.1163 31.7678 61.0625 31.5826 61.0625 31.3935C61.0625 31.2044 61.1163 31.0192 61.2177 30.8595C61.3191 30.6999 61.4639 30.5724 61.635 30.492C62.562 30.042 63.384 29.733 64.146 29.532C64.4811 29.4487 64.7863 29.2734 65.027 29.0259C65.2677 28.7783 65.4343 28.4683 65.508 28.131C65.7483 26.9104 66.1028 25.7151 66.567 24.561C66.6283 24.388 66.7417 24.2383 66.8916 24.1324C67.0415 24.0265 67.2205 23.9696 67.404 23.9696C67.5876 23.9696 67.7666 24.0265 67.9165 24.1324C68.0664 24.2383 68.1797 24.388 68.241 24.561C68.751 25.812 69.093 27.093 69.3 28.131C69.435 28.821 69.981 29.355 70.659 29.532C71.418 29.733 72.237 30.042 73.158 30.492C73.3291 30.5729 73.4736 30.7008 73.5748 30.8606C73.676 31.0205 73.7297 31.2058 73.7297 31.395C73.7297 31.5842 73.676 31.7695 73.5748 31.9294C73.4736 32.0892 73.3291 32.2171 73.158 32.298C72.237 32.748 71.418 33.057 70.659 33.258C70.3245 33.3417 70.02 33.5173 69.7799 33.7648C69.5398 34.0124 69.3736 34.3221 69.3 34.659C69.0597 35.8795 68.7051 37.0748 68.241 38.229C68.1797 38.402 68.0664 38.5517 67.9165 38.6576C67.7666 38.7635 67.5876 38.8204 67.404 38.8204C67.2205 38.8204 67.0415 38.7635 66.8916 38.6576C66.7417 38.5517 66.6283 38.402 66.567 38.229C66.1028 37.0749 65.7483 35.8796 65.508 34.659Z" fill="url(#paint7_linear_81_1520)"/>
</g>
<path d="M26.472 69.468C26.3175 69.4683 26.1669 69.5163 26.0407 69.6054C25.9145 69.6946 25.8189 69.8205 25.767 69.966L21.276 82.59C20.9954 83.3797 20.9078 84.2252 21.0208 85.0556C21.1337 85.8861 21.4439 86.6774 21.9252 87.3635C22.4066 88.0495 23.0452 88.6104 23.7877 88.9992C24.5302 89.3879 25.3549 89.5932 26.193 89.598L47.553 89.718L48.303 89.721L69.663 89.598C70.5014 89.5937 71.3265 89.3887 72.0693 89.0002C72.8122 88.6116 73.4512 88.0508 73.9329 87.3647C74.4147 86.6785 74.725 85.887 74.8381 85.0563C74.9512 84.2257 74.8638 83.38 74.583 82.59L70.089 69.969C70.0371 69.8235 69.9415 69.6976 69.8153 69.6084C69.6892 69.5193 69.5385 69.4713 69.384 69.471L26.472 69.468Z" fill="url(#paint8_linear_81_1520)"/>
<path d="M26.472 69.468C26.3175 69.4683 26.1669 69.5163 26.0407 69.6054C25.9145 69.6946 25.8189 69.8205 25.767 69.966L21.276 82.59C20.9954 83.3797 20.9078 84.2252 21.0208 85.0556C21.1337 85.8861 21.4439 86.6774 21.9252 87.3635C22.4066 88.0495 23.0452 88.6104 23.7877 88.9992C24.5302 89.3879 25.3549 89.5932 26.193 89.598L47.553 89.718L48.303 89.721L69.663 89.598C70.5014 89.5937 71.3265 89.3887 72.0693 89.0002C72.8122 88.6116 73.4512 88.0508 73.9329 87.3647C74.4147 86.6785 74.725 85.887 74.8381 85.0563C74.9512 84.2257 74.8638 83.38 74.583 82.59L70.089 69.969C70.0371 69.8235 69.9415 69.6976 69.8153 69.6084C69.6892 69.5193 69.5385 69.4713 69.384 69.471L26.472 69.468Z" fill="url(#paint9_linear_81_1520)"/>
<path d="M26.472 69.468C26.3175 69.4683 26.1669 69.5163 26.0407 69.6054C25.9145 69.6946 25.8189 69.8205 25.767 69.966L21.276 82.59C20.9954 83.3797 20.9078 84.2252 21.0208 85.0556C21.1337 85.8861 21.4439 86.6774 21.9252 87.3635C22.4066 88.0495 23.0452 88.6104 23.7877 88.9992C24.5302 89.3879 25.3549 89.5932 26.193 89.598L47.553 89.718L48.303 89.721L69.663 89.598C70.5014 89.5937 71.3265 89.3887 72.0693 89.0002C72.8122 88.6116 73.4512 88.0508 73.9329 87.3647C74.4147 86.6785 74.725 85.887 74.8381 85.0563C74.9512 84.2257 74.8638 83.38 74.583 82.59L70.089 69.969C70.0371 69.8235 69.9415 69.6976 69.8153 69.6084C69.6892 69.5193 69.5385 69.4713 69.384 69.471L26.472 69.468Z" fill="url(#paint10_linear_81_1520)"/>
<path d="M26.472 69.468C26.3175 69.4683 26.1669 69.5163 26.0407 69.6054C25.9145 69.6946 25.8189 69.8205 25.767 69.966L21.276 82.59C20.9954 83.3797 20.9078 84.2252 21.0208 85.0556C21.1337 85.8861 21.4439 86.6774 21.9252 87.3635C22.4066 88.0495 23.0452 88.6104 23.7877 88.9992C24.5302 89.3879 25.3549 89.5932 26.193 89.598L47.553 89.718L48.303 89.721L69.663 89.598C70.5014 89.5937 71.3265 89.3887 72.0693 89.0002C72.8122 88.6116 73.4512 88.0508 73.9329 87.3647C74.4147 86.6785 74.725 85.887 74.8381 85.0563C74.9512 84.2257 74.8638 83.38 74.583 82.59L70.089 69.969C70.0371 69.8235 69.9415 69.6976 69.8153 69.6084C69.6892 69.5193 69.5385 69.4713 69.384 69.471L26.472 69.468Z" fill="url(#paint11_radial_81_1520)"/>
<path d="M26.472 69.468C26.3175 69.4683 26.1669 69.5163 26.0407 69.6054C25.9145 69.6946 25.8189 69.8205 25.767 69.966L21.276 82.59C20.9954 83.3797 20.9078 84.2252 21.0208 85.0556C21.1337 85.8861 21.4439 86.6774 21.9252 87.3635C22.4066 88.0495 23.0452 88.6104 23.7877 88.9992C24.5302 89.3879 25.3549 89.5932 26.193 89.598L47.553 89.718L48.303 89.721L69.663 89.598C70.5014 89.5937 71.3265 89.3887 72.0693 89.0002C72.8122 88.6116 73.4512 88.0508 73.9329 87.3647C74.4147 86.6785 74.725 85.887 74.8381 85.0563C74.9512 84.2257 74.8638 83.38 74.583 82.59L70.089 69.969C70.0371 69.8235 69.9415 69.6976 69.8153 69.6084C69.6892 69.5193 69.5385 69.4713 69.384 69.471L26.472 69.468Z" fill="url(#paint12_linear_81_1520)"/>
<defs>
<filter id="filter0_i_81_1520" x="12.489" y="6.06299" width="71.1279" height="70.8781" filterUnits="userSpaceOnUse" color-interpolation-filters="sRGB">
<feFlood flood-opacity="0" result="BackgroundImageFix"/>
<feBlend mode="normal" in="SourceGraphic" in2="BackgroundImageFix" result="shape"/>
<feColorMatrix in="SourceAlpha" type="matrix" values="0 0 0 0 0 0 0 0 0 0 0 0 0 0 0 0 0 0 127 0" result="hardAlpha"/>
<feOffset dx="0.25"/>
<feGaussianBlur stdDeviation="1"/>
<feComposite in2="hardAlpha" operator="arithmetic" k2="-1" k3="1"/>
<feColorMatrix type="matrix" values="0 0 0 0 0.368627 0 0 0 0 0.341176 0 0 0 0 0.411765 0 0 0 1 0"/>
<feBlend mode="normal" in2="shape" result="effect1_innerShadow_81_1520"/>
</filter>
<filter id="filter1_f_81_1520" x="21.4614" y="31.4097" width="23.1489" height="26.9467" filterUnits="userSpaceOnUse" color-interpolation-filters="sRGB">
<feFlood flood-opacity="0" result="BackgroundImageFix"/>
<feBlend mode="normal" in="SourceGraphic" in2="BackgroundImageFix" result="shape"/>
<feGaussianBlur stdDeviation="0.25" result="effect1_foregroundBlur_81_1520"/>
</filter>
<filter id="filter2_ii_81_1520" x="21.8114" y="31.7597" width="22.4489" height="26.2467" filterUnits="userSpaceOnUse" color-interpolation-filters="sRGB">
<feFlood flood-opacity="0" result="BackgroundImageFix"/>
<feBlend mode="normal" in="SourceGraphic" in2="BackgroundImageFix" result="shape"/>
<feColorMatrix in="SourceAlpha" type="matrix" values="0 0 0 0 0 0 0 0 0 0 0 0 0 0 0 0 0 0 127 0" result="hardAlpha"/>
<feOffset dx="0.15" dy="-0.15"/>
<feGaussianBlur stdDeviation="0.375"/>
<feComposite in2="hardAlpha" operator="arithmetic" k2="-1" k3="1"/>
<feColorMatrix type="matrix" values="0 0 0 0 0.94902 0 0 0 0 0.513726 0 0 0 0 0.392157 0 0 0 1 0"/>
<feBlend mode="normal" in2="shape" result="effect1_innerShadow_81_1520"/>
<feColorMatrix in="SourceAlpha" type="matrix" values="0 0 0 0 0 0 0 0 0 0 0 0 0 0 0 0 0 0 127 0" result="hardAlpha"/>
<feOffset dx="-0.15" dy="0.15"/>
<feGaussianBlur stdDeviation="0.3"/>
<feComposite in2="hardAlpha" operator="arithmetic" k2="-1" k3="1"/>
<feColorMatrix type="matrix" values="0 0 0 0 1 0 0 0 0 0.823529 0 0 0 0 0.407843 0 0 0 1 0"/>
<feBlend mode="normal" in2="effect1_innerShadow_81_1520" result="effect2_innerShadow_81_1520"/>
</filter>
<filter id="filter3_ii_81_1520" x="39.0257" y="14.1351" width="9.07793" height="10.6086" filterUnits="userSpaceOnUse" color-interpolation-filters="sRGB">
<feFlood flood-opacity="0" result="BackgroundImageFix"/>
<feBlend mode="normal" in="SourceGraphic" in2="BackgroundImageFix" result="shape"/>
<feColorMatrix in="SourceAlpha" type="matrix" values="0 0 0 0 0 0 0 0 0 0 0 0 0 0 0 0 0 0 127 0" result="hardAlpha"/>
<feOffset dx="0.1" dy="-0.1"/>
<feGaussianBlur stdDeviation="0.15"/>
<feComposite in2="hardAlpha" operator="arithmetic" k2="-1" k3="1"/>
<feColorMatrix type="matrix" values="0 0 0 0 0.952941 0 0 0 0 0.694118 0 0 0 0 0.396078 0 0 0 1 0"/>
<feBlend mode="normal" in2="shape" result="effect1_innerShadow_81_1520"/>
<feColorMatrix in="SourceAlpha" type="matrix" values="0 0 0 0 0 0 0 0 0 0 0 0 0 0 0 0 0 0 127 0" result="hardAlpha"/>
<feOffset dx="-0.1" dy="0.1"/>
<feGaussianBlur stdDeviation="0.15"/>
<feComposite in2="hardAlpha" operator="arithmetic" k2="-1" k3="1"/>
<feColorMatrix type="matrix" values="0 0 0 0 1 0 0 0 0 0.823529 0 0 0 0 0.407843 0 0 0 1 0"/>
<feBlend mode="normal" in2="effect1_innerShadow_81_1520" result="effect2_innerShadow_81_1520"/>
</filter>
<filter id="filter4_ii_81_1520" x="60.9125" y="23.8196" width="12.9672" height="15.1508" filterUnits="userSpaceOnUse" color-interpolation-filters="sRGB">
<feFlood flood-opacity="0" result="BackgroundImageFix"/>
<feBlend mode="normal" in="SourceGraphic" in2="BackgroundImageFix" result="shape"/>
<feColorMatrix in="SourceAlpha" type="matrix" values="0 0 0 0 0 0 0 0 0 0 0 0 0 0 0 0 0 0 127 0" result="hardAlpha"/>
<feOffset dx="0.15" dy="-0.15"/>
<feGaussianBlur stdDeviation="0.375"/>
<feComposite in2="hardAlpha" operator="arithmetic" k2="-1" k3="1"/>
<feColorMatrix type="matrix" values="0 0 0 0 0.94902 0 0 0 0 0.513726 0 0 0 0 0.392157 0 0 0 1 0"/>
<feBlend mode="normal" in2="shape" result="effect1_innerShadow_81_1520"/>
<feColorMatrix in="SourceAlpha" type="matrix" values="0 0 0 0 0 0 0 0 0 0 0 0 0 0 0 0 0 0 127 0" result="hardAlpha"/>
<feOffset dx="-0.15" dy="0.15"/>
<feGaussianBlur stdDeviation="0.3"/>
<feComposite in2="hardAlpha" operator="arithmetic" k2="-1" k3="1"/>
<feColorMatrix type="matrix" values="0 0 0 0 1 0 0 0 0 0.823529 0 0 0 0 0.407843 0 0 0 1 0"/>
<feBlend mode="normal" in2="effect1_innerShadow_81_1520" result="effect2_innerShadow_81_1520"/>
</filter>
<filter id="filter5_ii_81_1520" x="60.9125" y="23.8696" width="12.9172" height="15.1008" filterUnits="userSpaceOnUse" color-interpolation-filters="sRGB">
<feFlood flood-opacity="0" result="BackgroundImageFix"/>
<feBlend mode="normal" in="SourceGraphic" in2="BackgroundImageFix" result="shape"/>
<feColorMatrix in="SourceAlpha" type="matrix" values="0 0 0 0 0 0 0 0 0 0 0 0 0 0 0 0 0 0 127 0" result="hardAlpha"/>
<feOffset dx="-0.15" dy="0.15"/>
<feGaussianBlur stdDeviation="0.25"/>
<feComposite in2="hardAlpha" operator="arithmetic" k2="-1" k3="1"/>
<feColorMatrix type="matrix" values="0 0 0 0 1 0 0 0 0 0.886275 0 0 0 0 0.513726 0 0 0 1 0"/>
<feBlend mode="normal" in2="shape" result="effect1_innerShadow_81_1520"/>
<feColorMatrix in="SourceAlpha" type="matrix" values="0 0 0 0 0 0 0 0 0 0 0 0 0 0 0 0 0 0 127 0" result="hardAlpha"/>
<feOffset dx="0.1" dy="-0.1"/>
<feGaussianBlur stdDeviation="0.15"/>
<feComposite in2="hardAlpha" operator="arithmetic" k2="-1" k3="1"/>
<feColorMatrix type="matrix" values="0 0 0 0 0.988235 0 0 0 0 0.619608 0 0 0 0 0.447059 0 0 0 1 0"/>
<feBlend mode="normal" in2="effect1_innerShadow_81_1520" result="effect2_innerShadow_81_1520"/>
</filter>
<radialGradient id="paint0_radial_81_1520" cx="0" cy="0" r="1" gradientUnits="userSpaceOnUse" gradientTransform="translate(66.8652 31.1754) rotate(126.32) scale(44.6763)">
<stop stop-color="#7B7486"/>
<stop offset="0.788" stop-color="#35303C"/>
</radialGradient>
<radialGradient id="paint1_radial_81_1520" cx="0" cy="0" r="1" gradientUnits="userSpaceOnUse" gradientTransform="translate(40.1669 66.4551) rotate(-55.364) scale(44.0403 54.4281)">
<stop stop-color="#5C4077"/>
<stop offset="1" stop-color="#5C4077" stop-opacity="0"/>
</radialGradient>
<radialGradient id="paint2_radial_81_1520" cx="0" cy="0" r="1" gradientUnits="userSpaceOnUse" gradientTransform="translate(25.71 71.439) rotate(-56.3099) scale(5.40833 8.07197)">
<stop stop-color="#66547A"/>
<stop offset="1" stop-color="#66547A" stop-opacity="0"/>
</radialGradient>
<linearGradient id="paint3_linear_81_1520" x1="47.928" y1="69.819" x2="47.928" y2="68.157" gradientUnits="userSpaceOnUse">
<stop stop-color="#392E48"/>
<stop offset="1" stop-color="#392E48" stop-opacity="0"/>
</linearGradient>
<linearGradient id="paint4_linear_81_1520" x1="40.9951" y1="38.778" x2="28.0891" y2="51.693" gradientUnits="userSpaceOnUse">
<stop stop-color="#FFC154"/>
<stop offset="1" stop-color="#FFA271"/>
</linearGradient>
<linearGradient id="paint5_linear_81_1520" x1="46.2811" y1="17.313" x2="41.7841" y2="21.723" gradientUnits="userSpaceOnUse">
<stop offset="0.042" stop-color="#F2C954"/>
<stop offset="1" stop-color="#F7B669"/>
</linearGradient>
<linearGradient id="paint6_linear_81_1520" x1="71.277" y1="28.359" x2="64.86" y2="34.653" gradientUnits="userSpaceOnUse">
<stop stop-color="#FFC154"/>
<stop offset="1" stop-color="#FFA271"/>
</linearGradient>
<linearGradient id="paint7_linear_81_1520" x1="71.277" y1="28.359" x2="64.86" y2="34.653" gradientUnits="userSpaceOnUse">
<stop offset="0.042" stop-color="#FEC953"/>
<stop offset="1" stop-color="#EEA654"/>
</linearGradient>
<linearGradient id="paint8_linear_81_1520" x1="24.303" y1="84" x2="63.303" y2="84" gradientUnits="userSpaceOnUse">
<stop stop-color="#B9A6CD"/>
<stop offset="1" stop-color="#F1EAF6"/>
</linearGradient>
<linearGradient id="paint9_linear_81_1520" x1="73.659" y1="75.99" x2="68.655" y2="77.661" gradientUnits="userSpaceOnUse">
<stop stop-color="#D9D7DF"/>
<stop offset="1" stop-color="#D9D7DF" stop-opacity="0"/>
</linearGradient>
<linearGradient id="paint10_linear_81_1520" x1="50.418" y1="89.718" x2="50.418" y2="83.859" gradientUnits="userSpaceOnUse">
<stop stop-color="#CF8EEB"/>
<stop offset="1" stop-color="#CF8EEB" stop-opacity="0"/>
</linearGradient>
<radialGradient id="paint11_radial_81_1520" cx="0" cy="0" r="1" gradientUnits="userSpaceOnUse" gradientTransform="translate(51.609 97.209) rotate(-90) scale(17.6137 44.1021)">
<stop stop-color="#CF8EEB"/>
<stop offset="1" stop-color="#CF8EEB" stop-opacity="0"/>
</radialGradient>
<linearGradient id="paint12_linear_81_1520" x1="20.022" y1="79.593" x2="35.874" y2="83.619" gradientUnits="userSpaceOnUse">
<stop stop-color="#8B8496"/>
<stop offset="1" stop-color="#8B8496" stop-opacity="0"/>
</linearGradient>
</defs>
</svg>
