<svg width="55" height="55" viewBox="0 0 55 55" fill="none" xmlns="http://www.w3.org/2000/svg">
<path d="M27.4983 51.5591C43.5411 51.5591 51.5591 40.7859 51.5591 27.4966C51.5591 14.2106 43.5411 3.4375 27.4966 3.4375C11.4555 3.4375 3.4375 14.2106 3.4375 27.4983C3.4375 40.7859 11.4537 51.5591 27.4983 51.5591Z" fill="url(#paint0_radial_81_1402)"/>
<path d="M27.4983 51.5591C43.5411 51.5591 51.5591 40.7859 51.5591 27.4966C51.5591 14.2106 43.5411 3.4375 27.4966 3.4375C11.4555 3.4375 3.4375 14.2106 3.4375 27.4983C3.4375 40.7859 11.4537 51.5591 27.4983 51.5591Z" fill="url(#paint1_radial_81_1402)"/>
<path d="M27.4983 51.5591C43.5411 51.5591 51.5591 40.7859 51.5591 27.4966C51.5591 14.2106 43.5411 3.4375 27.4966 3.4375C11.4555 3.4375 3.4375 14.2106 3.4375 27.4983C3.4375 40.7859 11.4537 51.5591 27.4983 51.5591Z" fill="url(#paint2_radial_81_1402)"/>
<path d="M27.4983 51.5591C43.5411 51.5591 51.5591 40.7859 51.5591 27.4966C51.5591 14.2106 43.5411 3.4375 27.4966 3.4375C11.4555 3.4375 3.4375 14.2106 3.4375 27.4983C3.4375 40.7859 11.4537 51.5591 27.4983 51.5591Z" fill="url(#paint3_radial_81_1402)" fill-opacity="0.6"/>
<path d="M27.4983 51.5591C43.5411 51.5591 51.5591 40.7859 51.5591 27.4966C51.5591 14.2106 43.5411 3.4375 27.4966 3.4375C11.4555 3.4375 3.4375 14.2106 3.4375 27.4983C3.4375 40.7859 11.4537 51.5591 27.4983 51.5591Z" fill="url(#paint4_radial_81_1402)"/>
<path d="M27.4983 51.5591C43.5411 51.5591 51.5591 40.7859 51.5591 27.4966C51.5591 14.2106 43.5411 3.4375 27.4966 3.4375C11.4555 3.4375 3.4375 14.2106 3.4375 27.4983C3.4375 40.7859 11.4537 51.5591 27.4983 51.5591Z" fill="url(#paint5_radial_81_1402)"/>
<path d="M27.4983 51.5591C43.5411 51.5591 51.5591 40.7859 51.5591 27.4966C51.5591 14.2106 43.5411 3.4375 27.4966 3.4375C11.4555 3.4375 3.4375 14.2106 3.4375 27.4983C3.4375 40.7859 11.4537 51.5591 27.4983 51.5591Z" fill="url(#paint6_radial_81_1402)"/>
<path d="M27.4983 51.5591C43.5411 51.5591 51.5591 40.7859 51.5591 27.4966C51.5591 14.2106 43.5411 3.4375 27.4966 3.4375C11.4555 3.4375 3.4375 14.2106 3.4375 27.4983C3.4375 40.7859 11.4537 51.5591 27.4983 51.5591Z" fill="url(#paint7_radial_81_1402)"/>
<g opacity="0.5" filter="url(#filter0_f_81_1402)">
<path d="M12.8906 19.7656C12.8906 19.7656 13.3203 16.3281 17.1875 16.3281C21.0547 16.3281 21.4844 19.7656 21.4844 19.7656" stroke="#9A4609" stroke-width="2" stroke-linecap="round"/>
</g>
<g opacity="0.5" filter="url(#filter1_f_81_1402)">
<path d="M31.7969 19.7656C31.7969 19.7656 32.6562 16.3281 36.0938 16.3281C39.5312 16.3281 40.3906 19.7656 40.3906 19.7656" stroke="#9A4609" stroke-width="2" stroke-linecap="round"/>
</g>
<path d="M13.75 18.9062C13.75 18.9062 14.1797 15.4688 18.0469 15.4688C21.9141 15.4688 22.3438 18.9062 22.3438 18.9062" stroke="#43273B" stroke-width="2" stroke-linecap="round" stroke-linejoin="round"/>
<g opacity="0.26" filter="url(#filter2_f_81_1402)">
<path d="M14.1797 18.4766C14.1797 18.4766 14.6094 15.0391 18.4766 15.0391C22.3438 15.0391 22.7734 18.4766 22.7734 18.4766" stroke="white" stroke-width="0.75" stroke-linecap="round" stroke-linejoin="round"/>
</g>
<path d="M32.6562 18.9062C32.6562 18.9062 33.5156 15.4688 36.9531 15.4688C40.3906 15.4688 41.25 18.9062 41.25 18.9062" stroke="#43273B" stroke-width="2" stroke-linecap="round" stroke-linejoin="round"/>
<g opacity="0.26" filter="url(#filter3_f_81_1402)">
<path d="M33.0859 18.4766C33.0859 18.4766 33.5156 15.0391 37.3828 15.0391C41.25 15.0391 41.6797 18.4766 41.6797 18.4766" stroke="white" stroke-width="0.75" stroke-linecap="round" stroke-linejoin="round"/>
</g>
<path d="M27.5 44.6875C10.3125 44.6875 10.3125 27.5 10.3125 27.5H44.6875C44.6875 27.5 44.6875 44.6875 27.5 44.6875Z" fill="url(#paint8_radial_81_1402)"/>
<path d="M13.3358 34.0209L12.0312 27.5H42.9688L41.6642 34.0209C41.5474 34.6052 41.2319 35.1309 40.7713 35.5088C40.3107 35.8867 39.7334 36.0934 39.1377 36.0938H15.8641C15.268 36.0938 14.6903 35.8873 14.2293 35.5094C13.7684 35.1314 13.4526 34.6055 13.3358 34.0209Z" fill="url(#paint9_radial_81_1402)"/>
<path d="M13.3358 34.0209L12.0312 27.5H42.9688L41.6642 34.0209C41.5474 34.6052 41.2319 35.1309 40.7713 35.5088C40.3107 35.8867 39.7334 36.0934 39.1377 36.0938H15.8641C15.268 36.0938 14.6903 35.8873 14.2293 35.5094C13.7684 35.1314 13.4526 34.6055 13.3358 34.0209Z" fill="url(#paint10_linear_81_1402)"/>
<path fill-rule="evenodd" clip-rule="evenodd" d="M14.3395 39.0414C16.8437 42.1609 20.9086 44.6875 27.5 44.6875C34.0914 44.6875 38.1545 42.1609 40.6605 39.0431L40.8392 38.1494C40.8891 37.9 40.8829 37.6426 40.8213 37.3959C40.7596 37.1491 40.644 36.9191 40.4827 36.7225C40.3214 36.5258 40.1185 36.3674 39.8886 36.2587C39.6586 36.15 39.4075 36.0936 39.1531 36.0938H15.8469C15.5925 36.0936 15.3414 36.15 15.1114 36.2587C14.8815 36.3674 14.6786 36.5258 14.5173 36.7225C14.356 36.9191 14.2404 37.1491 14.1787 37.3959C14.1171 37.6426 14.1109 37.9 14.1608 38.1494L14.3395 39.0414Z" fill="url(#paint11_linear_81_1402)"/>
<defs>
<filter id="filter0_f_81_1402" x="10.3905" y="13.8281" width="13.594" height="8.4375" filterUnits="userSpaceOnUse" color-interpolation-filters="sRGB">
<feFlood flood-opacity="0" result="BackgroundImageFix"/>
<feBlend mode="normal" in="SourceGraphic" in2="BackgroundImageFix" result="shape"/>
<feGaussianBlur stdDeviation="0.75" result="effect1_foregroundBlur_81_1402"/>
</filter>
<filter id="filter1_f_81_1402" x="29.2966" y="13.8281" width="13.5942" height="8.43774" filterUnits="userSpaceOnUse" color-interpolation-filters="sRGB">
<feFlood flood-opacity="0" result="BackgroundImageFix"/>
<feBlend mode="normal" in="SourceGraphic" in2="BackgroundImageFix" result="shape"/>
<feGaussianBlur stdDeviation="0.75" result="effect1_foregroundBlur_81_1402"/>
</filter>
<filter id="filter2_f_81_1402" x="12.3046" y="13.1641" width="12.3439" height="7.1875" filterUnits="userSpaceOnUse" color-interpolation-filters="sRGB">
<feFlood flood-opacity="0" result="BackgroundImageFix"/>
<feBlend mode="normal" in="SourceGraphic" in2="BackgroundImageFix" result="shape"/>
<feGaussianBlur stdDeviation="0.75" result="effect1_foregroundBlur_81_1402"/>
</filter>
<filter id="filter3_f_81_1402" x="31.2109" y="13.1641" width="12.3439" height="7.1875" filterUnits="userSpaceOnUse" color-interpolation-filters="sRGB">
<feFlood flood-opacity="0" result="BackgroundImageFix"/>
<feBlend mode="normal" in="SourceGraphic" in2="BackgroundImageFix" result="shape"/>
<feGaussianBlur stdDeviation="0.75" result="effect1_foregroundBlur_81_1402"/>
</filter>
<radialGradient id="paint0_radial_81_1402" cx="0" cy="0" r="1" gradientUnits="userSpaceOnUse" gradientTransform="translate(43.8284 15.468) rotate(132.839) scale(64.4588)">
<stop stop-color="#FFF478"/>
<stop offset="0.475" stop-color="#FFB02E"/>
<stop offset="1" stop-color="#F70A8D"/>
</radialGradient>
<radialGradient id="paint1_radial_81_1402" cx="0" cy="0" r="1" gradientUnits="userSpaceOnUse" gradientTransform="translate(43.8261 15.4699) rotate(131.878) scale(66.9431)">
<stop stop-color="#FFF478"/>
<stop offset="0.475" stop-color="#FFB02E"/>
<stop offset="1" stop-color="#F70A8D"/>
</radialGradient>
<radialGradient id="paint2_radial_81_1402" cx="0" cy="0" r="1" gradientUnits="userSpaceOnUse" gradientTransform="translate(27.4988 21.4839) rotate(101.31) scale(30.6738 39.2874)">
<stop offset="0.788" stop-color="#F59639" stop-opacity="0"/>
<stop offset="0.973" stop-color="#FF7DCE"/>
</radialGradient>
<radialGradient id="paint3_radial_81_1402" cx="0" cy="0" r="1" gradientUnits="userSpaceOnUse" gradientTransform="translate(30.9375 24.0625) rotate(135) scale(70.4897)">
<stop offset="0.315" stop-opacity="0"/>
<stop offset="1"/>
</radialGradient>
<radialGradient id="paint4_radial_81_1402" cx="0" cy="0" r="1" gradientUnits="userSpaceOnUse" gradientTransform="translate(27.4999 29.2201) rotate(77.692) scale(48.3775)">
<stop offset="0.508" stop-color="#7D6133" stop-opacity="0"/>
<stop offset="1" stop-color="#715B32"/>
</radialGradient>
<radialGradient id="paint5_radial_81_1402" cx="0" cy="0" r="1" gradientUnits="userSpaceOnUse" gradientTransform="translate(28.3594 28.3594) rotate(55.713) scale(22.8826 16.5865)">
<stop stop-color="#FFB849"/>
<stop offset="1" stop-color="#FFB847" stop-opacity="0"/>
</radialGradient>
<radialGradient id="paint6_radial_81_1402" cx="0" cy="0" r="1" gradientUnits="userSpaceOnUse" gradientTransform="translate(35.2344 30.9375) rotate(9.86582) scale(20.0623)">
<stop stop-color="#FFA64B"/>
<stop offset="0.9" stop-color="#FFAE46" stop-opacity="0"/>
</radialGradient>
<radialGradient id="paint7_radial_81_1402" cx="0" cy="0" r="1" gradientUnits="userSpaceOnUse" gradientTransform="translate(30.0782 25.7817) rotate(43.971) scale(101.497)">
<stop offset="0.185" stop-opacity="0"/>
<stop offset="1" stop-opacity="0.4"/>
</radialGradient>
<radialGradient id="paint8_radial_81_1402" cx="0" cy="0" r="1" gradientUnits="userSpaceOnUse" gradientTransform="translate(25.7812 42.9687) rotate(-90) scale(15.4687 30.9375)">
<stop stop-color="#F70A8D"/>
<stop offset="1" stop-color="#89029C"/>
</radialGradient>
<radialGradient id="paint9_radial_81_1402" cx="0" cy="0" r="1" gradientUnits="userSpaceOnUse" gradientTransform="translate(36.9531 27.5012) rotate(138.576) scale(19.4834)">
<stop stop-color="white"/>
<stop offset="1" stop-color="#ECCDFF"/>
</radialGradient>
<linearGradient id="paint10_linear_81_1402" x1="27.5" y1="34.375" x2="27.5" y2="36.9531" gradientUnits="userSpaceOnUse">
<stop stop-color="#E181F4" stop-opacity="0"/>
<stop offset="1" stop-color="#E181F4"/>
</linearGradient>
<linearGradient id="paint11_linear_81_1402" x1="29.3064" y1="36.0937" x2="27.1167" y2="43.4448" gradientUnits="userSpaceOnUse">
<stop stop-color="white"/>
<stop offset="1" stop-color="#ECCDFF"/>
</linearGradient>
</defs>
</svg>
