<svg width="76" height="76" viewBox="0 0 76 76" fill="none" xmlns="http://www.w3.org/2000/svg">
<g filter="url(#filter0_iiii_88_487)">
<path d="M69.2763 11.8014H6.87314C5.8238 11.8014 4.97314 12.6521 4.97314 13.7014V62.225C4.97314 63.2744 5.8238 64.125 6.87314 64.125H69.2763C70.3256 64.125 71.1763 63.2744 71.1763 62.225V13.7014C71.1763 12.6521 70.3256 11.8014 69.2763 11.8014Z" fill="#5E4F86"/>
</g>
<g filter="url(#filter1_f_88_487)">
<path d="M6.12737 52.212V23.788H14.1739C16.4491 23.788 18.2945 25.8067 18.2945 28.3005V47.6995C18.2945 50.1932 16.4491 52.212 14.1739 52.212H6.12737Z" stroke="#463875" stroke-width="0.65"/>
<path d="M6.12737 52.212V23.788H14.1739C16.4491 23.788 18.2945 25.8067 18.2945 28.3005V47.6995C18.2945 50.1932 16.4491 52.212 14.1739 52.212H6.12737Z" stroke="url(#paint0_linear_88_487)" stroke-width="0.65"/>
</g>
<g filter="url(#filter2_f_88_487)">
<path d="M70.0577 23.788V52.212H61.9875C59.7051 52.212 57.855 50.1932 57.855 47.6995V28.3005C57.855 25.8067 59.7051 23.788 61.9875 23.788H70.0577Z" stroke="#463875" stroke-width="0.65"/>
<path d="M70.0577 23.788V52.212H61.9875C59.7051 52.212 57.855 50.1932 57.855 47.6995V28.3005C57.855 25.8067 59.7051 23.788 61.9875 23.788H70.0577Z" stroke="url(#paint1_linear_88_487)" stroke-width="0.65"/>
</g>
<g filter="url(#filter3_f_88_487)">
<path d="M23.6191 28.3005C23.6191 27.1037 24.0946 25.9559 24.9408 25.1096C25.7871 24.2634 26.9349 23.788 28.1316 23.788H47.8679C49.0647 23.788 50.2125 24.2634 51.0587 25.1096C51.905 25.9559 52.3804 27.1037 52.3804 28.3005V47.6995C52.3804 48.8963 51.905 50.044 51.0587 50.8903C50.2125 51.7365 49.0647 52.212 47.8679 52.212H28.1316C26.9349 52.212 25.7871 51.7365 24.9408 50.8903C24.0946 50.044 23.6191 48.8963 23.6191 47.6995V28.3005Z" stroke="#463875" stroke-width="0.65"/>
<path d="M23.6191 28.3005C23.6191 27.1037 24.0946 25.9559 24.9408 25.1096C25.7871 24.2634 26.9349 23.788 28.1316 23.788H47.8679C49.0647 23.788 50.2125 24.2634 51.0587 25.1096C51.905 25.9559 52.3804 27.1037 52.3804 28.3005V47.6995C52.3804 48.8963 51.905 50.044 51.0587 50.8903C50.2125 51.7365 49.0647 52.212 47.8679 52.212H28.1316C26.9349 52.212 25.7871 51.7365 24.9408 50.8903C24.0946 50.044 23.6191 48.8963 23.6191 47.6995V28.3005Z" stroke="url(#paint2_linear_88_487)" stroke-width="0.65"/>
</g>
<g filter="url(#filter4_i_88_487)">
<path d="M71.1763 23.788V52.212H62.365C61.1683 52.212 60.0205 51.7365 59.1742 50.8903C58.328 50.044 57.8525 48.8963 57.8525 47.6995V28.3005C57.8525 27.1037 58.328 25.9559 59.1742 25.1096C60.0205 24.2634 61.1683 23.788 62.365 23.788H71.1763Z" fill="#7BBEE4"/>
</g>
<path d="M71.1763 23.788V52.212H62.365C61.1683 52.212 60.0205 51.7365 59.1742 50.8903C58.328 50.044 57.8525 48.8963 57.8525 47.6995V28.3005C57.8525 27.1037 58.328 25.9559 59.1742 25.1096C60.0205 24.2634 61.1683 23.788 62.365 23.788H71.1763Z" fill="url(#paint3_linear_88_487)"/>
<g filter="url(#filter5_i_88_487)">
<path d="M23.6191 28.3005C23.6191 27.1037 24.0946 25.9559 24.9408 25.1096C25.7871 24.2634 26.9349 23.788 28.1316 23.788H47.8679C49.0647 23.788 50.2125 24.2634 51.0587 25.1096C51.905 25.9559 52.3804 27.1037 52.3804 28.3005V47.6995C52.3804 48.8963 51.905 50.044 51.0587 50.8903C50.2125 51.7365 49.0647 52.212 47.8679 52.212H28.1316C26.9349 52.212 25.7871 51.7365 24.9408 50.8903C24.0946 50.044 23.6191 48.8963 23.6191 47.6995V28.3005Z" fill="#7BBEE4"/>
</g>
<g filter="url(#filter6_i_88_487)">
<path d="M4.97314 52.212V23.788H13.7844C14.9812 23.788 16.129 24.2634 16.9752 25.1096C17.8215 25.9559 18.2969 27.1037 18.2969 28.3005V47.6995C18.2969 48.8963 17.8215 50.044 16.9752 50.8903C16.129 51.7365 14.9812 52.212 13.7844 52.212H4.97314Z" fill="#7BBEE4"/>
</g>
<g filter="url(#filter7_f_88_487)">
<path d="M9.64941 16.0503C9.64941 15.8928 9.71197 15.7418 9.82332 15.6304C9.93467 15.5191 10.0857 15.4565 10.2432 15.4565H13.9149C14.0724 15.4565 14.2234 15.5191 14.3348 15.6304C14.4461 15.7418 14.5087 15.8928 14.5087 16.0503V19.7244C14.5087 19.8819 14.4461 20.0329 14.3348 20.1443C14.2234 20.2556 14.0724 20.3182 13.9149 20.3182H10.2432C10.0857 20.3182 9.93467 20.2556 9.82332 20.1443C9.71197 20.0329 9.64941 19.8819 9.64941 19.7244V16.0503Z" stroke="#43346D" stroke-width="0.6"/>
<path d="M9.64941 16.0503C9.64941 15.8928 9.71197 15.7418 9.82332 15.6304C9.93467 15.5191 10.0857 15.4565 10.2432 15.4565H13.9149C14.0724 15.4565 14.2234 15.5191 14.3348 15.6304C14.4461 15.7418 14.5087 15.8928 14.5087 16.0503V19.7244C14.5087 19.8819 14.4461 20.0329 14.3348 20.1443C14.2234 20.2556 14.0724 20.3182 13.9149 20.3182H10.2432C10.0857 20.3182 9.93467 20.2556 9.82332 20.1443C9.71197 20.0329 9.64941 19.8819 9.64941 19.7244V16.0503Z" stroke="url(#paint4_linear_88_487)" stroke-width="0.6"/>
</g>
<g filter="url(#filter8_f_88_487)">
<path d="M9.64941 16.0503C9.64941 15.8928 9.71197 15.7418 9.82332 15.6304C9.93467 15.5191 10.0857 15.4565 10.2432 15.4565H13.9149C14.0724 15.4565 14.2234 15.5191 14.3348 15.6304C14.4461 15.7418 14.5087 15.8928 14.5087 16.0503V19.7244C14.5087 19.8819 14.4461 20.0329 14.3348 20.1443C14.2234 20.2556 14.0724 20.3182 13.9149 20.3182H10.2432C10.0857 20.3182 9.93467 20.2556 9.82332 20.1443C9.71197 20.0329 9.64941 19.8819 9.64941 19.7244V16.0503Z" stroke="#422E6F" stroke-width="0.1"/>
</g>
<g filter="url(#filter9_f_88_487)">
<path d="M22.6362 16.0503C22.6362 15.8928 22.6988 15.7418 22.8101 15.6304C22.9215 15.5191 23.0725 15.4565 23.23 15.4565H26.9041C27.0616 15.4565 27.2126 15.5191 27.324 15.6304C27.4353 15.7418 27.4979 15.8928 27.4979 16.0503V19.7244C27.4979 19.8819 27.4353 20.0329 27.324 20.1443C27.2126 20.2556 27.0616 20.3182 26.9041 20.3182H23.23C23.0725 20.3182 22.9215 20.2556 22.8101 20.1443C22.6988 20.0329 22.6362 19.8819 22.6362 19.7244V16.0503Z" stroke="#43346D" stroke-width="0.6"/>
<path d="M22.6362 16.0503C22.6362 15.8928 22.6988 15.7418 22.8101 15.6304C22.9215 15.5191 23.0725 15.4565 23.23 15.4565H26.9041C27.0616 15.4565 27.2126 15.5191 27.324 15.6304C27.4353 15.7418 27.4979 15.8928 27.4979 16.0503V19.7244C27.4979 19.8819 27.4353 20.0329 27.324 20.1443C27.2126 20.2556 27.0616 20.3182 26.9041 20.3182H23.23C23.0725 20.3182 22.9215 20.2556 22.8101 20.1443C22.6988 20.0329 22.6362 19.8819 22.6362 19.7244V16.0503Z" stroke="url(#paint5_linear_88_487)" stroke-width="0.6"/>
</g>
<g filter="url(#filter10_f_88_487)">
<path d="M22.6362 16.0503C22.6362 15.8928 22.6988 15.7418 22.8101 15.6304C22.9215 15.5191 23.0725 15.4565 23.23 15.4565H26.9041C27.0616 15.4565 27.2126 15.5191 27.324 15.6304C27.4353 15.7418 27.4979 15.8928 27.4979 16.0503V19.7244C27.4979 19.8819 27.4353 20.0329 27.324 20.1443C27.2126 20.2556 27.0616 20.3182 26.9041 20.3182H23.23C23.0725 20.3182 22.9215 20.2556 22.8101 20.1443C22.6988 20.0329 22.6362 19.8819 22.6362 19.7244V16.0503Z" stroke="#422E6F" stroke-width="0.1"/>
</g>
<g filter="url(#filter11_f_88_487)">
<path d="M35.644 16.0503C35.644 15.8928 35.7066 15.7418 35.8179 15.6304C35.9293 15.5191 36.0803 15.4565 36.2378 15.4565H39.9119C40.0694 15.4565 40.2204 15.5191 40.3318 15.6304C40.4431 15.7418 40.5057 15.8928 40.5057 16.0503V19.7244C40.5057 19.8819 40.4431 20.0329 40.3318 20.1443C40.2204 20.2556 40.0694 20.3182 39.9119 20.3182H36.2378C36.0803 20.3182 35.9293 20.2556 35.8179 20.1443C35.7066 20.0329 35.644 19.8819 35.644 19.7244V16.0503Z" stroke="#43346D" stroke-width="0.6"/>
<path d="M35.644 16.0503C35.644 15.8928 35.7066 15.7418 35.8179 15.6304C35.9293 15.5191 36.0803 15.4565 36.2378 15.4565H39.9119C40.0694 15.4565 40.2204 15.5191 40.3318 15.6304C40.4431 15.7418 40.5057 15.8928 40.5057 16.0503V19.7244C40.5057 19.8819 40.4431 20.0329 40.3318 20.1443C40.2204 20.2556 40.0694 20.3182 39.9119 20.3182H36.2378C36.0803 20.3182 35.9293 20.2556 35.8179 20.1443C35.7066 20.0329 35.644 19.8819 35.644 19.7244V16.0503Z" stroke="url(#paint6_linear_88_487)" stroke-width="0.6"/>
</g>
<g filter="url(#filter12_f_88_487)">
<path d="M35.644 16.0503C35.644 15.8928 35.7066 15.7418 35.8179 15.6304C35.9293 15.5191 36.0803 15.4565 36.2378 15.4565H39.9119C40.0694 15.4565 40.2204 15.5191 40.3318 15.6304C40.4431 15.7418 40.5057 15.8928 40.5057 16.0503V19.7244C40.5057 19.8819 40.4431 20.0329 40.3318 20.1443C40.2204 20.2556 40.0694 20.3182 39.9119 20.3182H36.2378C36.0803 20.3182 35.9293 20.2556 35.8179 20.1443C35.7066 20.0329 35.644 19.8819 35.644 19.7244V16.0503Z" stroke="#422E6F" stroke-width="0.1"/>
</g>
<g filter="url(#filter13_f_88_487)">
<path d="M48.6138 16.0503C48.6138 15.8928 48.6763 15.7418 48.7877 15.6304C48.899 15.5191 49.05 15.4565 49.2075 15.4565H52.8816C53.0391 15.4565 53.1901 15.5191 53.3015 15.6304C53.4128 15.7418 53.4754 15.8928 53.4754 16.0503V19.7244C53.4754 19.8819 53.4128 20.0329 53.3015 20.1443C53.1901 20.2556 53.0391 20.3182 52.8816 20.3182H49.2075C49.05 20.3182 48.899 20.2556 48.7877 20.1443C48.6763 20.0329 48.6138 19.8819 48.6138 19.7244V16.0503Z" stroke="#43346D" stroke-width="0.6"/>
<path d="M48.6138 16.0503C48.6138 15.8928 48.6763 15.7418 48.7877 15.6304C48.899 15.5191 49.05 15.4565 49.2075 15.4565H52.8816C53.0391 15.4565 53.1901 15.5191 53.3015 15.6304C53.4128 15.7418 53.4754 15.8928 53.4754 16.0503V19.7244C53.4754 19.8819 53.4128 20.0329 53.3015 20.1443C53.1901 20.2556 53.0391 20.3182 52.8816 20.3182H49.2075C49.05 20.3182 48.899 20.2556 48.7877 20.1443C48.6763 20.0329 48.6138 19.8819 48.6138 19.7244V16.0503Z" stroke="url(#paint7_linear_88_487)" stroke-width="0.6"/>
</g>
<g filter="url(#filter14_f_88_487)">
<path d="M48.6138 16.0503C48.6138 15.8928 48.6763 15.7418 48.7877 15.6304C48.899 15.5191 49.05 15.4565 49.2075 15.4565H52.8816C53.0391 15.4565 53.1901 15.5191 53.3015 15.6304C53.4128 15.7418 53.4754 15.8928 53.4754 16.0503V19.7244C53.4754 19.8819 53.4128 20.0329 53.3015 20.1443C53.1901 20.2556 53.0391 20.3182 52.8816 20.3182H49.2075C49.05 20.3182 48.899 20.2556 48.7877 20.1443C48.6763 20.0329 48.6138 19.8819 48.6138 19.7244V16.0503Z" stroke="#422E6F" stroke-width="0.1"/>
</g>
<g filter="url(#filter15_f_88_487)">
<path d="M61.6025 16.0503C61.6025 15.8928 61.665 15.7418 61.7764 15.6304C61.8877 15.5191 62.0387 15.4565 62.1962 15.4565H65.868C66.0254 15.4565 66.1765 15.5191 66.2878 15.6304C66.3992 15.7418 66.4617 15.8928 66.4617 16.0503V19.7244C66.4617 19.8819 66.3992 20.0329 66.2878 20.1443C66.1765 20.2556 66.0254 20.3182 65.868 20.3182H62.1938C62.0364 20.3182 61.8854 20.2556 61.774 20.1443C61.6627 20.0329 61.6001 19.8819 61.6001 19.7244L61.6025 16.0503Z" stroke="#43346D" stroke-width="0.6"/>
<path d="M61.6025 16.0503C61.6025 15.8928 61.665 15.7418 61.7764 15.6304C61.8877 15.5191 62.0387 15.4565 62.1962 15.4565H65.868C66.0254 15.4565 66.1765 15.5191 66.2878 15.6304C66.3992 15.7418 66.4617 15.8928 66.4617 16.0503V19.7244C66.4617 19.8819 66.3992 20.0329 66.2878 20.1443C66.1765 20.2556 66.0254 20.3182 65.868 20.3182H62.1938C62.0364 20.3182 61.8854 20.2556 61.774 20.1443C61.6627 20.0329 61.6001 19.8819 61.6001 19.7244L61.6025 16.0503Z" stroke="url(#paint8_linear_88_487)" stroke-width="0.6"/>
</g>
<g filter="url(#filter16_f_88_487)">
<path d="M61.6025 16.0503C61.6025 15.8928 61.665 15.7418 61.7764 15.6304C61.8877 15.5191 62.0387 15.4565 62.1962 15.4565H65.868C66.0254 15.4565 66.1765 15.5191 66.2878 15.6304C66.3992 15.7418 66.4617 15.8928 66.4617 16.0503V19.7244C66.4617 19.8819 66.3992 20.0329 66.2878 20.1443C66.1765 20.2556 66.0254 20.3182 65.868 20.3182H62.1938C62.0364 20.3182 61.8854 20.2556 61.774 20.1443C61.6627 20.0329 61.6001 19.8819 61.6001 19.7244L61.6025 16.0503Z" stroke="#422E6F" stroke-width="0.1"/>
</g>
<g filter="url(#filter17_f_88_487)">
<path d="M9.64941 56.2756C9.64941 56.1182 9.71197 55.9671 9.82332 55.8558C9.93467 55.7444 10.0857 55.6819 10.2432 55.6819H13.9149C14.0724 55.6819 14.2234 55.7444 14.3348 55.8558C14.4461 55.9671 14.5087 56.1182 14.5087 56.2756V59.9498C14.5087 60.1072 14.4461 60.2583 14.3348 60.3696C14.2234 60.481 14.0724 60.5435 13.9149 60.5435H10.2432C10.0857 60.5435 9.93467 60.481 9.82332 60.3696C9.71197 60.2583 9.64941 60.1072 9.64941 59.9498V56.2756Z" stroke="#43346D" stroke-width="0.6"/>
<path d="M9.64941 56.2756C9.64941 56.1182 9.71197 55.9671 9.82332 55.8558C9.93467 55.7444 10.0857 55.6819 10.2432 55.6819H13.9149C14.0724 55.6819 14.2234 55.7444 14.3348 55.8558C14.4461 55.9671 14.5087 56.1182 14.5087 56.2756V59.9498C14.5087 60.1072 14.4461 60.2583 14.3348 60.3696C14.2234 60.481 14.0724 60.5435 13.9149 60.5435H10.2432C10.0857 60.5435 9.93467 60.481 9.82332 60.3696C9.71197 60.2583 9.64941 60.1072 9.64941 59.9498V56.2756Z" stroke="url(#paint9_linear_88_487)" stroke-width="0.6"/>
</g>
<g filter="url(#filter18_f_88_487)">
<path d="M22.6362 56.2756C22.6362 56.1182 22.6988 55.9671 22.8101 55.8558C22.9215 55.7444 23.0725 55.6819 23.23 55.6819H26.9041C27.0616 55.6819 27.2126 55.7444 27.324 55.8558C27.4353 55.9671 27.4979 56.1182 27.4979 56.2756V59.9498C27.4979 60.1072 27.4353 60.2583 27.324 60.3696C27.2126 60.481 27.0616 60.5435 26.9041 60.5435H23.23C23.0725 60.5435 22.9215 60.481 22.8101 60.3696C22.6988 60.2583 22.6362 60.1072 22.6362 59.9498V56.2756Z" stroke="#43346D" stroke-width="0.6"/>
<path d="M22.6362 56.2756C22.6362 56.1182 22.6988 55.9671 22.8101 55.8558C22.9215 55.7444 23.0725 55.6819 23.23 55.6819H26.9041C27.0616 55.6819 27.2126 55.7444 27.324 55.8558C27.4353 55.9671 27.4979 56.1182 27.4979 56.2756V59.9498C27.4979 60.1072 27.4353 60.2583 27.324 60.3696C27.2126 60.481 27.0616 60.5435 26.9041 60.5435H23.23C23.0725 60.5435 22.9215 60.481 22.8101 60.3696C22.6988 60.2583 22.6362 60.1072 22.6362 59.9498V56.2756Z" stroke="url(#paint10_linear_88_487)" stroke-width="0.6"/>
</g>
<g filter="url(#filter19_f_88_487)">
<path d="M35.625 56.2756C35.625 56.1182 35.6876 55.9671 35.7989 55.8558C35.9103 55.7444 36.0613 55.6819 36.2188 55.6819H39.8929C40.0503 55.6819 40.2014 55.7444 40.3127 55.8558C40.4241 55.9671 40.4866 56.1182 40.4866 56.2756V59.9498C40.4866 60.1072 40.4241 60.2583 40.3127 60.3696C40.2014 60.481 40.0503 60.5435 39.8929 60.5435H36.2188C36.0613 60.5435 35.9103 60.481 35.7989 60.3696C35.6876 60.2583 35.625 60.1072 35.625 59.9498V56.2756Z" stroke="#43346D" stroke-width="0.6"/>
<path d="M35.625 56.2756C35.625 56.1182 35.6876 55.9671 35.7989 55.8558C35.9103 55.7444 36.0613 55.6819 36.2188 55.6819H39.8929C40.0503 55.6819 40.2014 55.7444 40.3127 55.8558C40.4241 55.9671 40.4866 56.1182 40.4866 56.2756V59.9498C40.4866 60.1072 40.4241 60.2583 40.3127 60.3696C40.2014 60.481 40.0503 60.5435 39.8929 60.5435H36.2188C36.0613 60.5435 35.9103 60.481 35.7989 60.3696C35.6876 60.2583 35.625 60.1072 35.625 59.9498V56.2756Z" stroke="url(#paint11_linear_88_487)" stroke-width="0.6"/>
</g>
<g filter="url(#filter20_f_88_487)">
<path d="M48.6138 56.2756C48.6138 56.1182 48.6763 55.9671 48.7877 55.8558C48.899 55.7444 49.05 55.6819 49.2075 55.6819H52.8816C53.0391 55.6819 53.1901 55.7444 53.3015 55.8558C53.4128 55.9671 53.4754 56.1182 53.4754 56.2756V59.9498C53.4754 60.1072 53.4128 60.2583 53.3015 60.3696C53.1901 60.481 53.0391 60.5435 52.8816 60.5435H49.2075C49.05 60.5435 48.899 60.481 48.7877 60.3696C48.6763 60.2583 48.6138 60.1072 48.6138 59.9498V56.2756Z" stroke="#43346D" stroke-width="0.6"/>
<path d="M48.6138 56.2756C48.6138 56.1182 48.6763 55.9671 48.7877 55.8558C48.899 55.7444 49.05 55.6819 49.2075 55.6819H52.8816C53.0391 55.6819 53.1901 55.7444 53.3015 55.8558C53.4128 55.9671 53.4754 56.1182 53.4754 56.2756V59.9498C53.4754 60.1072 53.4128 60.2583 53.3015 60.3696C53.1901 60.481 53.0391 60.5435 52.8816 60.5435H49.2075C49.05 60.5435 48.899 60.481 48.7877 60.3696C48.6763 60.2583 48.6138 60.1072 48.6138 59.9498V56.2756Z" stroke="url(#paint12_linear_88_487)" stroke-width="0.6"/>
</g>
<g filter="url(#filter21_f_88_487)">
<path d="M61.6025 56.2756C61.6025 56.1182 61.665 55.9671 61.7764 55.8558C61.8877 55.7444 62.0387 55.6819 62.1962 55.6819H65.868C66.0254 55.6819 66.1765 55.7444 66.2878 55.8558C66.3992 55.9671 66.4617 56.1182 66.4617 56.2756V59.9498C66.4617 60.1072 66.3992 60.2583 66.2878 60.3696C66.1765 60.481 66.0254 60.5435 65.868 60.5435H62.1938C62.0364 60.5435 61.8854 60.481 61.774 60.3696C61.6627 60.2583 61.6001 60.1072 61.6001 59.9498L61.6025 56.2756Z" stroke="#43346D" stroke-width="0.6"/>
<path d="M61.6025 56.2756C61.6025 56.1182 61.665 55.9671 61.7764 55.8558C61.8877 55.7444 62.0387 55.6819 62.1962 55.6819H65.868C66.0254 55.6819 66.1765 55.7444 66.2878 55.8558C66.3992 55.9671 66.4617 56.1182 66.4617 56.2756V59.9498C66.4617 60.1072 66.3992 60.2583 66.2878 60.3696C66.1765 60.481 66.0254 60.5435 65.868 60.5435H62.1938C62.0364 60.5435 61.8854 60.481 61.774 60.3696C61.6627 60.2583 61.6001 60.1072 61.6001 59.9498L61.6025 56.2756Z" stroke="url(#paint13_linear_88_487)" stroke-width="0.6"/>
</g>
<path d="M9.64941 16.0503C9.64941 15.8928 9.71197 15.7418 9.82332 15.6304C9.93467 15.5191 10.0857 15.4565 10.2432 15.4565H13.9149C14.0724 15.4565 14.2234 15.5191 14.3348 15.6304C14.4461 15.7418 14.5087 15.8928 14.5087 16.0503V19.7244C14.5087 19.8819 14.4461 20.0329 14.3348 20.1443C14.2234 20.2556 14.0724 20.3182 13.9149 20.3182H10.2432C10.0857 20.3182 9.93467 20.2556 9.82332 20.1443C9.71197 20.0329 9.64941 19.8819 9.64941 19.7244V16.0503ZM22.6359 16.0503C22.6359 15.8928 22.6985 15.7418 22.8098 15.6304C22.9212 15.5191 23.0722 15.4565 23.2297 15.4565H26.9038C27.0613 15.4565 27.2123 15.5191 27.3236 15.6304C27.435 15.7418 27.4975 15.8928 27.4975 16.0503V19.7244C27.4975 19.8819 27.435 20.0329 27.3236 20.1443C27.2123 20.2556 27.0613 20.3182 26.9038 20.3182H23.2297C23.0722 20.3182 22.9212 20.2556 22.8098 20.1443C22.6985 20.0329 22.6359 19.8819 22.6359 19.7244V16.0503ZM35.6248 16.0503C35.6248 15.8928 35.6873 15.7418 35.7987 15.6304C35.91 15.5191 36.0611 15.4565 36.2185 15.4565H39.8927C40.0501 15.4565 40.2012 15.5191 40.3125 15.6304C40.4239 15.7418 40.4864 15.8928 40.4864 16.0503V19.7244C40.4864 19.8819 40.4239 20.0329 40.3125 20.1443C40.2012 20.2556 40.0501 20.3182 39.8927 20.3182H36.2185C36.0611 20.3182 35.91 20.2556 35.7987 20.1443C35.6873 20.0329 35.6248 19.8819 35.6248 19.7244V16.0503ZM48.6137 16.0503C48.6137 15.8928 48.6762 15.7418 48.7876 15.6304C48.8989 15.5191 49.0499 15.4565 49.2074 15.4565H52.8815C53.039 15.4565 53.19 15.5191 53.3014 15.6304C53.4127 15.7418 53.4753 15.8928 53.4753 16.0503V19.7244C53.4753 19.8819 53.4127 20.0329 53.3014 20.1443C53.19 20.2556 53.039 20.3182 52.8815 20.3182H49.2074C49.0499 20.3182 48.8989 20.2556 48.7876 20.1443C48.6762 20.0329 48.6137 19.8819 48.6137 19.7244V16.0503ZM61.6025 16.0503C61.6025 15.8928 61.6651 15.7418 61.7764 15.6304C61.8878 15.5191 62.0388 15.4565 62.1963 15.4565H65.868C66.0255 15.4565 66.1765 15.5191 66.2879 15.6304C66.3992 15.7418 66.4618 15.8928 66.4618 16.0503V19.7244C66.4618 19.8819 66.3992 20.0329 66.2879 20.1443C66.1765 20.2556 66.0255 20.3182 65.868 20.3182H62.1939C62.0364 20.3182 61.8854 20.2556 61.7741 20.1443C61.6627 20.0329 61.6002 19.8819 61.6002 19.7244L61.6025 16.0503Z" fill="#E5E5E5"/>
<g filter="url(#filter22_f_88_487)">
<path d="M9.64941 56.2756C9.64941 56.1182 9.71197 55.9671 9.82332 55.8558C9.93467 55.7444 10.0857 55.6819 10.2432 55.6819H13.9149C14.0724 55.6819 14.2234 55.7444 14.3348 55.8558C14.4461 55.9671 14.5087 56.1182 14.5087 56.2756V59.9498C14.5087 60.1072 14.4461 60.2583 14.3348 60.3696C14.2234 60.481 14.0724 60.5435 13.9149 60.5435H10.2432C10.0857 60.5435 9.93467 60.481 9.82332 60.3696C9.71197 60.2583 9.64941 60.1072 9.64941 59.9498V56.2756Z" stroke="#422E6F" stroke-width="0.1"/>
</g>
<g filter="url(#filter23_f_88_487)">
<path d="M22.6362 56.2756C22.6362 56.1182 22.6988 55.9671 22.8101 55.8558C22.9215 55.7444 23.0725 55.6819 23.23 55.6819H26.9041C27.0616 55.6819 27.2126 55.7444 27.324 55.8558C27.4353 55.9671 27.4979 56.1182 27.4979 56.2756V59.9498C27.4979 60.1072 27.4353 60.2583 27.324 60.3696C27.2126 60.481 27.0616 60.5435 26.9041 60.5435H23.23C23.0725 60.5435 22.9215 60.481 22.8101 60.3696C22.6988 60.2583 22.6362 60.1072 22.6362 59.9498V56.2756Z" stroke="#422E6F" stroke-width="0.1"/>
</g>
<g filter="url(#filter24_f_88_487)">
<path d="M35.644 56.2756C35.644 56.1182 35.7066 55.9671 35.8179 55.8558C35.9293 55.7444 36.0803 55.6819 36.2378 55.6819H39.9119C40.0694 55.6819 40.2204 55.7444 40.3318 55.8558C40.4431 55.9671 40.5057 56.1182 40.5057 56.2756V59.9498C40.5057 60.1072 40.4431 60.2583 40.3318 60.3696C40.2204 60.481 40.0694 60.5435 39.9119 60.5435H36.2378C36.0803 60.5435 35.9293 60.481 35.8179 60.3696C35.7066 60.2583 35.644 60.1072 35.644 59.9498V56.2756Z" stroke="#422E6F" stroke-width="0.1"/>
</g>
<g filter="url(#filter25_f_88_487)">
<path d="M48.6138 56.2756C48.6138 56.1182 48.6763 55.9671 48.7877 55.8558C48.899 55.7444 49.05 55.6819 49.2075 55.6819H52.8816C53.0391 55.6819 53.1901 55.7444 53.3015 55.8558C53.4128 55.9671 53.4754 56.1182 53.4754 56.2756V59.9498C53.4754 60.1072 53.4128 60.2583 53.3015 60.3696C53.1901 60.481 53.0391 60.5435 52.8816 60.5435H49.2075C49.05 60.5435 48.899 60.481 48.7877 60.3696C48.6763 60.2583 48.6138 60.1072 48.6138 59.9498V56.2756Z" stroke="#422E6F" stroke-width="0.1"/>
</g>
<g filter="url(#filter26_f_88_487)">
<path d="M61.6025 56.2756C61.6025 56.1182 61.665 55.9671 61.7764 55.8558C61.8877 55.7444 62.0387 55.6819 62.1962 55.6819H65.868C66.0254 55.6819 66.1765 55.7444 66.2878 55.8558C66.3992 55.9671 66.4617 56.1182 66.4617 56.2756V59.9498C66.4617 60.1072 66.3992 60.2583 66.2878 60.3696C66.1765 60.481 66.0254 60.5435 65.868 60.5435H62.1938C62.0364 60.5435 61.8854 60.481 61.774 60.3696C61.6627 60.2583 61.6001 60.1072 61.6001 59.9498L61.6025 56.2756Z" stroke="#422E6F" stroke-width="0.1"/>
</g>
<path d="M9.64941 56.2756C9.64941 56.1182 9.71197 55.9671 9.82332 55.8558C9.93467 55.7444 10.0857 55.6819 10.2432 55.6819H13.9149C14.0724 55.6819 14.2234 55.7444 14.3348 55.8558C14.4461 55.9671 14.5087 56.1182 14.5087 56.2756V59.9498C14.5087 60.1072 14.4461 60.2583 14.3348 60.3696C14.2234 60.481 14.0724 60.5435 13.9149 60.5435H10.2432C10.0857 60.5435 9.93467 60.481 9.82332 60.3696C9.71197 60.2583 9.64941 60.1072 9.64941 59.9498V56.2756ZM22.6359 56.2756C22.6359 56.1182 22.6985 55.9671 22.8098 55.8558C22.9212 55.7444 23.0722 55.6819 23.2297 55.6819H26.9038C27.0613 55.6819 27.2123 55.7444 27.3236 55.8558C27.435 55.9671 27.4975 56.1182 27.4975 56.2756V59.9498C27.4975 60.1072 27.435 60.2583 27.3236 60.3696C27.2123 60.481 27.0613 60.5435 26.9038 60.5435H23.2297C23.0722 60.5435 22.9212 60.481 22.8098 60.3696C22.6985 60.2583 22.6359 60.1072 22.6359 59.9498V56.2756ZM35.6248 56.2756C35.6248 56.1182 35.6873 55.9671 35.7987 55.8558C35.91 55.7444 36.0611 55.6819 36.2185 55.6819H39.8927C40.0501 55.6819 40.2012 55.7444 40.3125 55.8558C40.4239 55.9671 40.4864 56.1182 40.4864 56.2756V59.9498C40.4864 60.1072 40.4239 60.2583 40.3125 60.3696C40.2012 60.481 40.0501 60.5435 39.8927 60.5435H36.2185C36.0611 60.5435 35.91 60.481 35.7987 60.3696C35.6873 60.2583 35.6248 60.1072 35.6248 59.9498V56.2756ZM48.6137 56.2756C48.6137 56.1182 48.6762 55.9671 48.7876 55.8558C48.8989 55.7444 49.0499 55.6819 49.2074 55.6819H52.8815C53.039 55.6819 53.19 55.7444 53.3014 55.8558C53.4127 55.9671 53.4753 56.1182 53.4753 56.2756V59.9498C53.4753 60.1072 53.4127 60.2583 53.3014 60.3696C53.19 60.481 53.039 60.5435 52.8815 60.5435H49.2074C49.0499 60.5435 48.8989 60.481 48.7876 60.3696C48.6762 60.2583 48.6137 60.1072 48.6137 59.9498V56.2756ZM61.6025 56.2756C61.6025 56.1182 61.6651 55.9671 61.7764 55.8558C61.8878 55.7444 62.0388 55.6819 62.1963 55.6819H65.868C66.0255 55.6819 66.1765 55.7444 66.2879 55.8558C66.3992 55.9671 66.4618 56.1182 66.4618 56.2756V59.9498C66.4618 60.1072 66.3992 60.2583 66.2879 60.3696C66.1765 60.481 66.0255 60.5435 65.868 60.5435H62.1939C62.0364 60.5435 61.8854 60.481 61.7741 60.3696C61.6627 60.2583 61.6002 60.1072 61.6002 59.9498L61.6025 56.2756Z" fill="#E5E5E5"/>
<defs>
<filter id="filter0_iiii_88_487" x="4.67314" y="11.5014" width="66.9031" height="52.9236" filterUnits="userSpaceOnUse" color-interpolation-filters="sRGB">
<feFlood flood-opacity="0" result="BackgroundImageFix"/>
<feBlend mode="normal" in="SourceGraphic" in2="BackgroundImageFix" result="shape"/>
<feColorMatrix in="SourceAlpha" type="matrix" values="0 0 0 0 0 0 0 0 0 0 0 0 0 0 0 0 0 0 127 0" result="hardAlpha"/>
<feOffset dy="0.4"/>
<feGaussianBlur stdDeviation="0.15"/>
<feComposite in2="hardAlpha" operator="arithmetic" k2="-1" k3="1"/>
<feColorMatrix type="matrix" values="0 0 0 0 0.356863 0 0 0 0 0.317647 0 0 0 0 0.501961 0 0 0 1 0"/>
<feBlend mode="normal" in2="shape" result="effect1_innerShadow_88_487"/>
<feColorMatrix in="SourceAlpha" type="matrix" values="0 0 0 0 0 0 0 0 0 0 0 0 0 0 0 0 0 0 127 0" result="hardAlpha"/>
<feOffset dx="-0.4"/>
<feGaussianBlur stdDeviation="0.15"/>
<feComposite in2="hardAlpha" operator="arithmetic" k2="-1" k3="1"/>
<feColorMatrix type="matrix" values="0 0 0 0 0.447059 0 0 0 0 0.407843 0 0 0 0 0.572549 0 0 0 1 0"/>
<feBlend mode="normal" in2="effect1_innerShadow_88_487" result="effect2_innerShadow_88_487"/>
<feColorMatrix in="SourceAlpha" type="matrix" values="0 0 0 0 0 0 0 0 0 0 0 0 0 0 0 0 0 0 127 0" result="hardAlpha"/>
<feOffset dy="-0.4"/>
<feGaussianBlur stdDeviation="0.15"/>
<feComposite in2="hardAlpha" operator="arithmetic" k2="-1" k3="1"/>
<feColorMatrix type="matrix" values="0 0 0 0 0.376471 0 0 0 0 0.231373 0 0 0 0 0.584314 0 0 0 1 0"/>
<feBlend mode="normal" in2="effect2_innerShadow_88_487" result="effect3_innerShadow_88_487"/>
<feColorMatrix in="SourceAlpha" type="matrix" values="0 0 0 0 0 0 0 0 0 0 0 0 0 0 0 0 0 0 127 0" result="hardAlpha"/>
<feOffset dx="0.4"/>
<feGaussianBlur stdDeviation="0.2"/>
<feComposite in2="hardAlpha" operator="arithmetic" k2="-1" k3="1"/>
<feColorMatrix type="matrix" values="0 0 0 0 0.313726 0 0 0 0 0.262745 0 0 0 0 0.466667 0 0 0 1 0"/>
<feBlend mode="normal" in2="effect3_innerShadow_88_487" result="effect4_innerShadow_88_487"/>
</filter>
<filter id="filter1_f_88_487" x="5.50225" y="23.163" width="13.4174" height="29.674" filterUnits="userSpaceOnUse" color-interpolation-filters="sRGB">
<feFlood flood-opacity="0" result="BackgroundImageFix"/>
<feBlend mode="normal" in="SourceGraphic" in2="BackgroundImageFix" result="shape"/>
<feGaussianBlur stdDeviation="0.15" result="effect1_foregroundBlur_88_487"/>
</filter>
<filter id="filter2_f_88_487" x="57.2298" y="23.163" width="13.453" height="29.674" filterUnits="userSpaceOnUse" color-interpolation-filters="sRGB">
<feFlood flood-opacity="0" result="BackgroundImageFix"/>
<feBlend mode="normal" in="SourceGraphic" in2="BackgroundImageFix" result="shape"/>
<feGaussianBlur stdDeviation="0.15" result="effect1_foregroundBlur_88_487"/>
</filter>
<filter id="filter3_f_88_487" x="22.9939" y="23.163" width="30.0116" height="29.674" filterUnits="userSpaceOnUse" color-interpolation-filters="sRGB">
<feFlood flood-opacity="0" result="BackgroundImageFix"/>
<feBlend mode="normal" in="SourceGraphic" in2="BackgroundImageFix" result="shape"/>
<feGaussianBlur stdDeviation="0.15" result="effect1_foregroundBlur_88_487"/>
</filter>
<filter id="filter4_i_88_487" x="57.8525" y="23.788" width="14.3237" height="28.424" filterUnits="userSpaceOnUse" color-interpolation-filters="sRGB">
<feFlood flood-opacity="0" result="BackgroundImageFix"/>
<feBlend mode="normal" in="SourceGraphic" in2="BackgroundImageFix" result="shape"/>
<feColorMatrix in="SourceAlpha" type="matrix" values="0 0 0 0 0 0 0 0 0 0 0 0 0 0 0 0 0 0 127 0" result="hardAlpha"/>
<feOffset dx="1"/>
<feGaussianBlur stdDeviation="1.5"/>
<feComposite in2="hardAlpha" operator="arithmetic" k2="-1" k3="1"/>
<feColorMatrix type="matrix" values="0 0 0 0 0.321569 0 0 0 0 0.615686 0 0 0 0 0.764706 0 0 0 1 0"/>
<feBlend mode="normal" in2="shape" result="effect1_innerShadow_88_487"/>
</filter>
<filter id="filter5_i_88_487" x="23.6191" y="23.788" width="28.7612" height="28.424" filterUnits="userSpaceOnUse" color-interpolation-filters="sRGB">
<feFlood flood-opacity="0" result="BackgroundImageFix"/>
<feBlend mode="normal" in="SourceGraphic" in2="BackgroundImageFix" result="shape"/>
<feColorMatrix in="SourceAlpha" type="matrix" values="0 0 0 0 0 0 0 0 0 0 0 0 0 0 0 0 0 0 127 0" result="hardAlpha"/>
<feOffset/>
<feGaussianBlur stdDeviation="2"/>
<feComposite in2="hardAlpha" operator="arithmetic" k2="-1" k3="1"/>
<feColorMatrix type="matrix" values="0 0 0 0 0.321569 0 0 0 0 0.615686 0 0 0 0 0.764706 0 0 0 1 0"/>
<feBlend mode="normal" in2="shape" result="effect1_innerShadow_88_487"/>
</filter>
<filter id="filter6_i_88_487" x="3.97314" y="23.788" width="14.3237" height="28.424" filterUnits="userSpaceOnUse" color-interpolation-filters="sRGB">
<feFlood flood-opacity="0" result="BackgroundImageFix"/>
<feBlend mode="normal" in="SourceGraphic" in2="BackgroundImageFix" result="shape"/>
<feColorMatrix in="SourceAlpha" type="matrix" values="0 0 0 0 0 0 0 0 0 0 0 0 0 0 0 0 0 0 127 0" result="hardAlpha"/>
<feOffset dx="-1"/>
<feGaussianBlur stdDeviation="1.5"/>
<feComposite in2="hardAlpha" operator="arithmetic" k2="-1" k3="1"/>
<feColorMatrix type="matrix" values="0 0 0 0 0.321569 0 0 0 0 0.615686 0 0 0 0 0.764706 0 0 0 1 0"/>
<feBlend mode="normal" in2="shape" result="effect1_innerShadow_88_487"/>
</filter>
<filter id="filter7_f_88_487" x="9.09961" y="14.9065" width="5.95898" height="5.96167" filterUnits="userSpaceOnUse" color-interpolation-filters="sRGB">
<feFlood flood-opacity="0" result="BackgroundImageFix"/>
<feBlend mode="normal" in="SourceGraphic" in2="BackgroundImageFix" result="shape"/>
<feGaussianBlur stdDeviation="0.125" result="effect1_foregroundBlur_88_487"/>
</filter>
<filter id="filter8_f_88_487" x="9.44961" y="15.2565" width="5.25898" height="5.26167" filterUnits="userSpaceOnUse" color-interpolation-filters="sRGB">
<feFlood flood-opacity="0" result="BackgroundImageFix"/>
<feBlend mode="normal" in="SourceGraphic" in2="BackgroundImageFix" result="shape"/>
<feGaussianBlur stdDeviation="0.075" result="effect1_foregroundBlur_88_487"/>
</filter>
<filter id="filter9_f_88_487" x="22.0864" y="14.9065" width="5.96143" height="5.96167" filterUnits="userSpaceOnUse" color-interpolation-filters="sRGB">
<feFlood flood-opacity="0" result="BackgroundImageFix"/>
<feBlend mode="normal" in="SourceGraphic" in2="BackgroundImageFix" result="shape"/>
<feGaussianBlur stdDeviation="0.125" result="effect1_foregroundBlur_88_487"/>
</filter>
<filter id="filter10_f_88_487" x="22.4364" y="15.2565" width="5.26143" height="5.26167" filterUnits="userSpaceOnUse" color-interpolation-filters="sRGB">
<feFlood flood-opacity="0" result="BackgroundImageFix"/>
<feBlend mode="normal" in="SourceGraphic" in2="BackgroundImageFix" result="shape"/>
<feGaussianBlur stdDeviation="0.075" result="effect1_foregroundBlur_88_487"/>
</filter>
<filter id="filter11_f_88_487" x="35.0942" y="14.9065" width="5.96143" height="5.96167" filterUnits="userSpaceOnUse" color-interpolation-filters="sRGB">
<feFlood flood-opacity="0" result="BackgroundImageFix"/>
<feBlend mode="normal" in="SourceGraphic" in2="BackgroundImageFix" result="shape"/>
<feGaussianBlur stdDeviation="0.125" result="effect1_foregroundBlur_88_487"/>
</filter>
<filter id="filter12_f_88_487" x="35.4442" y="15.2565" width="5.26143" height="5.26167" filterUnits="userSpaceOnUse" color-interpolation-filters="sRGB">
<feFlood flood-opacity="0" result="BackgroundImageFix"/>
<feBlend mode="normal" in="SourceGraphic" in2="BackgroundImageFix" result="shape"/>
<feGaussianBlur stdDeviation="0.075" result="effect1_foregroundBlur_88_487"/>
</filter>
<filter id="filter13_f_88_487" x="48.064" y="14.9065" width="5.96143" height="5.96167" filterUnits="userSpaceOnUse" color-interpolation-filters="sRGB">
<feFlood flood-opacity="0" result="BackgroundImageFix"/>
<feBlend mode="normal" in="SourceGraphic" in2="BackgroundImageFix" result="shape"/>
<feGaussianBlur stdDeviation="0.125" result="effect1_foregroundBlur_88_487"/>
</filter>
<filter id="filter14_f_88_487" x="48.414" y="15.2565" width="5.26143" height="5.26167" filterUnits="userSpaceOnUse" color-interpolation-filters="sRGB">
<feFlood flood-opacity="0" result="BackgroundImageFix"/>
<feBlend mode="normal" in="SourceGraphic" in2="BackgroundImageFix" result="shape"/>
<feGaussianBlur stdDeviation="0.075" result="effect1_foregroundBlur_88_487"/>
</filter>
<filter id="filter15_f_88_487" x="61.0503" y="14.9065" width="5.96143" height="5.96167" filterUnits="userSpaceOnUse" color-interpolation-filters="sRGB">
<feFlood flood-opacity="0" result="BackgroundImageFix"/>
<feBlend mode="normal" in="SourceGraphic" in2="BackgroundImageFix" result="shape"/>
<feGaussianBlur stdDeviation="0.125" result="effect1_foregroundBlur_88_487"/>
</filter>
<filter id="filter16_f_88_487" x="61.4003" y="15.2565" width="5.26143" height="5.26167" filterUnits="userSpaceOnUse" color-interpolation-filters="sRGB">
<feFlood flood-opacity="0" result="BackgroundImageFix"/>
<feBlend mode="normal" in="SourceGraphic" in2="BackgroundImageFix" result="shape"/>
<feGaussianBlur stdDeviation="0.075" result="effect1_foregroundBlur_88_487"/>
</filter>
<filter id="filter17_f_88_487" x="9.09961" y="55.1318" width="5.95898" height="5.96167" filterUnits="userSpaceOnUse" color-interpolation-filters="sRGB">
<feFlood flood-opacity="0" result="BackgroundImageFix"/>
<feBlend mode="normal" in="SourceGraphic" in2="BackgroundImageFix" result="shape"/>
<feGaussianBlur stdDeviation="0.125" result="effect1_foregroundBlur_88_487"/>
</filter>
<filter id="filter18_f_88_487" x="22.0864" y="55.1318" width="5.96143" height="5.96167" filterUnits="userSpaceOnUse" color-interpolation-filters="sRGB">
<feFlood flood-opacity="0" result="BackgroundImageFix"/>
<feBlend mode="normal" in="SourceGraphic" in2="BackgroundImageFix" result="shape"/>
<feGaussianBlur stdDeviation="0.125" result="effect1_foregroundBlur_88_487"/>
</filter>
<filter id="filter19_f_88_487" x="35.0752" y="55.1318" width="5.96143" height="5.96167" filterUnits="userSpaceOnUse" color-interpolation-filters="sRGB">
<feFlood flood-opacity="0" result="BackgroundImageFix"/>
<feBlend mode="normal" in="SourceGraphic" in2="BackgroundImageFix" result="shape"/>
<feGaussianBlur stdDeviation="0.125" result="effect1_foregroundBlur_88_487"/>
</filter>
<filter id="filter20_f_88_487" x="48.064" y="55.1318" width="5.96143" height="5.96167" filterUnits="userSpaceOnUse" color-interpolation-filters="sRGB">
<feFlood flood-opacity="0" result="BackgroundImageFix"/>
<feBlend mode="normal" in="SourceGraphic" in2="BackgroundImageFix" result="shape"/>
<feGaussianBlur stdDeviation="0.125" result="effect1_foregroundBlur_88_487"/>
</filter>
<filter id="filter21_f_88_487" x="61.0503" y="55.1318" width="5.96143" height="5.96167" filterUnits="userSpaceOnUse" color-interpolation-filters="sRGB">
<feFlood flood-opacity="0" result="BackgroundImageFix"/>
<feBlend mode="normal" in="SourceGraphic" in2="BackgroundImageFix" result="shape"/>
<feGaussianBlur stdDeviation="0.125" result="effect1_foregroundBlur_88_487"/>
</filter>
<filter id="filter22_f_88_487" x="9.44961" y="55.4818" width="5.25898" height="5.26167" filterUnits="userSpaceOnUse" color-interpolation-filters="sRGB">
<feFlood flood-opacity="0" result="BackgroundImageFix"/>
<feBlend mode="normal" in="SourceGraphic" in2="BackgroundImageFix" result="shape"/>
<feGaussianBlur stdDeviation="0.075" result="effect1_foregroundBlur_88_487"/>
</filter>
<filter id="filter23_f_88_487" x="22.4364" y="55.4818" width="5.26143" height="5.26167" filterUnits="userSpaceOnUse" color-interpolation-filters="sRGB">
<feFlood flood-opacity="0" result="BackgroundImageFix"/>
<feBlend mode="normal" in="SourceGraphic" in2="BackgroundImageFix" result="shape"/>
<feGaussianBlur stdDeviation="0.075" result="effect1_foregroundBlur_88_487"/>
</filter>
<filter id="filter24_f_88_487" x="35.4442" y="55.4818" width="5.26143" height="5.26167" filterUnits="userSpaceOnUse" color-interpolation-filters="sRGB">
<feFlood flood-opacity="0" result="BackgroundImageFix"/>
<feBlend mode="normal" in="SourceGraphic" in2="BackgroundImageFix" result="shape"/>
<feGaussianBlur stdDeviation="0.075" result="effect1_foregroundBlur_88_487"/>
</filter>
<filter id="filter25_f_88_487" x="48.414" y="55.4818" width="5.26143" height="5.26167" filterUnits="userSpaceOnUse" color-interpolation-filters="sRGB">
<feFlood flood-opacity="0" result="BackgroundImageFix"/>
<feBlend mode="normal" in="SourceGraphic" in2="BackgroundImageFix" result="shape"/>
<feGaussianBlur stdDeviation="0.075" result="effect1_foregroundBlur_88_487"/>
</filter>
<filter id="filter26_f_88_487" x="61.4003" y="55.4818" width="5.26143" height="5.26167" filterUnits="userSpaceOnUse" color-interpolation-filters="sRGB">
<feFlood flood-opacity="0" result="BackgroundImageFix"/>
<feBlend mode="normal" in="SourceGraphic" in2="BackgroundImageFix" result="shape"/>
<feGaussianBlur stdDeviation="0.075" result="effect1_foregroundBlur_88_487"/>
</filter>
<linearGradient id="paint0_linear_88_487" x1="6.57625" y1="50.901" x2="14.5681" y2="50.3476" gradientUnits="userSpaceOnUse">
<stop stop-color="#564D7C"/>
<stop offset="1" stop-color="#564D7C" stop-opacity="0"/>
</linearGradient>
<linearGradient id="paint1_linear_88_487" x1="58.3062" y1="50.901" x2="61.275" y2="50.6611" gradientUnits="userSpaceOnUse">
<stop stop-color="#7D769C"/>
<stop offset="1" stop-color="#7D769C" stop-opacity="0"/>
</linearGradient>
<linearGradient id="paint2_linear_88_487" x1="24.6879" y1="50.901" x2="31.4804" y2="49.6066" gradientUnits="userSpaceOnUse">
<stop stop-color="#7D769C"/>
<stop offset="1" stop-color="#7D769C" stop-opacity="0"/>
</linearGradient>
<linearGradient id="paint3_linear_88_487" x1="73.1808" y1="52.212" x2="63.3839" y2="52.212" gradientUnits="userSpaceOnUse">
<stop stop-color="#87CDED"/>
<stop offset="1" stop-color="#87CDED" stop-opacity="0"/>
</linearGradient>
<linearGradient id="paint4_linear_88_487" x1="9.27654" y1="20.3182" x2="11.4307" y2="20.0759" gradientUnits="userSpaceOnUse">
<stop stop-color="#7A7294"/>
<stop offset="1" stop-color="#7A7294" stop-opacity="0"/>
</linearGradient>
<linearGradient id="paint5_linear_88_487" x1="22.2657" y1="20.3182" x2="24.4175" y2="20.0759" gradientUnits="userSpaceOnUse">
<stop stop-color="#7A7294"/>
<stop offset="1" stop-color="#7A7294" stop-opacity="0"/>
</linearGradient>
<linearGradient id="paint6_linear_88_487" x1="35.2735" y1="20.3182" x2="37.4253" y2="20.0759" gradientUnits="userSpaceOnUse">
<stop stop-color="#7A7294"/>
<stop offset="1" stop-color="#7A7294" stop-opacity="0"/>
</linearGradient>
<linearGradient id="paint7_linear_88_487" x1="48.2433" y1="20.3182" x2="50.395" y2="20.0759" gradientUnits="userSpaceOnUse">
<stop stop-color="#7A7294"/>
<stop offset="1" stop-color="#7A7294" stop-opacity="0"/>
</linearGradient>
<linearGradient id="paint8_linear_88_487" x1="61.2296" y1="20.3182" x2="63.3837" y2="20.0759" gradientUnits="userSpaceOnUse">
<stop stop-color="#7A7294"/>
<stop offset="1" stop-color="#7A7294" stop-opacity="0"/>
</linearGradient>
<linearGradient id="paint9_linear_88_487" x1="9.27654" y1="60.5435" x2="11.4307" y2="60.3036" gradientUnits="userSpaceOnUse">
<stop stop-color="#7A7294"/>
<stop offset="1" stop-color="#7A7294" stop-opacity="0"/>
</linearGradient>
<linearGradient id="paint10_linear_88_487" x1="22.2657" y1="60.5435" x2="24.4175" y2="60.3036" gradientUnits="userSpaceOnUse">
<stop stop-color="#7A7294"/>
<stop offset="1" stop-color="#7A7294" stop-opacity="0"/>
</linearGradient>
<linearGradient id="paint11_linear_88_487" x1="35.2545" y1="60.5435" x2="37.4063" y2="60.3036" gradientUnits="userSpaceOnUse">
<stop stop-color="#7A7294"/>
<stop offset="1" stop-color="#7A7294" stop-opacity="0"/>
</linearGradient>
<linearGradient id="paint12_linear_88_487" x1="48.2433" y1="60.5435" x2="50.395" y2="60.3036" gradientUnits="userSpaceOnUse">
<stop stop-color="#7A7294"/>
<stop offset="1" stop-color="#7A7294" stop-opacity="0"/>
</linearGradient>
<linearGradient id="paint13_linear_88_487" x1="61.2296" y1="60.5435" x2="63.3837" y2="60.3036" gradientUnits="userSpaceOnUse">
<stop stop-color="#7A7294"/>
<stop offset="1" stop-color="#7A7294" stop-opacity="0"/>
</linearGradient>
</defs>
</svg>
