<svg width="150" height="150" viewBox="0 0 150 150" fill="none" xmlns="http://www.w3.org/2000/svg">
<g filter="url(#filter0_i_84_2037)">
<path d="M135.914 63.7782C132.638 59.9907 126.244 57.736 120.459 60.7407C114.67 63.7407 110.109 67.1907 108.375 68.8172C108.375 68.8172 105.333 70.8985 105.333 67.0125V23.6063C105.333 15.7688 100.059 9.68909 93.0282 9.68909C86.4376 9.68909 80.7235 14.9625 80.7235 23.611L80.5454 58.7953H41.761V40.1578C41.761 32.3953 36.3375 26.6578 29.6016 26.6578C22.861 26.6578 17.3485 33.2578 17.3485 39.6282C17.3485 46.0032 17.2688 92.2172 17.2688 92.2172C17.2688 125.513 37.5563 140.311 62.5172 140.311C75.2157 140.311 87.8766 134.592 96.2157 125.817C106.8 114.684 103.542 110.288 114.783 98.3157C120.455 91.8329 129.497 85.6266 134.447 81.5391C139.402 77.461 140.344 68.9063 135.914 63.7782Z" fill="#FFBF40"/>
<path d="M135.914 63.7782C132.638 59.9907 126.244 57.736 120.459 60.7407C114.67 63.7407 110.109 67.1907 108.375 68.8172C108.375 68.8172 105.333 70.8985 105.333 67.0125V23.6063C105.333 15.7688 100.059 9.68909 93.0282 9.68909C86.4376 9.68909 80.7235 14.9625 80.7235 23.611L80.5454 58.7953H41.761V40.1578C41.761 32.3953 36.3375 26.6578 29.6016 26.6578C22.861 26.6578 17.3485 33.2578 17.3485 39.6282C17.3485 46.0032 17.2688 92.2172 17.2688 92.2172C17.2688 125.513 37.5563 140.311 62.5172 140.311C75.2157 140.311 87.8766 134.592 96.2157 125.817C106.8 114.684 103.542 110.288 114.783 98.3157C120.455 91.8329 129.497 85.6266 134.447 81.5391C139.402 77.461 140.344 68.9063 135.914 63.7782Z" fill="url(#paint0_radial_84_2037)"/>
<path d="M135.914 63.7782C132.638 59.9907 126.244 57.736 120.459 60.7407C114.67 63.7407 110.109 67.1907 108.375 68.8172C108.375 68.8172 105.333 70.8985 105.333 67.0125V23.6063C105.333 15.7688 100.059 9.68909 93.0282 9.68909C86.4376 9.68909 80.7235 14.9625 80.7235 23.611L80.5454 58.7953H41.761V40.1578C41.761 32.3953 36.3375 26.6578 29.6016 26.6578C22.861 26.6578 17.3485 33.2578 17.3485 39.6282C17.3485 46.0032 17.2688 92.2172 17.2688 92.2172C17.2688 125.513 37.5563 140.311 62.5172 140.311C75.2157 140.311 87.8766 134.592 96.2157 125.817C106.8 114.684 103.542 110.288 114.783 98.3157C120.455 91.8329 129.497 85.6266 134.447 81.5391C139.402 77.461 140.344 68.9063 135.914 63.7782Z" fill="url(#paint1_radial_84_2037)"/>
</g>
<g filter="url(#filter1_f_84_2037)">
<path d="M75 62.6813C75 57.8971 71.1217 54.0188 66.3376 54.0188C61.5534 54.0188 57.675 57.8971 57.675 62.6813V73.3219C57.675 78.1061 61.5534 81.9844 66.3376 81.9844C71.1217 81.9844 75 78.1061 75 73.3219V62.6813Z" fill="#B44B10"/>
</g>
<g filter="url(#filter2_f_84_2037)">
<path d="M46.411 47.9719H46.4063C40.7005 47.9719 36.0751 52.5974 36.0751 58.3032V71.6532C36.0751 77.359 40.7005 81.9844 46.4063 81.9844H46.411C52.1168 81.9844 56.7423 77.359 56.7423 71.6532V58.3032C56.7423 52.5974 52.1168 47.9719 46.411 47.9719Z" fill="#B44B10"/>
</g>
<path d="M120.459 60.7406C126.244 57.7406 132.638 59.9906 135.914 63.7781C140.344 68.9062 139.402 77.4562 134.447 81.5437C133.144 82.6219 131.555 83.8406 129.816 85.1812C124.964 88.9172 118.964 93.5391 114.783 98.3156C111.066 102.277 108.933 105.408 107.363 108.225C100.369 90.9281 102.502 76.4531 105.642 68.6765C106.416 70.1578 108.375 68.8172 108.375 68.8172C110.109 67.1906 114.67 63.7453 120.459 60.7406Z" fill="#F4B616"/>
<path d="M120.459 60.7406C126.244 57.7406 132.638 59.9906 135.914 63.7781C140.344 68.9062 139.402 77.4562 134.447 81.5437C133.144 82.6219 131.555 83.8406 129.816 85.1812C124.964 88.9172 118.964 93.5391 114.783 98.3156C111.066 102.277 108.933 105.408 107.363 108.225C100.369 90.9281 102.502 76.4531 105.642 68.6765C106.416 70.1578 108.375 68.8172 108.375 68.8172C110.109 67.1906 114.67 63.7453 120.459 60.7406Z" fill="url(#paint2_radial_84_2037)"/>
<path d="M120.459 60.7406C126.244 57.7406 132.638 59.9906 135.914 63.7781C140.344 68.9062 139.402 77.4562 134.447 81.5437C133.144 82.6219 131.555 83.8406 129.816 85.1812C124.964 88.9172 118.964 93.5391 114.783 98.3156C111.066 102.277 108.933 105.408 107.363 108.225C100.369 90.9281 102.502 76.4531 105.642 68.6765C106.416 70.1578 108.375 68.8172 108.375 68.8172C110.109 67.1906 114.67 63.7453 120.459 60.7406Z" fill="url(#paint3_radial_84_2037)"/>
<path d="M120.459 60.7406C126.244 57.7406 132.638 59.9906 135.914 63.7781C140.344 68.9062 139.402 77.4562 134.447 81.5437C133.144 82.6219 131.555 83.8406 129.816 85.1812C124.964 88.9172 118.964 93.5391 114.783 98.3156C111.066 102.277 108.933 105.408 107.363 108.225C100.369 90.9281 102.502 76.4531 105.642 68.6765C106.416 70.1578 108.375 68.8172 108.375 68.8172C110.109 67.1906 114.67 63.7453 120.459 60.7406Z" fill="url(#paint4_radial_84_2037)"/>
<path d="M120.459 60.7406C126.244 57.7406 132.638 59.9906 135.914 63.7781C140.344 68.9062 139.402 77.4562 134.447 81.5437C133.144 82.6219 131.555 83.8406 129.816 85.1812C124.964 88.9172 118.964 93.5391 114.783 98.3156C111.066 102.277 108.933 105.408 107.363 108.225C100.369 90.9281 102.502 76.4531 105.642 68.6765C106.416 70.1578 108.375 68.8172 108.375 68.8172C110.109 67.1906 114.67 63.7453 120.459 60.7406Z" fill="url(#paint5_radial_84_2037)"/>
<path d="M105.356 58.7813H80.5688L80.747 23.6063C80.747 14.9625 86.461 9.68909 93.0517 9.68909C100.083 9.68909 105.356 15.7688 105.356 23.611V58.7813Z" fill="url(#paint6_linear_84_2037)"/>
<path d="M105.356 58.7813H80.5688L80.747 23.6063C80.747 14.9625 86.461 9.68909 93.0517 9.68909C100.083 9.68909 105.356 15.7688 105.356 23.611V58.7813Z" fill="url(#paint7_linear_84_2037)"/>
<path d="M105.356 58.7813H80.5688L80.747 23.6063C80.747 14.9625 86.461 9.68909 93.0517 9.68909C100.083 9.68909 105.356 15.7688 105.356 23.611V58.7813Z" fill="url(#paint8_radial_84_2037)"/>
<path d="M105.356 58.7813H80.5688L80.747 23.6063C80.747 14.9625 86.461 9.68909 93.0517 9.68909C100.083 9.68909 105.356 15.7688 105.356 23.611V58.7813Z" fill="url(#paint9_radial_84_2037)"/>
<g filter="url(#filter3_i_84_2037)">
<path d="M50.475 41.8079H50.0344C43.4613 41.8079 38.1328 47.1364 38.1328 53.7094V68.2126C38.1328 74.7856 43.4613 80.1141 50.0344 80.1141H50.475C57.048 80.1141 62.3766 74.7856 62.3766 68.2126V53.7094C62.3766 47.1364 57.048 41.8079 50.475 41.8079Z" fill="url(#paint10_linear_84_2037)"/>
<path d="M50.475 41.8079H50.0344C43.4613 41.8079 38.1328 47.1364 38.1328 53.7094V68.2126C38.1328 74.7856 43.4613 80.1141 50.0344 80.1141H50.475C57.048 80.1141 62.3766 74.7856 62.3766 68.2126V53.7094C62.3766 47.1364 57.048 41.8079 50.475 41.8079Z" fill="url(#paint11_linear_84_2037)"/>
<path d="M50.475 41.8079H50.0344C43.4613 41.8079 38.1328 47.1364 38.1328 53.7094V68.2126C38.1328 74.7856 43.4613 80.1141 50.0344 80.1141H50.475C57.048 80.1141 62.3766 74.7856 62.3766 68.2126V53.7094C62.3766 47.1364 57.048 41.8079 50.475 41.8079Z" fill="url(#paint12_radial_84_2037)"/>
</g>
<g filter="url(#filter4_i_84_2037)">
<path d="M83.3251 46.3829C83.3251 39.8098 77.9966 34.4813 71.4235 34.4813C64.8505 34.4813 59.522 39.8098 59.522 46.3829V68.2079C59.522 74.7809 64.8505 80.1094 71.4235 80.1094C77.9966 80.1094 83.3251 74.7809 83.3251 68.2079V46.3829Z" fill="url(#paint13_linear_84_2037)"/>
</g>
<g filter="url(#filter5_f_84_2037)">
<path d="M100.631 21.1641C100.631 19.0464 98.9146 17.3297 96.7969 17.3297C94.6792 17.3297 92.9625 19.0464 92.9625 21.1641V62.4516C92.9625 64.5693 94.6792 66.286 96.7969 66.286C98.9146 66.286 100.631 64.5693 100.631 62.4516V21.1641Z" fill="url(#paint14_linear_84_2037)"/>
</g>
<g filter="url(#filter6_f_84_2037)">
<path d="M79.6266 46.0594C79.6266 44.1592 78.0862 42.6188 76.186 42.6188C74.2858 42.6188 72.7454 44.1592 72.7454 46.0594V68.5406C72.7454 70.4409 74.2858 71.9813 76.186 71.9813C78.0862 71.9813 79.6266 70.4409 79.6266 68.5406V46.0594Z" fill="#FFE948"/>
</g>
<defs>
<filter id="filter0_i_84_2037" x="17.2688" y="9.03909" width="122.139" height="131.272" filterUnits="userSpaceOnUse" color-interpolation-filters="sRGB">
<feFlood flood-opacity="0" result="BackgroundImageFix"/>
<feBlend mode="normal" in="SourceGraphic" in2="BackgroundImageFix" result="shape"/>
<feColorMatrix in="SourceAlpha" type="matrix" values="0 0 0 0 0 0 0 0 0 0 0 0 0 0 0 0 0 0 127 0" result="hardAlpha"/>
<feOffset dx="0.65" dy="-0.65"/>
<feGaussianBlur stdDeviation="1"/>
<feComposite in2="hardAlpha" operator="arithmetic" k2="-1" k3="1"/>
<feColorMatrix type="matrix" values="0 0 0 0 0.94902 0 0 0 0 0.486275 0 0 0 0 0.380392 0 0 0 1 0"/>
<feBlend mode="normal" in2="shape" result="effect1_innerShadow_84_2037"/>
</filter>
<filter id="filter1_f_84_2037" x="56.175" y="52.5188" width="20.325" height="30.9656" filterUnits="userSpaceOnUse" color-interpolation-filters="sRGB">
<feFlood flood-opacity="0" result="BackgroundImageFix"/>
<feBlend mode="normal" in="SourceGraphic" in2="BackgroundImageFix" result="shape"/>
<feGaussianBlur stdDeviation="0.75" result="effect1_foregroundBlur_84_2037"/>
</filter>
<filter id="filter2_f_84_2037" x="34.0751" y="45.9719" width="24.6672" height="38.0125" filterUnits="userSpaceOnUse" color-interpolation-filters="sRGB">
<feFlood flood-opacity="0" result="BackgroundImageFix"/>
<feBlend mode="normal" in="SourceGraphic" in2="BackgroundImageFix" result="shape"/>
<feGaussianBlur stdDeviation="1" result="effect1_foregroundBlur_84_2037"/>
</filter>
<filter id="filter3_i_84_2037" x="38.1328" y="41.0579" width="24.9938" height="39.0563" filterUnits="userSpaceOnUse" color-interpolation-filters="sRGB">
<feFlood flood-opacity="0" result="BackgroundImageFix"/>
<feBlend mode="normal" in="SourceGraphic" in2="BackgroundImageFix" result="shape"/>
<feColorMatrix in="SourceAlpha" type="matrix" values="0 0 0 0 0 0 0 0 0 0 0 0 0 0 0 0 0 0 127 0" result="hardAlpha"/>
<feOffset dx="0.75" dy="-0.75"/>
<feGaussianBlur stdDeviation="1"/>
<feComposite in2="hardAlpha" operator="arithmetic" k2="-1" k3="1"/>
<feColorMatrix type="matrix" values="0 0 0 0 0.921569 0 0 0 0 0.533333 0 0 0 0 0.223529 0 0 0 1 0"/>
<feBlend mode="normal" in2="shape" result="effect1_innerShadow_84_2037"/>
</filter>
<filter id="filter4_i_84_2037" x="59.522" y="33.7313" width="24.5531" height="46.3782" filterUnits="userSpaceOnUse" color-interpolation-filters="sRGB">
<feFlood flood-opacity="0" result="BackgroundImageFix"/>
<feBlend mode="normal" in="SourceGraphic" in2="BackgroundImageFix" result="shape"/>
<feColorMatrix in="SourceAlpha" type="matrix" values="0 0 0 0 0 0 0 0 0 0 0 0 0 0 0 0 0 0 127 0" result="hardAlpha"/>
<feOffset dx="0.75" dy="-0.75"/>
<feGaussianBlur stdDeviation="1"/>
<feComposite in2="hardAlpha" operator="arithmetic" k2="-1" k3="1"/>
<feColorMatrix type="matrix" values="0 0 0 0 0.921569 0 0 0 0 0.533333 0 0 0 0 0.223529 0 0 0 1 0"/>
<feBlend mode="normal" in2="shape" result="effect1_innerShadow_84_2037"/>
</filter>
<filter id="filter5_f_84_2037" x="91.4625" y="15.8297" width="10.6687" height="51.9563" filterUnits="userSpaceOnUse" color-interpolation-filters="sRGB">
<feFlood flood-opacity="0" result="BackgroundImageFix"/>
<feBlend mode="normal" in="SourceGraphic" in2="BackgroundImageFix" result="shape"/>
<feGaussianBlur stdDeviation="0.75" result="effect1_foregroundBlur_84_2037"/>
</filter>
<filter id="filter6_f_84_2037" x="70.7454" y="40.6188" width="10.8812" height="33.3625" filterUnits="userSpaceOnUse" color-interpolation-filters="sRGB">
<feFlood flood-opacity="0" result="BackgroundImageFix"/>
<feBlend mode="normal" in="SourceGraphic" in2="BackgroundImageFix" result="shape"/>
<feGaussianBlur stdDeviation="1" result="effect1_foregroundBlur_84_2037"/>
</filter>
<radialGradient id="paint0_radial_84_2037" cx="0" cy="0" r="1" gradientUnits="userSpaceOnUse" gradientTransform="translate(46.1813 56.1938) rotate(162.775) scale(30.2708 16.3461)">
<stop stop-color="#E79330"/>
<stop offset="1" stop-color="#E79330" stop-opacity="0"/>
</radialGradient>
<radialGradient id="paint1_radial_84_2037" cx="0" cy="0" r="1" gradientUnits="userSpaceOnUse" gradientTransform="translate(110.728 85.9407) rotate(161.288) scale(44.2032 59.9812)">
<stop stop-color="#FFE542"/>
<stop offset="1" stop-color="#FFE542" stop-opacity="0"/>
</radialGradient>
<radialGradient id="paint2_radial_84_2037" cx="0" cy="0" r="1" gradientUnits="userSpaceOnUse" gradientTransform="translate(142.803 83.7855) rotate(170.185) scale(38.3769 60.2583)">
<stop offset="0.693" stop-color="#FFDC42" stop-opacity="0"/>
<stop offset="1" stop-color="#FFDC42"/>
</radialGradient>
<radialGradient id="paint3_radial_84_2037" cx="0" cy="0" r="1" gradientUnits="userSpaceOnUse" gradientTransform="translate(125.421 92.5256) rotate(135.167) scale(40.9449 9.07087)">
<stop stop-color="#F2A159"/>
<stop offset="1" stop-color="#F2A159" stop-opacity="0"/>
</radialGradient>
<radialGradient id="paint4_radial_84_2037" cx="0" cy="0" r="1" gradientUnits="userSpaceOnUse" gradientTransform="translate(138.755 64.5) rotate(152.247) scale(14.5016 16.5523)">
<stop offset="0.103" stop-color="#FFE847"/>
<stop offset="1" stop-color="#FFE847" stop-opacity="0"/>
</radialGradient>
<radialGradient id="paint5_radial_84_2037" cx="0" cy="0" r="1" gradientUnits="userSpaceOnUse" gradientTransform="translate(114.692 62.862) rotate(59.5) scale(4.04845 12.7393)">
<stop stop-color="#D4A33C"/>
<stop offset="1" stop-color="#D4A33C" stop-opacity="0"/>
</radialGradient>
<linearGradient id="paint6_linear_84_2037" x1="79.097" y1="39.3469" x2="88.111" y2="39.3469" gradientUnits="userSpaceOnUse">
<stop stop-color="#E3961F"/>
<stop offset="1" stop-color="#E3961F" stop-opacity="0"/>
</linearGradient>
<linearGradient id="paint7_linear_84_2037" x1="90.6423" y1="59.9438" x2="90.6423" y2="48.8016" gradientUnits="userSpaceOnUse">
<stop stop-color="#FEC942"/>
<stop offset="1" stop-color="#FEC942" stop-opacity="0"/>
</linearGradient>
<radialGradient id="paint8_radial_84_2037" cx="0" cy="0" r="1" gradientUnits="userSpaceOnUse" gradientTransform="translate(107.016 9.68909) rotate(131.001) scale(18.2693 30.9931)">
<stop stop-color="#FFE645"/>
<stop offset="1" stop-color="#FFE645" stop-opacity="0"/>
</radialGradient>
<radialGradient id="paint9_radial_84_2037" cx="0" cy="0" r="1" gradientUnits="userSpaceOnUse" gradientTransform="translate(81.8579 46.4953) scale(4.10156 14.3555)">
<stop offset="0.216" stop-color="#D17703"/>
<stop offset="1" stop-color="#D17703" stop-opacity="0"/>
</radialGradient>
<linearGradient id="paint10_linear_84_2037" x1="44.3156" y1="54.1032" x2="57.5719" y2="54.6329" gradientUnits="userSpaceOnUse">
<stop stop-color="#FABB25"/>
<stop offset="1" stop-color="#FFD43E"/>
</linearGradient>
<linearGradient id="paint11_linear_84_2037" x1="60.5531" y1="60.961" x2="58.1625" y2="60.961" gradientUnits="userSpaceOnUse">
<stop stop-color="#E59617"/>
<stop offset="1" stop-color="#E59617" stop-opacity="0"/>
</linearGradient>
<radialGradient id="paint12_radial_84_2037" cx="0" cy="0" r="1" gradientUnits="userSpaceOnUse" gradientTransform="translate(62.3771 48.5531) rotate(149.179) scale(5.05083 10.5455)">
<stop offset="0.215" stop-color="#AD690C"/>
<stop offset="1" stop-color="#AD690C" stop-opacity="0"/>
</radialGradient>
<linearGradient id="paint13_linear_84_2037" x1="63.5157" y1="49.7626" x2="83.3251" y2="49.7626" gradientUnits="userSpaceOnUse">
<stop stop-color="#FABB25"/>
<stop offset="1" stop-color="#FFD43E"/>
</linearGradient>
<linearGradient id="paint14_linear_84_2037" x1="96.7969" y1="17.3297" x2="96.7969" y2="66.286" gradientUnits="userSpaceOnUse">
<stop stop-color="#FFE948"/>
<stop offset="1" stop-color="#FFE948" stop-opacity="0"/>
</linearGradient>
</defs>
</svg>
