<svg width="489" height="340" viewBox="0 0 489 340" fill="none" xmlns="http://www.w3.org/2000/svg">
<g clip-path="url(#clip0_59_84)">
<g filter="url(#filter0_i_59_84)">
<path d="M393.635 52.7312C389.96 50.8964 384.408 51.2048 380.975 55.3034C377.538 59.3999 375.172 63.4499 374.372 65.2282C374.372 65.2282 372.724 67.7631 371.499 64.8208L357.816 31.955C355.345 26.0207 349.435 23.0797 344.112 25.2963C339.121 27.374 336.457 33.1682 339.184 39.7165L350.141 66.4132L320.774 78.6398L314.899 64.5281C312.452 58.6506 306.536 56.0161 301.436 58.1395C296.332 60.2645 294.239 66.9996 296.247 71.823C298.257 76.65 312.766 111.667 312.766 111.667C323.262 136.877 343.288 141.686 362.188 133.818C371.803 129.814 379.586 121.493 383.134 112.22C387.639 100.454 383.786 98.1518 388.523 85.5435C390.774 78.8469 395.664 71.2972 398.123 66.6418C400.589 61.992 398.605 55.2176 393.635 52.7312Z" fill="#FFBF40"/>
<path d="M393.635 52.7312C389.96 50.8964 384.408 51.2048 380.975 55.3034C377.538 59.3999 375.172 63.4499 374.372 65.2282C374.372 65.2282 372.724 67.7631 371.499 64.8208L357.816 31.955C355.345 26.0207 349.435 23.0797 344.112 25.2963C339.121 27.374 336.457 33.1682 339.184 39.7165L350.141 66.4132L320.774 78.6398L314.899 64.5281C312.452 58.6506 306.536 56.0161 301.436 58.1395C296.332 60.2645 294.239 66.9996 296.247 71.823C298.257 76.65 312.766 111.667 312.766 111.667C323.262 136.877 343.288 141.686 362.188 133.818C371.803 129.814 379.586 121.493 383.134 112.22C387.639 100.454 383.786 98.1518 388.523 85.5435C390.774 78.8469 395.664 71.2972 398.123 66.6418C400.589 61.992 398.605 55.2176 393.635 52.7312Z" fill="url(#paint0_radial_59_84)"/>
<path d="M393.635 52.7312C389.96 50.8964 384.408 51.2048 380.975 55.3034C377.538 59.3999 375.172 63.4499 374.372 65.2282C374.372 65.2282 372.724 67.7631 371.499 64.8208L357.816 31.955C355.345 26.0207 349.435 23.0797 344.112 25.2963C339.121 27.374 336.457 33.1682 339.184 39.7165L350.141 66.4132L320.774 78.6398L314.899 64.5281C312.452 58.6506 306.536 56.0161 301.436 58.1395C296.332 60.2645 294.239 66.9996 296.247 71.823C298.257 76.65 312.766 111.667 312.766 111.667C323.262 136.877 343.288 141.686 362.188 133.818C371.803 129.814 379.586 121.493 383.134 112.22C387.639 100.454 383.786 98.1518 388.523 85.5435C390.774 78.8469 395.664 71.2972 398.123 66.6418C400.589 61.992 398.605 55.2176 393.635 52.7312Z" fill="url(#paint1_radial_59_84)"/>
</g>
<g filter="url(#filter1_f_59_84)">
<path d="M347.167 71.1037C345.659 67.4813 341.499 65.7673 337.877 67.2755C334.255 68.7837 332.541 72.9429 334.049 76.5653L337.403 84.6221C338.911 88.2445 343.071 89.9584 346.693 88.4502C350.315 86.942 352.029 82.7829 350.521 79.1604L347.167 71.1037Z" fill="#B44B10"/>
</g>
<g filter="url(#filter2_f_59_84)">
<path d="M320.883 68.9788L320.879 68.9803C316.559 70.779 314.515 75.7394 316.314 80.0597L320.522 90.1679C322.321 94.4881 327.281 96.5322 331.602 94.7335L331.605 94.732C335.926 92.9333 337.97 87.9729 336.171 83.6526L331.962 73.5444C330.164 69.2242 325.203 67.1801 320.883 68.9788Z" fill="#B44B10"/>
</g>
<path d="M380.975 55.3034C384.409 51.2084 389.96 50.8964 393.635 52.7313C398.605 55.2177 400.587 61.9885 398.124 66.6454C397.478 67.8725 396.659 69.2963 395.765 70.8596C393.269 75.2177 390.183 80.6088 388.523 85.5436C386.957 89.7145 386.329 92.7577 386.028 95.3858C375.28 84.4939 372.332 72.8616 372.258 65.9833C373.311 66.8611 374.372 65.2283 374.372 65.2283C375.172 63.45 377.539 59.4035 380.975 55.3034Z" fill="#F4B616"/>
<path d="M380.975 55.3034C384.409 51.2084 389.96 50.8964 393.635 52.7313C398.605 55.2177 400.587 61.9885 398.124 66.6454C397.478 67.8725 396.659 69.2963 395.765 70.8596C393.269 75.2177 390.183 80.6088 388.523 85.5436C386.957 89.7145 386.329 92.7577 386.028 95.3858C375.28 84.4939 372.332 72.8616 372.258 65.9833C373.311 66.8611 374.372 65.2283 374.372 65.2283C375.172 63.45 377.539 59.4035 380.975 55.3034Z" fill="url(#paint2_radial_59_84)"/>
<path d="M380.975 55.3034C384.409 51.2084 389.96 50.8964 393.635 52.7313C398.605 55.2177 400.587 61.9885 398.124 66.6454C397.478 67.8725 396.659 69.2963 395.765 70.8596C393.269 75.2177 390.183 80.6088 388.523 85.5436C386.957 89.7145 386.329 92.7577 386.028 95.3858C375.28 84.4939 372.332 72.8616 372.258 65.9833C373.311 66.8611 374.372 65.2283 374.372 65.2283C375.172 63.45 377.539 59.4035 380.975 55.3034Z" fill="url(#paint3_radial_59_84)"/>
<path d="M380.975 55.3034C384.409 51.2084 389.96 50.8964 393.635 52.7313C398.605 55.2177 400.587 61.9885 398.124 66.6454C397.478 67.8725 396.659 69.2963 395.765 70.8596C393.269 75.2177 390.183 80.6088 388.523 85.5436C386.957 89.7145 386.329 92.7577 386.028 95.3858C375.28 84.4939 372.332 72.8616 372.258 65.9833C373.311 66.8611 374.372 65.2283 374.372 65.2283C375.172 63.45 377.539 59.4035 380.975 55.3034Z" fill="url(#paint4_radial_59_84)"/>
<path d="M380.975 55.3034C384.409 51.2084 389.96 50.8964 393.635 52.7313C398.605 55.2177 400.587 61.9885 398.124 66.6454C397.478 67.8725 396.659 69.2963 395.765 70.8596C393.269 75.2177 390.183 80.6088 388.523 85.5436C386.957 89.7145 386.329 92.7577 386.028 95.3858C375.28 84.4939 372.332 72.8616 372.258 65.9833C373.311 66.8611 374.372 65.2283 374.372 65.2283C375.172 63.45 377.539 59.4035 380.975 55.3034Z" fill="url(#paint5_radial_59_84)"/>
<path d="M368.922 58.581L350.154 66.3952L339.2 39.7056C336.475 33.1609 339.139 27.3666 344.129 25.289C349.453 23.0724 355.363 26.0133 357.835 31.9512L368.922 58.581Z" fill="url(#paint6_linear_59_84)"/>
<path d="M368.922 58.581L350.154 66.3952L339.2 39.7056C336.475 33.1609 339.139 27.3666 344.129 25.289C349.453 23.0724 355.363 26.0133 357.835 31.9512L368.922 58.581Z" fill="url(#paint7_linear_59_84)"/>
<path d="M368.922 58.581L350.154 66.3952L339.2 39.7056C336.475 33.1609 339.139 27.3666 344.129 25.289C349.453 23.0724 355.363 26.0133 357.835 31.9512L368.922 58.581Z" fill="url(#paint8_radial_59_84)"/>
<path d="M368.922 58.581L350.154 66.3952L339.2 39.7056C336.475 33.1609 339.139 27.3666 344.129 25.289C349.453 23.0724 355.363 26.0133 357.835 31.9512L368.922 58.581Z" fill="url(#paint9_radial_59_84)"/>
<g filter="url(#filter3_i_59_84)">
<path d="M322.017 63.0303L321.683 63.1692C316.706 65.2413 314.352 70.9557 316.424 75.9326L320.996 86.914C323.068 91.8909 328.782 94.2457 333.759 92.1735L334.093 92.0346C339.07 89.9625 341.425 84.2481 339.352 79.2712L334.78 68.2899C332.708 63.313 326.994 60.9582 322.017 63.0303Z" fill="url(#paint10_linear_59_84)"/>
<path d="M322.017 63.0303L321.683 63.1692C316.706 65.2413 314.352 70.9557 316.424 75.9326L320.996 86.914C323.068 91.8909 328.782 94.2457 333.759 92.1735L334.093 92.0346C339.07 89.9625 341.425 84.2481 339.352 79.2712L334.78 68.2899C332.708 63.313 326.994 60.9582 322.017 63.0303Z" fill="url(#paint11_linear_59_84)"/>
<path d="M322.017 63.0303L321.683 63.1692C316.706 65.2413 314.352 70.9557 316.424 75.9326L320.996 86.914C323.068 91.8909 328.782 94.2457 333.759 92.1735L334.093 92.0346C339.07 89.9625 341.425 84.2481 339.352 79.2712L334.78 68.2899C332.708 63.313 326.994 60.9582 322.017 63.0303Z" fill="url(#paint12_radial_59_84)"/>
</g>
<g filter="url(#filter4_i_59_84)">
<path d="M348.332 56.1386C346.26 51.1617 340.546 48.8069 335.569 50.8791C330.592 52.9512 328.237 58.6656 330.309 63.6425L337.189 80.1677C339.262 85.1446 344.976 87.4994 349.953 85.4273C354.93 83.3551 357.285 77.6407 355.212 72.6638L348.332 56.1386Z" fill="url(#paint13_linear_59_84)"/>
</g>
<g filter="url(#filter5_f_59_84)">
<path d="M353.486 31.588C352.818 29.9846 350.977 29.2259 349.374 29.8935C347.77 30.5611 347.012 32.4021 347.679 34.0056L360.695 65.2672C361.363 66.8706 363.204 67.6293 364.807 66.9617C366.411 66.2941 367.169 64.4531 366.502 62.8496L353.486 31.588Z" fill="url(#paint14_linear_59_84)"/>
</g>
<g filter="url(#filter6_f_59_84)">
<path d="M345.43 57.0596C344.831 55.6208 343.179 54.9401 341.74 55.5391C340.301 56.1382 339.621 57.7901 340.22 59.2289L347.307 76.251C347.906 77.6898 349.558 78.3705 350.997 77.7715C352.435 77.1725 353.116 75.5205 352.517 74.0817L345.43 57.0596Z" fill="#FFE948"/>
</g>
</g>
<g filter="url(#filter7_d_59_84)">
<path d="M124.512 119.749C135.441 119.749 143.519 122.363 148.983 126.164C152.547 128.659 152.785 132.698 150.528 135.905C148.508 138.875 144.826 140.063 141.499 138.043C136.51 135.074 131.639 133.767 124.155 133.767C111.088 133.767 103.604 141.607 103.604 162.04V164.535C103.604 184.373 110.375 192.689 124.274 192.689C132.115 192.689 137.817 190.907 143.281 187.224C146.489 185.086 150.29 185.561 152.666 188.888C155.042 192.214 154.686 196.609 150.884 199.341C144.113 204.212 134.847 206.825 123.918 206.825C101.584 206.825 88.2794 194.59 88.2794 165.723V160.852C88.2794 131.985 101.584 119.749 124.512 119.749Z" fill="white"/>
<path d="M177.281 120.343C181.32 120.343 184.883 122.363 184.883 126.877V192.689H219.334C223.017 192.689 224.68 195.659 224.68 199.104C224.68 202.549 223.017 205.519 219.334 205.519H179.775C172.172 205.519 169.678 203.143 169.678 195.659V126.877C169.678 122.363 173.242 120.343 177.281 120.343Z" fill="white"/>
<path d="M243.522 120.343C247.561 120.343 251.125 122.363 251.125 126.877V199.698C251.125 204.212 247.561 206.232 243.522 206.232C239.483 206.232 235.92 204.212 235.92 199.698V126.877C235.92 122.363 239.483 120.343 243.522 120.343Z" fill="white"/>
<path d="M303.4 119.749C314.329 119.749 322.407 122.363 327.871 126.164C331.435 128.659 331.673 132.698 329.416 135.905C327.396 138.875 323.713 140.063 320.387 138.043C315.398 135.074 310.527 133.767 303.043 133.767C289.976 133.767 282.492 141.607 282.492 162.04V164.535C282.492 184.373 289.263 192.689 303.162 192.689C311.002 192.689 316.705 190.907 322.169 187.224C325.377 185.086 329.178 185.561 331.554 188.888C333.93 192.214 333.573 196.609 329.772 199.341C323.001 204.212 313.735 206.825 302.806 206.825C280.472 206.825 267.167 194.59 267.167 165.723V160.852C267.167 131.985 280.472 119.749 303.4 119.749Z" fill="white"/>
<path d="M356.168 120.343C360.207 120.343 363.771 122.363 363.771 126.877V159.664L398.578 122.244C401.192 119.393 405.587 119.987 408.082 122.6C410.695 125.332 411.289 129.253 408.676 131.985L382.303 159.426L411.408 194.114C414.497 197.678 413.665 201.717 410.339 204.331C407.25 206.825 402.973 207.182 400.122 203.618L372.443 169.049L363.771 177.958V199.698C363.771 204.212 360.207 206.232 356.168 206.232C352.129 206.232 348.566 204.212 348.566 199.698V126.877C348.566 122.363 352.129 120.343 356.168 120.343Z" fill="white"/>
<path d="M117.091 244.8H139.306C159.857 244.8 168.648 255.254 168.648 269.272V270.935C168.648 284.834 159.144 296.713 139.306 296.713H122.199V323.442C122.199 327.956 118.635 329.976 114.596 329.976C110.557 329.976 106.994 327.956 106.994 323.442V254.66C106.994 247.176 109.488 244.8 117.091 244.8ZM122.199 257.511V283.883H137.286C147.265 283.883 153.323 280.676 153.323 270.697V269.391C153.323 260.006 147.265 257.511 138.593 257.511H122.199Z" fill="white"/>
<path d="M215.66 243.493C238.706 243.493 252.011 255.729 252.011 284.596V289.467C252.011 318.334 238.706 330.57 215.66 330.57C192.614 330.57 179.309 318.334 179.309 289.467V284.596C179.309 255.729 192.614 243.493 215.66 243.493ZM215.66 257.392C201.761 257.392 194.633 264.282 194.633 285.784V288.279C194.633 309.781 201.761 316.671 215.66 316.671C229.559 316.671 236.687 309.781 236.687 288.279V285.784C236.687 264.282 229.559 257.392 215.66 257.392Z" fill="white"/>
<path d="M296.526 243.493C305.08 243.493 312.207 244.919 318.028 247.889C321.473 249.671 322.542 253.591 320.642 257.036C318.741 260.6 315.534 261.431 312.207 260.006C307.218 257.868 303.06 257.036 296.764 257.036C286.429 257.036 280.964 262.382 280.964 267.371V268.084C280.964 274.024 284.291 276.756 298.784 279.726C318.622 283.765 326.463 291.724 326.463 304.435V305.504C326.463 321.66 315.652 330.57 294.982 330.57C285.241 330.57 275.262 327.837 268.966 323.917C265.165 321.541 264.927 317.384 267.065 314.057C269.323 310.612 272.649 309.781 276.213 311.8C281.796 315.008 288.567 316.908 295.695 316.908C306.624 316.908 311.257 312.513 311.257 306.692V305.86C311.257 299.208 306.386 295.882 294.982 293.625C275.025 289.704 265.878 284.24 265.878 268.44V267.609C265.878 254.304 276.569 243.493 296.526 243.493Z" fill="white"/>
<path d="M352.476 244.8H392.985C396.549 244.8 398.212 247.651 398.212 251.096C398.212 254.422 396.549 257.392 392.985 257.392H357.465V279.844H390.609C394.054 279.844 395.717 282.696 395.717 286.022C395.717 289.348 394.054 292.199 390.609 292.199H357.465V316.671H393.816C397.38 316.671 399.043 319.641 399.043 322.967C399.043 326.412 397.38 329.263 393.816 329.263H352.476C344.873 329.263 342.378 326.887 342.378 319.403V254.66C342.378 247.176 344.873 244.8 352.476 244.8Z" fill="white"/>
</g>
<path d="M18.6606 304.525C17.5967 305.594 16.1515 306.197 14.6431 306.201C13.1347 306.204 11.6865 305.609 10.6173 304.545C9.54797 303.481 8.94513 302.036 8.94136 300.527C8.93759 299.019 9.5332 297.571 10.5971 296.501L80.1201 226.645C81.184 225.575 82.6292 224.973 84.1376 224.969C85.646 224.965 87.0942 225.561 88.1634 226.625C89.2327 227.689 89.8356 229.134 89.8393 230.642C89.8431 232.15 89.2475 233.599 88.1836 234.668L18.6606 304.525Z" fill="url(#paint15_linear_59_84)"/>
<path d="M18.6606 304.525C17.5967 305.594 16.1515 306.197 14.6431 306.201C13.1347 306.204 11.6865 305.609 10.6173 304.545C9.54797 303.481 8.94513 302.036 8.94136 300.527C8.93759 299.019 9.5332 297.571 10.5971 296.501L80.1201 226.645C81.184 225.575 82.6292 224.973 84.1376 224.969C85.646 224.965 87.0942 225.561 88.1634 226.625C89.2327 227.689 89.8356 229.134 89.8393 230.642C89.8431 232.15 89.2475 233.599 88.1836 234.668L18.6606 304.525Z" fill="url(#paint16_linear_59_84)"/>
<g filter="url(#filter8_ii_59_84)">
<path fill-rule="evenodd" clip-rule="evenodd" d="M102.633 217.322C102.475 216.594 102.116 215.925 101.597 215.39C101.079 214.854 100.421 214.475 99.6976 214.294C97.8271 213.783 96.0113 213.089 94.2764 212.223C93.9049 212.05 93.5906 211.774 93.3703 211.429C93.15 211.083 93.033 210.682 93.033 210.272C93.033 209.863 93.15 209.461 93.3703 209.116C93.5906 208.77 93.9049 208.495 94.2764 208.322C96.0115 207.457 97.8272 206.765 99.6976 206.255C100.421 206.074 101.079 205.694 101.597 205.159C102.116 204.624 102.475 203.955 102.633 203.226C103.084 200.986 103.816 198.219 104.926 195.517C105.057 195.143 105.302 194.819 105.625 194.59C105.949 194.361 106.335 194.238 106.732 194.238C107.128 194.238 107.514 194.361 107.838 194.59C108.161 194.819 108.406 195.143 108.537 195.517C109.647 198.219 110.379 200.986 110.826 203.226C110.984 203.954 111.343 204.624 111.862 205.159C112.381 205.694 113.039 206.073 113.761 206.255C115.623 206.765 117.429 207.457 119.155 208.322C120.811 209.126 120.811 211.419 119.155 212.223C117.43 213.088 115.625 213.782 113.765 214.294C113.042 214.474 112.384 214.853 111.865 215.387C111.345 215.922 110.985 216.591 110.826 217.318C110.305 219.956 109.538 222.538 108.533 225.032C108.401 225.404 108.156 225.727 107.833 225.955C107.51 226.183 107.125 226.305 106.73 226.305C106.334 226.305 105.949 226.183 105.626 225.955C105.303 225.727 105.058 225.404 104.926 225.032C103.921 222.538 103.154 219.96 102.633 217.322Z" fill="url(#paint17_linear_59_84)"/>
</g>
<g filter="url(#filter9_ii_59_84)">
<path fill-rule="evenodd" clip-rule="evenodd" d="M57.3533 215.541C57.2349 214.996 56.9665 214.495 56.5784 214.095C56.1904 213.695 55.6982 213.412 55.1574 213.277C53.7602 212.895 52.4038 212.378 51.1076 211.732C50.8301 211.603 50.5954 211.397 50.4309 211.139C50.2664 210.88 50.179 210.581 50.179 210.274C50.179 209.968 50.2664 209.668 50.4309 209.41C50.5954 209.152 50.8301 208.946 51.1076 208.816C52.5997 208.093 53.9308 207.59 55.1574 207.268C55.6977 207.133 56.1895 206.85 56.5775 206.451C56.9655 206.052 57.2342 205.552 57.3533 205.008C57.6911 203.331 58.2381 201.268 59.0665 199.241C59.1655 198.962 59.3483 198.721 59.5899 198.55C59.8315 198.38 60.12 198.288 60.4158 198.288C60.7116 198.288 61.0001 198.38 61.2417 198.55C61.4833 198.721 61.6662 198.962 61.7651 199.241C62.5935 201.264 63.1405 203.331 63.4743 205.008C63.5938 205.552 63.8627 206.051 64.2506 206.451C64.6385 206.85 65.1301 207.133 65.6701 207.268C66.8968 207.59 68.2159 208.089 69.7039 208.816C69.9814 208.946 70.2161 209.152 70.3806 209.41C70.5451 209.668 70.6325 209.968 70.6325 210.274C70.6325 210.581 70.5451 210.88 70.3806 211.139C70.2161 211.397 69.9814 211.603 69.7039 211.732C68.4132 212.378 67.0621 212.895 65.6701 213.277C65.1296 213.412 64.6376 213.696 64.2497 214.096C63.8617 214.496 63.5932 214.996 63.4743 215.541C63.1405 217.218 62.5935 219.281 61.7651 221.304C61.6662 221.583 61.4833 221.824 61.2417 221.994C61.0001 222.165 60.7116 222.257 60.4158 222.257C60.12 222.257 59.8315 222.165 59.5899 221.994C59.3483 221.824 59.1655 221.583 59.0665 221.304C58.3172 219.441 57.7449 217.511 57.3573 215.541H57.3533Z" fill="url(#paint18_linear_59_84)"/>
</g>
<g filter="url(#filter10_ii_59_84)">
<path fill-rule="evenodd" clip-rule="evenodd" d="M95.8127 259.655C95.6943 259.11 95.4259 258.609 95.0379 258.209C94.6498 257.809 94.1576 257.526 93.6169 257.391C92.2181 257.009 90.8602 256.49 89.563 255.842C89.2866 255.712 89.0529 255.506 88.8893 255.249C88.7256 254.991 88.6387 254.692 88.6387 254.386C88.6387 254.081 88.7256 253.782 88.8893 253.524C89.0529 253.266 89.2866 253.06 89.563 252.93C91.0591 252.207 92.3862 251.704 93.6169 251.382C94.1576 251.247 94.6498 250.963 95.0379 250.563C95.4259 250.163 95.6943 249.663 95.8127 249.118C96.1465 247.445 96.6975 245.378 97.5219 243.355C97.62 243.075 97.8027 242.832 98.0448 242.66C98.2869 242.488 98.5764 242.396 98.8732 242.396C99.17 242.396 99.4595 242.488 99.7016 242.66C99.9437 242.832 100.126 243.075 100.224 243.355C101.053 245.378 101.6 247.445 101.934 249.118C102.053 249.662 102.321 250.163 102.709 250.563C103.097 250.963 103.589 251.247 104.13 251.382C105.352 251.704 106.671 252.203 108.159 252.926C108.438 253.055 108.674 253.261 108.839 253.52C109.004 253.779 109.092 254.079 109.092 254.386C109.092 254.693 109.004 254.994 108.839 255.253C108.674 255.511 108.438 255.717 108.159 255.846C106.87 256.491 105.52 257.009 104.13 257.391C103.589 257.526 103.097 257.81 102.709 258.21C102.321 258.61 102.053 259.11 101.934 259.655C101.544 261.625 100.972 263.554 100.224 265.418C100.126 265.698 99.9437 265.941 99.7016 266.112C99.4595 266.284 99.17 266.376 98.8732 266.376C98.5764 266.376 98.2869 266.284 98.0448 266.112C97.8027 265.941 97.62 265.698 97.5219 265.418C96.7726 263.555 96.2003 261.625 95.8127 259.655Z" fill="url(#paint19_linear_59_84)"/>
</g>
<path d="M115.656 243.274C118.414 243.274 120.651 241.038 120.651 238.279C120.651 235.521 118.414 233.284 115.656 233.284C112.897 233.284 110.661 235.521 110.661 238.279C110.661 241.038 112.897 243.274 115.656 243.274Z" fill="url(#paint20_radial_59_84)"/>
<path d="M115.656 243.274C118.414 243.274 120.651 241.038 120.651 238.279C120.651 235.521 118.414 233.284 115.656 233.284C112.897 233.284 110.661 235.521 110.661 238.279C110.661 241.038 112.897 243.274 115.656 243.274Z" fill="url(#paint21_radial_59_84)"/>
<path d="M76.5046 276.14C79.2632 276.14 81.4995 273.903 81.4995 271.145C81.4995 268.386 79.2632 266.15 76.5046 266.15C73.746 266.15 71.5096 268.386 71.5096 271.145C71.5096 273.903 73.746 276.14 76.5046 276.14Z" fill="url(#paint22_radial_59_84)"/>
<path d="M76.5046 276.14C79.2632 276.14 81.4995 273.903 81.4995 271.145C81.4995 268.386 79.2632 266.15 76.5046 266.15C73.746 266.15 71.5096 268.386 71.5096 271.145C71.5096 273.903 73.746 276.14 76.5046 276.14Z" fill="url(#paint23_radial_59_84)"/>
<path d="M48.4734 243.926C51.1232 243.926 53.2713 241.778 53.2713 239.128C53.2713 236.478 51.1232 234.33 48.4734 234.33C45.8236 234.33 43.6755 236.478 43.6755 239.128C43.6755 241.778 45.8236 243.926 48.4734 243.926Z" fill="url(#paint24_radial_59_84)"/>
<path d="M48.4734 243.926C51.1232 243.926 53.2713 241.778 53.2713 239.128C53.2713 236.478 51.1232 234.33 48.4734 234.33C45.8236 234.33 43.6755 236.478 43.6755 239.128C43.6755 241.778 45.8236 243.926 48.4734 243.926Z" fill="url(#paint25_radial_59_84)"/>
<path d="M76.585 202.293C78.7972 202.293 80.5906 200.5 80.5906 198.288C80.5906 196.075 78.7972 194.282 76.585 194.282C74.3728 194.282 72.5794 196.075 72.5794 198.288C72.5794 200.5 74.3728 202.293 76.585 202.293Z" fill="url(#paint26_radial_59_84)"/>
<path d="M76.585 202.293C78.7972 202.293 80.5906 200.5 80.5906 198.288C80.5906 196.075 78.7972 194.282 76.585 194.282C74.3728 194.282 72.5794 196.075 72.5794 198.288C72.5794 200.5 74.3728 202.293 76.585 202.293Z" fill="url(#paint27_radial_59_84)"/>
<g filter="url(#filter11_f_59_84)">
<path d="M77.7312 235.42L16.7785 296.63" stroke="url(#paint28_linear_59_84)" stroke-width="0.5"/>
</g>
<path d="M73.1947 233.606L80.1201 226.645C81.184 225.575 82.6292 224.973 84.1376 224.969C85.646 224.965 87.0942 225.561 88.1635 226.625C89.2327 227.689 89.8356 229.134 89.8393 230.642C89.8431 232.15 89.2475 233.599 88.1836 234.668L81.2904 241.593L73.1907 233.606H73.1947Z" fill="#CFC9D8"/>
<path d="M73.1947 233.606L80.1201 226.645C81.184 225.575 82.6292 224.973 84.1376 224.969C85.646 224.965 87.0942 225.561 88.1635 226.625C89.2327 227.689 89.8356 229.134 89.8393 230.642C89.8431 232.15 89.2475 233.599 88.1836 234.668L81.2904 241.593L73.1907 233.606H73.1947Z" fill="url(#paint29_linear_59_84)"/>
<path d="M73.1947 233.606L80.1201 226.645C81.184 225.575 82.6292 224.973 84.1376 224.969C85.646 224.965 87.0942 225.561 88.1635 226.625C89.2327 227.689 89.8356 229.134 89.8393 230.642C89.8431 232.15 89.2475 233.599 88.1836 234.668L81.2904 241.593L73.1907 233.606H73.1947Z" fill="url(#paint30_linear_59_84)"/>
<path d="M73.1947 233.606L80.1201 226.645C81.184 225.575 82.6292 224.973 84.1376 224.969C85.646 224.965 87.0942 225.561 88.1635 226.625C89.2327 227.689 89.8356 229.134 89.8393 230.642C89.8431 232.15 89.2475 233.599 88.1836 234.668L81.2904 241.593L73.1907 233.606H73.1947Z" fill="url(#paint31_radial_59_84)"/>
<g filter="url(#filter12_i_59_84)">
<path d="M10.6092 304.533C12.8332 306.757 16.4407 306.753 18.6647 304.525L25.4613 297.696L17.3898 289.677L10.6012 296.501C9.5391 297.569 8.94352 299.013 8.94503 300.519C8.94653 302.024 9.54501 303.468 10.6092 304.533Z" fill="#CFC6DD"/>
<path d="M10.6092 304.533C12.8332 306.757 16.4407 306.753 18.6647 304.525L25.4613 297.696L17.3898 289.677L10.6012 296.501C9.5391 297.569 8.94352 299.013 8.94503 300.519C8.94653 302.024 9.54501 303.468 10.6092 304.533Z" fill="url(#paint32_linear_59_84)"/>
</g>
<path d="M10.6092 304.533C12.8332 306.757 16.4407 306.753 18.6647 304.525L25.4613 297.696L17.3898 289.677L10.6012 296.501C9.5391 297.569 8.94352 299.013 8.94503 300.519C8.94653 302.024 9.54501 303.468 10.6092 304.533Z" fill="url(#paint33_linear_59_84)"/>
<path d="M10.6092 304.533C12.8332 306.757 16.4407 306.753 18.6647 304.525L25.4613 297.696L17.3898 289.677L10.6012 296.501C9.5391 297.569 8.94352 299.013 8.94503 300.519C8.94653 302.024 9.54501 303.468 10.6092 304.533Z" fill="url(#paint34_radial_59_84)"/>
<g clip-path="url(#clip1_59_84)">
<path d="M361.936 243.314C358.782 239.437 355.902 235.192 354.11 230.294C353.244 227.819 352.672 225.193 352.689 222.415C352.68 219.679 353.355 216.729 355.016 214.299C358.146 209.268 363.81 206.722 369.028 205.734C374.34 204.685 379.672 204.703 384.818 205.288C395.172 206.553 405.093 209.705 414.442 213.932C423.825 218.149 432.732 223.378 440.956 229.821C445.111 232.994 449.026 236.526 452.701 240.415C456.377 244.305 459.847 248.544 462.632 253.702C465.251 258.791 467.732 264.915 466.459 272.534C466.259 273.474 466.051 274.379 465.817 275.327C465.461 276.234 465.07 277.149 464.636 278.039C463.932 279.887 462.54 281.359 461.347 282.89C458.594 285.53 455.392 287.584 452.275 288.543C445.974 290.626 440.112 290.56 434.618 289.918C429.157 289.119 423.918 287.893 419.062 285.864C409.249 282.128 400.417 276.62 392.85 269.859C392.703 269.725 392.615 269.539 392.605 269.341C392.595 269.142 392.664 268.948 392.797 268.8C392.994 268.564 393.315 268.517 393.594 268.593C403.166 271.688 412.476 274.482 421.781 275.982C426.416 276.737 431.014 277.205 435.415 277.059C439.765 277 444.014 276.413 446.996 274.934C448.623 274.363 449.482 273.399 450.326 272.662C450.821 271.719 451.535 271.053 451.575 269.785C452.135 267.53 451.326 263.709 449.737 260.016C448.198 256.236 445.756 252.395 442.978 248.827C440.166 245.267 436.981 241.842 433.504 238.714C426.601 232.372 418.673 226.925 410.32 222.403C401.958 217.846 393.006 214.293 383.767 212.479C379.112 211.508 374.454 211.092 369.943 211.526C365.466 211.951 361.192 213.581 358.714 216.852C356.061 220.021 355.925 224.902 357.053 229.38C358.174 233.972 360.456 238.335 363.118 242.452C363.355 242.797 363.247 243.232 362.901 243.47C362.617 243.655 362.19 243.581 361.936 243.314Z" fill="url(#paint35_radial_59_84)"/>
<path d="M361.936 243.314C358.782 239.437 355.902 235.192 354.11 230.294C353.244 227.819 352.672 225.193 352.689 222.415C352.68 219.679 353.355 216.729 355.016 214.299C358.146 209.268 363.81 206.722 369.028 205.734C374.34 204.685 379.672 204.703 384.818 205.288C395.172 206.553 405.093 209.705 414.442 213.932C423.825 218.149 432.732 223.378 440.956 229.821C445.111 232.994 449.026 236.526 452.701 240.415C456.377 244.305 459.847 248.544 462.632 253.702C465.251 258.791 467.732 264.915 466.459 272.534C466.259 273.474 466.051 274.379 465.817 275.327C465.461 276.234 465.07 277.149 464.636 278.039C463.932 279.887 462.54 281.359 461.347 282.89C458.594 285.53 455.392 287.584 452.275 288.543C445.974 290.626 440.112 290.56 434.618 289.918C429.157 289.119 423.918 287.893 419.062 285.864C409.249 282.128 400.417 276.62 392.85 269.859C392.703 269.725 392.615 269.539 392.605 269.341C392.595 269.142 392.664 268.948 392.797 268.8C392.994 268.564 393.315 268.517 393.594 268.593C403.166 271.688 412.476 274.482 421.781 275.982C426.416 276.737 431.014 277.205 435.415 277.059C439.765 277 444.014 276.413 446.996 274.934C448.623 274.363 449.482 273.399 450.326 272.662C450.821 271.719 451.535 271.053 451.575 269.785C452.135 267.53 451.326 263.709 449.737 260.016C448.198 256.236 445.756 252.395 442.978 248.827C440.166 245.267 436.981 241.842 433.504 238.714C426.601 232.372 418.673 226.925 410.32 222.403C401.958 217.846 393.006 214.293 383.767 212.479C379.112 211.508 374.454 211.092 369.943 211.526C365.466 211.951 361.192 213.581 358.714 216.852C356.061 220.021 355.925 224.902 357.053 229.38C358.174 233.972 360.456 238.335 363.118 242.452C363.355 242.797 363.247 243.232 362.901 243.47C362.617 243.655 362.19 243.581 361.936 243.314Z" fill="url(#paint36_radial_59_84)"/>
<path d="M361.936 243.314C358.782 239.437 355.902 235.192 354.11 230.294C353.244 227.819 352.672 225.193 352.689 222.415C352.68 219.679 353.355 216.729 355.016 214.299C358.146 209.268 363.81 206.722 369.028 205.734C374.34 204.685 379.672 204.703 384.818 205.288C395.172 206.553 405.093 209.705 414.442 213.932C423.825 218.149 432.732 223.378 440.956 229.821C445.111 232.994 449.026 236.526 452.701 240.415C456.377 244.305 459.847 248.544 462.632 253.702C465.251 258.791 467.732 264.915 466.459 272.534C466.259 273.474 466.051 274.379 465.817 275.327C465.461 276.234 465.07 277.149 464.636 278.039C463.932 279.887 462.54 281.359 461.347 282.89C458.594 285.53 455.392 287.584 452.275 288.543C445.974 290.626 440.112 290.56 434.618 289.918C429.157 289.119 423.918 287.893 419.062 285.864C409.249 282.128 400.417 276.62 392.85 269.859C392.703 269.725 392.615 269.539 392.605 269.341C392.595 269.142 392.664 268.948 392.797 268.8C392.994 268.564 393.315 268.517 393.594 268.593C403.166 271.688 412.476 274.482 421.781 275.982C426.416 276.737 431.014 277.205 435.415 277.059C439.765 277 444.014 276.413 446.996 274.934C448.623 274.363 449.482 273.399 450.326 272.662C450.821 271.719 451.535 271.053 451.575 269.785C452.135 267.53 451.326 263.709 449.737 260.016C448.198 256.236 445.756 252.395 442.978 248.827C440.166 245.267 436.981 241.842 433.504 238.714C426.601 232.372 418.673 226.925 410.32 222.403C401.958 217.846 393.006 214.293 383.767 212.479C379.112 211.508 374.454 211.092 369.943 211.526C365.466 211.951 361.192 213.581 358.714 216.852C356.061 220.021 355.925 224.902 357.053 229.38C358.174 233.972 360.456 238.335 363.118 242.452C363.355 242.797 363.247 243.232 362.901 243.47C362.617 243.655 362.19 243.581 361.936 243.314Z" fill="url(#paint37_radial_59_84)"/>
<path d="M356.678 227.595L352.735 223.875C352.703 223.395 352.687 222.907 352.689 222.418C352.681 219.683 353.356 216.733 355.017 214.303C358.147 209.271 363.811 206.725 369.029 205.738C374.341 204.688 379.673 204.707 384.819 205.292C395.173 206.556 405.094 209.709 414.442 213.935C423.826 218.153 432.733 223.382 440.957 229.824C445.112 232.998 449.027 236.529 452.702 240.419C456.378 244.309 451.14 243.045 453.925 248.202C455.591 251.438 456.432 254.741 455.184 260.422C455.064 260.952 454.898 261.471 454.688 261.972L451.684 269.249C452.012 266.956 451.206 263.433 449.737 260.019C448.199 256.239 445.757 252.399 442.979 248.83C440.167 245.271 436.982 241.845 433.505 238.718C426.602 232.375 418.674 226.929 410.321 222.406C401.958 217.849 393.007 214.296 383.768 212.483C379.113 211.511 374.455 211.096 369.943 211.529C365.467 211.954 361.193 213.584 358.715 216.855C356.412 219.607 356.007 223.652 356.679 227.602L356.678 227.595Z" fill="url(#paint38_radial_59_84)"/>
<path d="M356.678 227.595L352.735 223.875C352.703 223.395 352.687 222.907 352.689 222.418C352.681 219.683 353.356 216.733 355.017 214.303C358.147 209.271 363.811 206.725 369.029 205.738C374.341 204.688 379.673 204.707 384.819 205.292C395.173 206.556 405.094 209.709 414.442 213.935C423.826 218.153 432.733 223.382 440.957 229.824C445.112 232.998 449.027 236.529 452.702 240.419C456.378 244.309 451.14 243.045 453.925 248.202C455.591 251.438 456.432 254.741 455.184 260.422C455.064 260.952 454.898 261.471 454.688 261.972L451.684 269.249C452.012 266.956 451.206 263.433 449.737 260.019C448.199 256.239 445.757 252.399 442.979 248.83C440.167 245.271 436.982 241.845 433.505 238.718C426.602 232.375 418.674 226.929 410.321 222.406C401.958 217.849 393.007 214.296 383.768 212.483C379.113 211.511 374.455 211.096 369.943 211.529C365.467 211.954 361.193 213.584 358.715 216.855C356.412 219.607 356.007 223.652 356.679 227.602L356.678 227.595Z" fill="url(#paint39_radial_59_84)"/>
<path d="M356.678 227.595L352.735 223.875C352.703 223.395 352.687 222.907 352.689 222.418C352.681 219.683 353.356 216.733 355.017 214.303C358.147 209.271 363.811 206.725 369.029 205.738C374.341 204.688 379.673 204.707 384.819 205.292C395.173 206.556 405.094 209.709 414.442 213.935C423.826 218.153 432.733 223.382 440.957 229.824C445.112 232.998 449.027 236.529 452.702 240.419C456.378 244.309 451.14 243.045 453.925 248.202C455.591 251.438 456.432 254.741 455.184 260.422C455.064 260.952 454.898 261.471 454.688 261.972L451.684 269.249C452.012 266.956 451.206 263.433 449.737 260.019C448.199 256.239 445.757 252.399 442.979 248.83C440.167 245.271 436.982 241.845 433.505 238.718C426.602 232.375 418.674 226.929 410.321 222.406C401.958 217.849 393.007 214.296 383.768 212.483C379.113 211.511 374.455 211.096 369.943 211.529C365.467 211.954 361.193 213.584 358.715 216.855C356.412 219.607 356.007 223.652 356.679 227.602L356.678 227.595Z" fill="url(#paint40_linear_59_84)"/>
<path d="M458.425 247.142C459.941 249.175 461.359 251.34 462.635 253.701C465.254 258.79 467.735 264.914 466.462 272.533C466.263 273.473 466.054 274.378 465.82 275.327C465.464 276.233 465.073 277.148 464.639 278.038C464.077 279.516 463.071 280.755 462.082 281.974C461.832 282.279 461.586 282.584 461.351 282.889C458.597 285.529 455.396 287.583 452.279 288.542C445.977 290.625 440.115 290.559 434.621 289.917C429.161 289.118 423.921 287.892 419.065 285.863C409.252 282.127 400.421 276.62 392.854 269.858C392.707 269.724 392.619 269.538 392.609 269.34C392.599 269.141 392.668 268.947 392.8 268.799C392.998 268.563 393.319 268.516 393.597 268.592C403.17 271.687 412.479 274.481 421.784 275.981C426.42 276.736 431.018 277.204 435.419 277.058C439.769 276.999 444.018 276.412 447 274.933C448.362 274.453 449.183 273.699 449.909 273.037C450.053 272.907 450.19 272.779 450.33 272.661C450.463 272.404 450.612 272.169 450.762 271.934C451.163 271.312 451.548 270.705 451.579 269.784C452.139 267.529 451.33 263.708 449.74 260.015C448.479 256.918 446.608 253.779 444.445 250.783L458.425 247.142Z" fill="url(#paint41_radial_59_84)"/>
<path d="M458.425 247.142C459.941 249.175 461.359 251.34 462.635 253.701C465.254 258.79 467.735 264.914 466.462 272.533C466.263 273.473 466.054 274.378 465.82 275.327C465.464 276.233 465.073 277.148 464.639 278.038C464.077 279.516 463.071 280.755 462.082 281.974C461.832 282.279 461.586 282.584 461.351 282.889C458.597 285.529 455.396 287.583 452.279 288.542C445.977 290.625 440.115 290.559 434.621 289.917C429.161 289.118 423.921 287.892 419.065 285.863C409.252 282.127 400.421 276.62 392.854 269.858C392.707 269.724 392.619 269.538 392.609 269.34C392.599 269.141 392.668 268.947 392.8 268.799C392.998 268.563 393.319 268.516 393.597 268.592C403.17 271.687 412.479 274.481 421.784 275.981C426.42 276.736 431.018 277.204 435.419 277.058C439.769 276.999 444.018 276.412 447 274.933C448.362 274.453 449.183 273.699 449.909 273.037C450.053 272.907 450.19 272.779 450.33 272.661C450.463 272.404 450.612 272.169 450.762 271.934C451.163 271.312 451.548 270.705 451.579 269.784C452.139 267.529 451.33 263.708 449.74 260.015C448.479 256.918 446.608 253.779 444.445 250.783L458.425 247.142Z" fill="url(#paint42_linear_59_84)"/>
<path d="M458.425 247.142C459.941 249.175 461.359 251.34 462.635 253.701C465.254 258.79 467.735 264.914 466.462 272.533C466.263 273.473 466.054 274.378 465.82 275.327C465.464 276.233 465.073 277.148 464.639 278.038C464.077 279.516 463.071 280.755 462.082 281.974C461.832 282.279 461.586 282.584 461.351 282.889C458.597 285.529 455.396 287.583 452.279 288.542C445.977 290.625 440.115 290.559 434.621 289.917C429.161 289.118 423.921 287.892 419.065 285.863C409.252 282.127 400.421 276.62 392.854 269.858C392.707 269.724 392.619 269.538 392.609 269.34C392.599 269.141 392.668 268.947 392.8 268.799C392.998 268.563 393.319 268.516 393.597 268.592C403.17 271.687 412.479 274.481 421.784 275.981C426.42 276.736 431.018 277.204 435.419 277.058C439.769 276.999 444.018 276.412 447 274.933C448.362 274.453 449.183 273.699 449.909 273.037C450.053 272.907 450.19 272.779 450.33 272.661C450.463 272.404 450.612 272.169 450.762 271.934C451.163 271.312 451.548 270.705 451.579 269.784C452.139 267.529 451.33 263.708 449.74 260.015C448.479 256.918 446.608 253.779 444.445 250.783L458.425 247.142Z" fill="url(#paint43_radial_59_84)"/>
<g filter="url(#filter13_ii_59_84)">
<path d="M389.411 259.767L394.651 260.142C396.31 260.266 397.936 259.547 398.965 258.243L402.261 254.13C404.886 250.858 410.108 252.015 411.128 256.078L412.383 261.189C412.772 262.826 413.957 264.109 415.517 264.702L420.441 266.565C424.38 268.056 424.882 273.4 421.308 275.587L416.82 278.383C415.421 279.265 414.524 280.793 414.436 282.443L414.182 287.725C413.979 291.921 409.059 294.052 405.881 291.365L401.854 287.973C400.576 286.9 398.854 286.534 397.26 286.949L392.185 288.343C388.184 289.458 384.62 285.429 386.198 281.541L388.183 276.659C388.82 275.125 388.655 273.355 387.739 271.966L384.857 267.573C382.506 264.079 385.223 259.451 389.411 259.767Z" fill="url(#paint44_linear_59_84)"/>
<path d="M389.411 259.767L394.651 260.142C396.31 260.266 397.936 259.547 398.965 258.243L402.261 254.13C404.886 250.858 410.108 252.015 411.128 256.078L412.383 261.189C412.772 262.826 413.957 264.109 415.517 264.702L420.441 266.565C424.38 268.056 424.882 273.4 421.308 275.587L416.82 278.383C415.421 279.265 414.524 280.793 414.436 282.443L414.182 287.725C413.979 291.921 409.059 294.052 405.881 291.365L401.854 287.973C400.576 286.9 398.854 286.534 397.26 286.949L392.185 288.343C388.184 289.458 384.62 285.429 386.198 281.541L388.183 276.659C388.82 275.125 388.655 273.355 387.739 271.966L384.857 267.573C382.506 264.079 385.223 259.451 389.411 259.767Z" fill="url(#paint45_radial_59_84)"/>
<path d="M389.411 259.767L394.651 260.142C396.31 260.266 397.936 259.547 398.965 258.243L402.261 254.13C404.886 250.858 410.108 252.015 411.128 256.078L412.383 261.189C412.772 262.826 413.957 264.109 415.517 264.702L420.441 266.565C424.38 268.056 424.882 273.4 421.308 275.587L416.82 278.383C415.421 279.265 414.524 280.793 414.436 282.443L414.182 287.725C413.979 291.921 409.059 294.052 405.881 291.365L401.854 287.973C400.576 286.9 398.854 286.534 397.26 286.949L392.185 288.343C388.184 289.458 384.62 285.429 386.198 281.541L388.183 276.659C388.82 275.125 388.655 273.355 387.739 271.966L384.857 267.573C382.506 264.079 385.223 259.451 389.411 259.767Z" fill="url(#paint46_radial_59_84)"/>
</g>
<path d="M389.411 259.767L394.651 260.142C396.31 260.266 397.936 259.547 398.965 258.243L402.261 254.13C404.886 250.858 410.108 252.015 411.128 256.078L412.383 261.189C412.772 262.826 413.957 264.109 415.517 264.702L420.441 266.565C424.38 268.056 424.882 273.4 421.308 275.587L416.82 278.383C415.421 279.265 414.524 280.793 414.436 282.443L414.182 287.725C413.979 291.921 409.059 294.052 405.881 291.365L401.854 287.973C400.576 286.9 398.854 286.534 397.26 286.949L392.185 288.343C388.184 289.458 384.62 285.429 386.198 281.541L388.183 276.659C388.82 275.125 388.655 273.355 387.739 271.966L384.857 267.573C382.506 264.079 385.223 259.451 389.411 259.767Z" fill="url(#paint47_linear_59_84)"/>
<g filter="url(#filter14_f_59_84)">
<path d="M414.976 279.543C420.86 281.712 439.037 287.155 451.685 278.893C462.852 271.597 454.779 253.462 445.963 245.354" stroke="#FFF38A" stroke-linecap="round"/>
</g>
<g filter="url(#filter15_f_59_84)">
<path d="M354.714 222.335C355.39 213.377 365.36 206.895 379.892 207.58C395.692 208.323 427.776 217.894 451.572 243.609" stroke="url(#paint48_linear_59_84)" stroke-width="0.3" stroke-linecap="round"/>
</g>
<g filter="url(#filter16_f_59_84)">
<path d="M407.095 257.841L407.803 262.066C408.114 263.915 408.904 265.651 410.094 267.1C411.284 268.549 412.833 269.661 414.587 270.326L416.779 271.161" stroke="#FBEC6A" stroke-linecap="round"/>
</g>
</g>
<defs>
<filter id="filter0_i_59_84" x="295.493" y="23.9087" width="104.338" height="113.369" filterUnits="userSpaceOnUse" color-interpolation-filters="sRGB">
<feFlood flood-opacity="0" result="BackgroundImageFix"/>
<feBlend mode="normal" in="SourceGraphic" in2="BackgroundImageFix" result="shape"/>
<feColorMatrix in="SourceAlpha" type="matrix" values="0 0 0 0 0 0 0 0 0 0 0 0 0 0 0 0 0 0 127 0" result="hardAlpha"/>
<feOffset dx="0.65" dy="-0.65"/>
<feGaussianBlur stdDeviation="1"/>
<feComposite in2="hardAlpha" operator="arithmetic" k2="-1" k3="1"/>
<feColorMatrix type="matrix" values="0 0 0 0 0.94902 0 0 0 0 0.486275 0 0 0 0 0.380392 0 0 0 1 0"/>
<feBlend mode="normal" in2="shape" result="effect1_innerShadow_59_84"/>
</filter>
<filter id="filter1_f_59_84" x="332.001" y="65.2279" width="20.5676" height="25.2699" filterUnits="userSpaceOnUse" color-interpolation-filters="sRGB">
<feFlood flood-opacity="0" result="BackgroundImageFix"/>
<feBlend mode="normal" in="SourceGraphic" in2="BackgroundImageFix" result="shape"/>
<feGaussianBlur stdDeviation="0.75" result="effect1_foregroundBlur_59_84"/>
</filter>
<filter id="filter2_f_59_84" x="313.661" y="66.3257" width="25.1634" height="31.0609" filterUnits="userSpaceOnUse" color-interpolation-filters="sRGB">
<feFlood flood-opacity="0" result="BackgroundImageFix"/>
<feBlend mode="normal" in="SourceGraphic" in2="BackgroundImageFix" result="shape"/>
<feGaussianBlur stdDeviation="1" result="effect1_foregroundBlur_59_84"/>
</filter>
<filter id="filter3_i_59_84" x="315.671" y="61.528" width="25.1835" height="31.3979" filterUnits="userSpaceOnUse" color-interpolation-filters="sRGB">
<feFlood flood-opacity="0" result="BackgroundImageFix"/>
<feBlend mode="normal" in="SourceGraphic" in2="BackgroundImageFix" result="shape"/>
<feColorMatrix in="SourceAlpha" type="matrix" values="0 0 0 0 0 0 0 0 0 0 0 0 0 0 0 0 0 0 127 0" result="hardAlpha"/>
<feOffset dx="0.75" dy="-0.75"/>
<feGaussianBlur stdDeviation="1"/>
<feComposite in2="hardAlpha" operator="arithmetic" k2="-1" k3="1"/>
<feColorMatrix type="matrix" values="0 0 0 0 0.921569 0 0 0 0 0.533333 0 0 0 0 0.223529 0 0 0 1 0"/>
<feBlend mode="normal" in2="shape" result="effect1_innerShadow_59_84"/>
</filter>
<filter id="filter4_i_59_84" x="329.557" y="49.3767" width="27.1581" height="36.803" filterUnits="userSpaceOnUse" color-interpolation-filters="sRGB">
<feFlood flood-opacity="0" result="BackgroundImageFix"/>
<feBlend mode="normal" in="SourceGraphic" in2="BackgroundImageFix" result="shape"/>
<feColorMatrix in="SourceAlpha" type="matrix" values="0 0 0 0 0 0 0 0 0 0 0 0 0 0 0 0 0 0 127 0" result="hardAlpha"/>
<feOffset dx="0.75" dy="-0.75"/>
<feGaussianBlur stdDeviation="1"/>
<feComposite in2="hardAlpha" operator="arithmetic" k2="-1" k3="1"/>
<feColorMatrix type="matrix" values="0 0 0 0 0.921569 0 0 0 0 0.533333 0 0 0 0 0.223529 0 0 0 1 0"/>
<feBlend mode="normal" in2="shape" result="effect1_innerShadow_59_84"/>
</filter>
<filter id="filter5_f_59_84" x="345.937" y="28.1511" width="22.3071" height="40.553" filterUnits="userSpaceOnUse" color-interpolation-filters="sRGB">
<feFlood flood-opacity="0" result="BackgroundImageFix"/>
<feBlend mode="normal" in="SourceGraphic" in2="BackgroundImageFix" result="shape"/>
<feGaussianBlur stdDeviation="0.75" result="effect1_foregroundBlur_59_84"/>
</filter>
<filter id="filter6_f_59_84" x="338.002" y="53.3217" width="16.7324" height="26.6674" filterUnits="userSpaceOnUse" color-interpolation-filters="sRGB">
<feFlood flood-opacity="0" result="BackgroundImageFix"/>
<feBlend mode="normal" in="SourceGraphic" in2="BackgroundImageFix" result="shape"/>
<feGaussianBlur stdDeviation="1" result="effect1_foregroundBlur_59_84"/>
</filter>
<filter id="filter7_d_59_84" x="84.2794" y="119.749" width="333.052" height="219.821" filterUnits="userSpaceOnUse" color-interpolation-filters="sRGB">
<feFlood flood-opacity="0" result="BackgroundImageFix"/>
<feColorMatrix in="SourceAlpha" type="matrix" values="0 0 0 0 0 0 0 0 0 0 0 0 0 0 0 0 0 0 127 0" result="hardAlpha"/>
<feOffset dy="5"/>
<feGaussianBlur stdDeviation="2"/>
<feComposite in2="hardAlpha" operator="out"/>
<feColorMatrix type="matrix" values="0 0 0 0 1 0 0 0 0 0.831373 0 0 0 0 0.388235 0 0 0 1 0"/>
<feBlend mode="normal" in2="BackgroundImageFix" result="effect1_dropShadow_59_84"/>
<feBlend mode="normal" in="SourceGraphic" in2="effect1_dropShadow_59_84" result="shape"/>
</filter>
<filter id="filter8_ii_59_84" x="92.883" y="194.088" width="27.6642" height="32.367" filterUnits="userSpaceOnUse" color-interpolation-filters="sRGB">
<feFlood flood-opacity="0" result="BackgroundImageFix"/>
<feBlend mode="normal" in="SourceGraphic" in2="BackgroundImageFix" result="shape"/>
<feColorMatrix in="SourceAlpha" type="matrix" values="0 0 0 0 0 0 0 0 0 0 0 0 0 0 0 0 0 0 127 0" result="hardAlpha"/>
<feOffset dx="0.15" dy="-0.15"/>
<feGaussianBlur stdDeviation="0.375"/>
<feComposite in2="hardAlpha" operator="arithmetic" k2="-1" k3="1"/>
<feColorMatrix type="matrix" values="0 0 0 0 0.94902 0 0 0 0 0.513726 0 0 0 0 0.392157 0 0 0 1 0"/>
<feBlend mode="normal" in2="shape" result="effect1_innerShadow_59_84"/>
<feColorMatrix in="SourceAlpha" type="matrix" values="0 0 0 0 0 0 0 0 0 0 0 0 0 0 0 0 0 0 127 0" result="hardAlpha"/>
<feOffset dx="-0.15" dy="0.15"/>
<feGaussianBlur stdDeviation="0.3"/>
<feComposite in2="hardAlpha" operator="arithmetic" k2="-1" k3="1"/>
<feColorMatrix type="matrix" values="0 0 0 0 1 0 0 0 0 0.823529 0 0 0 0 0.407843 0 0 0 1 0"/>
<feBlend mode="normal" in2="effect1_innerShadow_59_84" result="effect2_innerShadow_59_84"/>
</filter>
<filter id="filter9_ii_59_84" x="50.029" y="198.138" width="20.7535" height="24.2688" filterUnits="userSpaceOnUse" color-interpolation-filters="sRGB">
<feFlood flood-opacity="0" result="BackgroundImageFix"/>
<feBlend mode="normal" in="SourceGraphic" in2="BackgroundImageFix" result="shape"/>
<feColorMatrix in="SourceAlpha" type="matrix" values="0 0 0 0 0 0 0 0 0 0 0 0 0 0 0 0 0 0 127 0" result="hardAlpha"/>
<feOffset dx="0.15" dy="-0.15"/>
<feGaussianBlur stdDeviation="0.375"/>
<feComposite in2="hardAlpha" operator="arithmetic" k2="-1" k3="1"/>
<feColorMatrix type="matrix" values="0 0 0 0 0.94902 0 0 0 0 0.513726 0 0 0 0 0.392157 0 0 0 1 0"/>
<feBlend mode="normal" in2="shape" result="effect1_innerShadow_59_84"/>
<feColorMatrix in="SourceAlpha" type="matrix" values="0 0 0 0 0 0 0 0 0 0 0 0 0 0 0 0 0 0 127 0" result="hardAlpha"/>
<feOffset dx="-0.15" dy="0.15"/>
<feGaussianBlur stdDeviation="0.3"/>
<feComposite in2="hardAlpha" operator="arithmetic" k2="-1" k3="1"/>
<feColorMatrix type="matrix" values="0 0 0 0 1 0 0 0 0 0.823529 0 0 0 0 0.407843 0 0 0 1 0"/>
<feBlend mode="normal" in2="effect1_innerShadow_59_84" result="effect2_innerShadow_59_84"/>
</filter>
<filter id="filter10_ii_59_84" x="88.4887" y="242.246" width="20.7536" height="24.2802" filterUnits="userSpaceOnUse" color-interpolation-filters="sRGB">
<feFlood flood-opacity="0" result="BackgroundImageFix"/>
<feBlend mode="normal" in="SourceGraphic" in2="BackgroundImageFix" result="shape"/>
<feColorMatrix in="SourceAlpha" type="matrix" values="0 0 0 0 0 0 0 0 0 0 0 0 0 0 0 0 0 0 127 0" result="hardAlpha"/>
<feOffset dx="0.15" dy="-0.15"/>
<feGaussianBlur stdDeviation="0.375"/>
<feComposite in2="hardAlpha" operator="arithmetic" k2="-1" k3="1"/>
<feColorMatrix type="matrix" values="0 0 0 0 0.94902 0 0 0 0 0.513726 0 0 0 0 0.392157 0 0 0 1 0"/>
<feBlend mode="normal" in2="shape" result="effect1_innerShadow_59_84"/>
<feColorMatrix in="SourceAlpha" type="matrix" values="0 0 0 0 0 0 0 0 0 0 0 0 0 0 0 0 0 0 127 0" result="hardAlpha"/>
<feOffset dx="-0.15" dy="0.15"/>
<feGaussianBlur stdDeviation="0.3"/>
<feComposite in2="hardAlpha" operator="arithmetic" k2="-1" k3="1"/>
<feColorMatrix type="matrix" values="0 0 0 0 1 0 0 0 0 0.823529 0 0 0 0 0.407843 0 0 0 1 0"/>
<feBlend mode="normal" in2="effect1_innerShadow_59_84" result="effect2_innerShadow_59_84"/>
</filter>
<filter id="filter11_f_59_84" x="16.1013" y="234.744" width="62.307" height="62.5629" filterUnits="userSpaceOnUse" color-interpolation-filters="sRGB">
<feFlood flood-opacity="0" result="BackgroundImageFix"/>
<feBlend mode="normal" in="SourceGraphic" in2="BackgroundImageFix" result="shape"/>
<feGaussianBlur stdDeviation="0.25" result="effect1_foregroundBlur_59_84"/>
</filter>
<filter id="filter12_i_59_84" x="8.84502" y="289.177" width="16.6163" height="17.0216" filterUnits="userSpaceOnUse" color-interpolation-filters="sRGB">
<feFlood flood-opacity="0" result="BackgroundImageFix"/>
<feBlend mode="normal" in="SourceGraphic" in2="BackgroundImageFix" result="shape"/>
<feColorMatrix in="SourceAlpha" type="matrix" values="0 0 0 0 0 0 0 0 0 0 0 0 0 0 0 0 0 0 127 0" result="hardAlpha"/>
<feOffset dx="-0.1" dy="-0.5"/>
<feGaussianBlur stdDeviation="0.5"/>
<feComposite in2="hardAlpha" operator="arithmetic" k2="-1" k3="1"/>
<feColorMatrix type="matrix" values="0 0 0 0 0.698039 0 0 0 0 0.619608 0 0 0 0 0.792157 0 0 0 1 0"/>
<feBlend mode="normal" in2="shape" result="effect1_innerShadow_59_84"/>
</filter>
<filter id="filter13_ii_59_84" x="383.937" y="252.182" width="40.028" height="40.6254" filterUnits="userSpaceOnUse" color-interpolation-filters="sRGB">
<feFlood flood-opacity="0" result="BackgroundImageFix"/>
<feBlend mode="normal" in="SourceGraphic" in2="BackgroundImageFix" result="shape"/>
<feColorMatrix in="SourceAlpha" type="matrix" values="0 0 0 0 0 0 0 0 0 0 0 0 0 0 0 0 0 0 127 0" result="hardAlpha"/>
<feOffset dx="0.25" dy="0.25"/>
<feGaussianBlur stdDeviation="0.75"/>
<feComposite in2="hardAlpha" operator="arithmetic" k2="-1" k3="1"/>
<feColorMatrix type="matrix" values="0 0 0 0 1 0 0 0 0 0.65098 0 0 0 0 0.396078 0 0 0 1 0"/>
<feBlend mode="normal" in2="shape" result="effect1_innerShadow_59_84"/>
<feColorMatrix in="SourceAlpha" type="matrix" values="0 0 0 0 0 0 0 0 0 0 0 0 0 0 0 0 0 0 127 0" result="hardAlpha"/>
<feOffset dx="-0.05" dy="-0.05"/>
<feGaussianBlur stdDeviation="0.125"/>
<feComposite in2="hardAlpha" operator="arithmetic" k2="-1" k3="1"/>
<feColorMatrix type="matrix" values="0 0 0 0 1 0 0 0 0 0.619535 0 0 0 0 0.341667 0 0 0 1 0"/>
<feBlend mode="normal" in2="effect1_innerShadow_59_84" result="effect2_innerShadow_59_84"/>
</filter>
<filter id="filter14_f_59_84" x="412.476" y="242.854" width="47.1555" height="42.962" filterUnits="userSpaceOnUse" color-interpolation-filters="sRGB">
<feFlood flood-opacity="0" result="BackgroundImageFix"/>
<feBlend mode="normal" in="SourceGraphic" in2="BackgroundImageFix" result="shape"/>
<feGaussianBlur stdDeviation="1" result="effect1_foregroundBlur_59_84"/>
</filter>
<filter id="filter15_f_59_84" x="353.564" y="206.38" width="99.1583" height="38.3792" filterUnits="userSpaceOnUse" color-interpolation-filters="sRGB">
<feFlood flood-opacity="0" result="BackgroundImageFix"/>
<feBlend mode="normal" in="SourceGraphic" in2="BackgroundImageFix" result="shape"/>
<feGaussianBlur stdDeviation="0.5" result="effect1_foregroundBlur_59_84"/>
</filter>
<filter id="filter16_f_59_84" x="404.595" y="255.341" width="14.6843" height="18.3209" filterUnits="userSpaceOnUse" color-interpolation-filters="sRGB">
<feFlood flood-opacity="0" result="BackgroundImageFix"/>
<feBlend mode="normal" in="SourceGraphic" in2="BackgroundImageFix" result="shape"/>
<feGaussianBlur stdDeviation="1" result="effect1_foregroundBlur_59_84"/>
</filter>
<radialGradient id="paint0_radial_59_84" cx="0" cy="0" r="1" gradientUnits="userSpaceOnUse" gradientTransform="translate(323.301 75.2765) rotate(140.171) scale(24.8273 13.4067)">
<stop stop-color="#E79330"/>
<stop offset="1" stop-color="#E79330" stop-opacity="0"/>
</radialGradient>
<radialGradient id="paint1_radial_59_84" cx="0" cy="0" r="1" gradientUnits="userSpaceOnUse" gradientTransform="translate(381.551 77.4518) rotate(138.684) scale(36.2543 49.195)">
<stop stop-color="#FFE542"/>
<stop offset="1" stop-color="#FFE542" stop-opacity="0"/>
</radialGradient>
<radialGradient id="paint2_radial_59_84" cx="0" cy="0" r="1" gradientUnits="userSpaceOnUse" gradientTransform="translate(405.158 65.7084) rotate(147.581) scale(31.4757 49.4223)">
<stop offset="0.693" stop-color="#FFDC42" stop-opacity="0"/>
<stop offset="1" stop-color="#FFDC42"/>
</radialGradient>
<radialGradient id="paint3_radial_59_84" cx="0" cy="0" r="1" gradientUnits="userSpaceOnUse" gradientTransform="translate(394.752 77.806) rotate(112.563) scale(33.5819 7.43969)">
<stop stop-color="#F2A159"/>
<stop offset="1" stop-color="#F2A159" stop-opacity="0"/>
</radialGradient>
<radialGradient id="paint4_radial_59_84" cx="0" cy="0" r="1" gradientUnits="userSpaceOnUse" gradientTransform="translate(396.013 52.3824) rotate(129.643) scale(11.8938 13.5757)">
<stop offset="0.103" stop-color="#FFE847"/>
<stop offset="1" stop-color="#FFE847" stop-opacity="0"/>
</radialGradient>
<radialGradient id="paint5_radial_59_84" cx="0" cy="0" r="1" gradientUnits="userSpaceOnUse" gradientTransform="translate(377.277 58.7278) rotate(36.8956) scale(3.32044 10.4485)">
<stop stop-color="#D4A33C"/>
<stop offset="1" stop-color="#D4A33C" stop-opacity="0"/>
</radialGradient>
<linearGradient id="paint6_linear_59_84" x1="342.913" y1="52.1441" x2="349.738" y2="49.3024" gradientUnits="userSpaceOnUse">
<stop stop-color="#E3961F"/>
<stop offset="1" stop-color="#E3961F" stop-opacity="0"/>
</linearGradient>
<linearGradient id="paint7_linear_59_84" x1="358.148" y1="64.0998" x2="354.635" y2="55.6633" gradientUnits="userSpaceOnUse">
<stop stop-color="#FEC942"/>
<stop offset="1" stop-color="#FEC942" stop-opacity="0"/>
</linearGradient>
<radialGradient id="paint8_radial_59_84" cx="0" cy="0" r="1" gradientUnits="userSpaceOnUse" gradientTransform="translate(354.702 20.8868) rotate(108.397) scale(14.984 25.4198)">
<stop stop-color="#FFE645"/>
<stop offset="1" stop-color="#FFE645" stop-opacity="0"/>
</radialGradient>
<radialGradient id="paint9_radial_59_84" cx="0" cy="0" r="1" gradientUnits="userSpaceOnUse" gradientTransform="translate(347.257 56.6863) rotate(-22.6044) scale(3.36399 11.774)">
<stop offset="0.216" stop-color="#D17703"/>
<stop offset="1" stop-color="#D17703" stop-opacity="0"/>
</radialGradient>
<linearGradient id="paint10_linear_59_84" x1="321.229" y1="74.2817" x2="331.434" y2="70.5037" gradientUnits="userSpaceOnUse">
<stop stop-color="#FABB25"/>
<stop offset="1" stop-color="#FFD43E"/>
</linearGradient>
<linearGradient id="paint11_linear_59_84" x1="335.686" y1="74.3554" x2="333.876" y2="75.109" gradientUnits="userSpaceOnUse">
<stop stop-color="#E59617"/>
<stop offset="1" stop-color="#E59617" stop-opacity="0"/>
</linearGradient>
<radialGradient id="paint12_radial_59_84" cx="0" cy="0" r="1" gradientUnits="userSpaceOnUse" gradientTransform="translate(333.155 64.3855) rotate(126.575) scale(4.14256 8.64916)">
<stop offset="0.215" stop-color="#AD690C"/>
<stop offset="1" stop-color="#AD690C" stop-opacity="0"/>
</radialGradient>
<linearGradient id="paint13_linear_59_84" x1="334.399" y1="64.9425" x2="349.398" y2="58.6976" gradientUnits="userSpaceOnUse">
<stop stop-color="#FABB25"/>
<stop offset="1" stop-color="#FFD43E"/>
</linearGradient>
<linearGradient id="paint14_linear_59_84" x1="349.374" y1="29.8935" x2="364.807" y2="66.9617" gradientUnits="userSpaceOnUse">
<stop stop-color="#FFE948"/>
<stop offset="1" stop-color="#FFE948" stop-opacity="0"/>
</linearGradient>
<linearGradient id="paint15_linear_59_84" x1="77.3531" y1="238.561" x2="20.8002" y2="296.373" gradientUnits="userSpaceOnUse">
<stop stop-color="#60105F"/>
<stop offset="1" stop-color="#54155E"/>
</linearGradient>
<linearGradient id="paint16_linear_59_84" x1="22.1193" y1="282.989" x2="28.0271" y2="288.832" gradientUnits="userSpaceOnUse">
<stop stop-color="#523253"/>
<stop offset="1" stop-color="#523253" stop-opacity="0"/>
</linearGradient>
<linearGradient id="paint17_linear_59_84" x1="116.553" y1="202.732" x2="100.611" y2="218.686" gradientUnits="userSpaceOnUse">
<stop stop-color="#FFD459"/>
<stop offset="1" stop-color="#FFA271"/>
</linearGradient>
<linearGradient id="paint18_linear_59_84" x1="67.7574" y1="204.634" x2="55.8411" y2="216.562" gradientUnits="userSpaceOnUse">
<stop stop-color="#FFD465"/>
<stop offset="1" stop-color="#FFAF36"/>
</linearGradient>
<linearGradient id="paint19_linear_59_84" x1="106.213" y1="248.748" x2="94.2965" y2="260.676" gradientUnits="userSpaceOnUse">
<stop stop-color="#FFD465"/>
<stop offset="1" stop-color="#FFAF36"/>
</linearGradient>
<radialGradient id="paint20_radial_59_84" cx="0" cy="0" r="1" gradientUnits="userSpaceOnUse" gradientTransform="translate(117.868 236.317) rotate(127.823) scale(7.53962 7.05176)">
<stop stop-color="#FFD463"/>
<stop offset="1" stop-color="#E68F2B"/>
</radialGradient>
<radialGradient id="paint21_radial_59_84" cx="0" cy="0" r="1" gradientUnits="userSpaceOnUse" gradientTransform="translate(115.656 234.982) rotate(90) scale(8.2928 7.22906)">
<stop offset="0.797" stop-color="#E37A42" stop-opacity="0"/>
<stop offset="1" stop-color="#E37A42"/>
</radialGradient>
<radialGradient id="paint22_radial_59_84" cx="0" cy="0" r="1" gradientUnits="userSpaceOnUse" gradientTransform="translate(78.7205 269.178) rotate(127.823) scale(7.53961 7.05176)">
<stop stop-color="#FFD463"/>
<stop offset="1" stop-color="#E68F2B"/>
</radialGradient>
<radialGradient id="paint23_radial_59_84" cx="0" cy="0" r="1" gradientUnits="userSpaceOnUse" gradientTransform="translate(76.5046 267.847) rotate(90) scale(8.2928 7.22906)">
<stop offset="0.797" stop-color="#E37A42" stop-opacity="0"/>
<stop offset="1" stop-color="#E37A42"/>
</radialGradient>
<radialGradient id="paint24_radial_59_84" cx="0" cy="0" r="1" gradientUnits="userSpaceOnUse" gradientTransform="translate(50.5983 237.244) rotate(127.823) scale(7.24326 6.77457)">
<stop stop-color="#FFD463"/>
<stop offset="1" stop-color="#E68F2B"/>
</radialGradient>
<radialGradient id="paint25_radial_59_84" cx="0" cy="0" r="1" gradientUnits="userSpaceOnUse" gradientTransform="translate(48.4734 235.959) rotate(90) scale(7.9668 6.94489)">
<stop offset="0.797" stop-color="#E37A42" stop-opacity="0"/>
<stop offset="1" stop-color="#E37A42"/>
</radialGradient>
<radialGradient id="paint26_radial_59_84" cx="0" cy="0" r="1" gradientUnits="userSpaceOnUse" gradientTransform="translate(78.3586 196.711) rotate(127.823) scale(6.04595 5.65473)">
<stop stop-color="#FFD463"/>
<stop offset="1" stop-color="#E68F2B"/>
</radialGradient>
<radialGradient id="paint27_radial_59_84" cx="0" cy="0" r="1" gradientUnits="userSpaceOnUse" gradientTransform="translate(76.585 195.645) rotate(90) scale(6.64986 5.7969)">
<stop offset="0.869" stop-color="#E37A42" stop-opacity="0"/>
<stop offset="1" stop-color="#E37A42"/>
</radialGradient>
<linearGradient id="paint28_linear_59_84" x1="74.5902" y1="239.82" x2="16.7785" y2="296.626" gradientUnits="userSpaceOnUse">
<stop stop-color="#692167"/>
<stop offset="1" stop-color="#5B2460"/>
</linearGradient>
<linearGradient id="paint29_linear_59_84" x1="75.7968" y1="230.518" x2="79.8265" y2="234.33" gradientUnits="userSpaceOnUse">
<stop stop-color="#C1BFC3"/>
<stop offset="1" stop-color="#C1BFC3" stop-opacity="0"/>
</linearGradient>
<linearGradient id="paint30_linear_59_84" x1="86.1526" y1="237.998" x2="83.639" y2="235.36" gradientUnits="userSpaceOnUse">
<stop stop-color="#B0A1BF"/>
<stop offset="1" stop-color="#B0A1BF" stop-opacity="0"/>
</linearGradient>
<radialGradient id="paint31_radial_59_84" cx="0" cy="0" r="1" gradientUnits="userSpaceOnUse" gradientTransform="translate(87.6607 226.874) rotate(133.939) scale(4.7997 5.79871)">
<stop offset="0.21" stop-color="#ECE8F2"/>
<stop offset="1" stop-color="#ECE8F2" stop-opacity="0"/>
</radialGradient>
<linearGradient id="paint32_linear_59_84" x1="13.2032" y1="293.111" x2="17.2008" y2="297.105" gradientUnits="userSpaceOnUse">
<stop stop-color="#A8A6AD"/>
<stop offset="1" stop-color="#A8A6AD" stop-opacity="0"/>
</linearGradient>
<linearGradient id="paint33_linear_59_84" x1="10.4926" y1="305.8" x2="13.6375" y2="301.903" gradientUnits="userSpaceOnUse">
<stop stop-color="#968FA1"/>
<stop offset="1" stop-color="#968FA1" stop-opacity="0"/>
</linearGradient>
<radialGradient id="paint34_radial_59_84" cx="0" cy="0" r="1" gradientUnits="userSpaceOnUse" gradientTransform="translate(17.2008 290.34) rotate(98.4726) scale(19.5044 19.9113)">
<stop offset="0.661" stop-color="#8F6EAF" stop-opacity="0"/>
<stop offset="0.918" stop-color="#8F6EAF"/>
</radialGradient>
<radialGradient id="paint35_radial_59_84" cx="0" cy="0" r="1" gradientUnits="userSpaceOnUse" gradientTransform="translate(424.337 250.003) rotate(-36.4815) scale(24.5977 47.0364)">
<stop stop-color="#EC9F57"/>
<stop offset="1" stop-color="#F7D520"/>
</radialGradient>
<radialGradient id="paint36_radial_59_84" cx="0" cy="0" r="1" gradientUnits="userSpaceOnUse" gradientTransform="translate(356.841 251.838) rotate(-90.6243) scale(80.6973 20.8358)">
<stop stop-color="#EC9F57"/>
<stop offset="0.642" stop-color="#EC9F57" stop-opacity="0"/>
</radialGradient>
<radialGradient id="paint37_radial_59_84" cx="0" cy="0" r="1" gradientUnits="userSpaceOnUse" gradientTransform="translate(443.642 253.996) rotate(56.801) scale(22.4302 7.23712)">
<stop stop-color="#EC9F57"/>
<stop offset="0.945" stop-color="#EC9F57" stop-opacity="0"/>
</radialGradient>
<radialGradient id="paint38_radial_59_84" cx="0" cy="0" r="1" gradientUnits="userSpaceOnUse" gradientTransform="translate(408.185 246.574) rotate(-55.7692) scale(30.921 91.7769)">
<stop stop-color="#E48A35"/>
<stop offset="0.693" stop-color="#EC9F57" stop-opacity="0"/>
</radialGradient>
<radialGradient id="paint39_radial_59_84" cx="0" cy="0" r="1" gradientUnits="userSpaceOnUse" gradientTransform="translate(415.628 236.081) rotate(-145.378) scale(43.1517 12.0733)">
<stop offset="0.344" stop-color="#D8700F"/>
<stop offset="1" stop-color="#D8700F" stop-opacity="0"/>
</radialGradient>
<linearGradient id="paint40_linear_59_84" x1="384.132" y1="194.106" x2="387.51" y2="212.419" gradientUnits="userSpaceOnUse">
<stop stop-color="#E48A35"/>
<stop offset="0.693" stop-color="#EC9F57" stop-opacity="0"/>
</linearGradient>
<radialGradient id="paint41_radial_59_84" cx="0" cy="0" r="1" gradientUnits="userSpaceOnUse" gradientTransform="translate(438.706 254.588) rotate(-172.54) scale(39.3482 46.305)">
<stop offset="0.615" stop-color="#EC9F57" stop-opacity="0"/>
<stop offset="1" stop-color="#E48A35"/>
</radialGradient>
<linearGradient id="paint42_linear_59_84" x1="477.723" y1="259.697" x2="393.415" y2="262.672" gradientUnits="userSpaceOnUse">
<stop offset="0.677" stop-color="#EC9F57" stop-opacity="0"/>
<stop offset="1" stop-color="#E48A35"/>
</linearGradient>
<radialGradient id="paint43_radial_59_84" cx="0" cy="0" r="1" gradientUnits="userSpaceOnUse" gradientTransform="translate(447.924 253.574) rotate(-95.9819) scale(53.8593 78.8127)">
<stop offset="0.615" stop-color="#D8700F" stop-opacity="0"/>
<stop offset="0.781" stop-color="#D8700F"/>
</radialGradient>
<linearGradient id="paint44_linear_59_84" x1="432.326" y1="256.711" x2="392.616" y2="292.474" gradientUnits="userSpaceOnUse">
<stop stop-color="#FBED1D"/>
<stop offset="1" stop-color="#FBB016"/>
</linearGradient>
<radialGradient id="paint45_radial_59_84" cx="0" cy="0" r="1" gradientUnits="userSpaceOnUse" gradientTransform="translate(420.124 277.799) rotate(33.7367) scale(7.93909 12.1554)">
<stop stop-color="#FBB016"/>
<stop offset="0.714" stop-color="#FBB016" stop-opacity="0"/>
</radialGradient>
<radialGradient id="paint46_radial_59_84" cx="0" cy="0" r="1" gradientUnits="userSpaceOnUse" gradientTransform="translate(386.091 285.153) rotate(-28.0842) scale(17.2516 26.4137)">
<stop stop-color="#FBA900"/>
<stop offset="0.714" stop-color="#FBB016" stop-opacity="0"/>
</radialGradient>
<linearGradient id="paint47_linear_59_84" x1="424.685" y1="252.225" x2="409.83" y2="265.338" gradientUnits="userSpaceOnUse">
<stop offset="0.508" stop-color="#FBEC6A"/>
<stop offset="1" stop-color="#FBEC6A" stop-opacity="0"/>
</linearGradient>
<linearGradient id="paint48_linear_59_84" x1="360.77" y1="214.519" x2="473.124" y2="250.025" gradientUnits="userSpaceOnUse">
<stop offset="0.677" stop-color="#FFF59F"/>
<stop offset="1" stop-color="#FFF38A" stop-opacity="0"/>
</linearGradient>
<clipPath id="clip0_59_84">
<rect width="123.026" height="123.026" fill="white" transform="translate(270.619 47.2869) rotate(-22.6044)"/>
</clipPath>
<clipPath id="clip1_59_84">
<rect width="114.562" height="114.562" fill="white" transform="translate(348.959 207.037) rotate(-14.5833)"/>
</clipPath>
</defs>
</svg>
