<svg width="150" height="150" viewBox="0 0 150 150" fill="none" xmlns="http://www.w3.org/2000/svg">
<g filter="url(#filter0_iii_84_1897)">
<path d="M103.373 28.6594C71.6204 12.8157 33.9844 18.9329 16.8375 46.6407C-0.314014 74.3532 10.6079 111.234 41.2454 129.009C56.2969 137.742 80.5969 146.663 90.4688 134.766C100.148 123.113 85.875 115.734 89.2032 109.28C94.5657 98.9063 118.556 112.514 134.25 95.7469C151.927 76.8376 134.288 44.0907 103.373 28.6594ZM112.875 89.5547C104.611 89.5547 98.6719 83.6579 98.6719 75.6563C98.6719 67.6594 104.611 61.7626 112.875 61.7626C121.134 61.7626 127.078 67.6594 127.078 75.6563C127.078 83.6579 121.134 89.5547 112.875 89.5547Z" fill="url(#paint0_linear_84_1897)"/>
</g>
<g filter="url(#filter1_f_84_1897)">
<path d="M38.0016 71.925C40.7242 71.925 43.3353 70.8435 45.2605 68.9183C47.1857 66.9931 48.2672 64.382 48.2672 61.6594C48.2672 58.9368 47.1857 56.3257 45.2605 54.4005C43.3353 52.4754 40.7242 51.3938 38.0016 51.3938C35.279 51.3938 32.6679 52.4754 30.7427 54.4005C28.8175 56.3257 27.736 58.9368 27.736 61.6594C27.736 64.382 28.8175 66.9931 30.7427 68.9183C32.6679 70.8435 35.279 71.925 38.0016 71.925Z" fill="#CB758C"/>
</g>
<g filter="url(#filter2_f_84_1897)">
<path d="M66.0188 53.0625C68.7414 53.0625 71.3525 51.9809 73.2777 50.0558C75.2029 48.1306 76.2844 45.5195 76.2844 42.7969C76.2844 40.0743 75.2029 37.4632 73.2777 35.538C71.3525 33.6128 68.7414 32.5312 66.0188 32.5312C63.2962 32.5312 60.6851 33.6128 58.7599 35.538C56.8347 37.4632 55.7532 40.0743 55.7532 42.7969C55.7532 45.5195 56.8347 48.1306 58.7599 50.0558C60.6851 51.9809 63.2962 53.0625 66.0188 53.0625Z" fill="#CB758C"/>
</g>
<g filter="url(#filter3_f_84_1897)">
<path d="M63.7125 126.333C66.4351 126.333 69.0462 125.251 70.9714 123.326C72.8966 121.401 73.9781 118.79 73.9781 116.067C73.9781 113.345 72.8966 110.734 70.9714 108.808C69.0462 106.883 66.4351 105.802 63.7125 105.802C60.9899 105.802 58.3788 106.883 56.4536 108.808C54.5285 110.734 53.4469 113.345 53.4469 116.067C53.4469 118.79 54.5285 121.401 56.4536 123.326C58.3788 125.251 60.9899 126.333 63.7125 126.333Z" fill="#CB758C"/>
</g>
<g filter="url(#filter4_f_84_1897)">
<path d="M39.6047 102.895C42.3274 102.895 44.9385 101.814 46.8636 99.8887C48.7888 97.9635 49.8704 95.3524 49.8704 92.6298C49.8704 89.9072 48.7888 87.2961 46.8636 85.3709C44.9385 83.4457 42.3274 82.3641 39.6047 82.3641C36.8821 82.3641 34.271 83.4457 32.3458 85.3709C30.4207 87.2961 29.3391 89.9072 29.3391 92.6298C29.3391 95.3524 30.4207 97.9635 32.3458 99.8887C34.271 101.814 36.8821 102.895 39.6047 102.895Z" fill="#EDB88B"/>
</g>
<g filter="url(#filter5_f_84_1897)">
<path d="M39.9703 70.2281C42.693 70.2281 45.3041 69.1466 47.2292 67.2214C49.1544 65.2962 50.236 62.6851 50.236 59.9625C50.236 57.2399 49.1544 54.6288 47.2292 52.7036C45.3041 50.7785 42.693 49.6969 39.9703 49.6969C37.2477 49.6969 34.6366 50.7785 32.7114 52.7036C30.7863 54.6288 29.7047 57.2399 29.7047 59.9625C29.7047 62.6851 30.7863 65.2962 32.7114 67.2214C34.6366 69.1466 37.2477 70.2281 39.9703 70.2281Z" fill="#EDB88B"/>
</g>
<g filter="url(#filter6_f_84_1897)">
<path d="M68.9016 51.3892C71.6242 51.3892 74.2353 50.3076 76.1605 48.3824C78.0857 46.4572 79.1672 43.8461 79.1672 41.1235C79.1672 38.4009 78.0857 35.7898 76.1605 33.8646C74.2353 31.9395 71.6242 30.8579 68.9016 30.8579C66.179 30.8579 63.5679 31.9395 61.6427 33.8646C59.7175 35.7898 58.636 38.4009 58.636 41.1235C58.636 43.8461 59.7175 46.4572 61.6427 48.3824C63.5679 50.3076 66.179 51.3892 68.9016 51.3892Z" fill="#EDB88B"/>
</g>
<g filter="url(#filter7_ii_84_1897)">
<path d="M67.4531 52.8798C68.8382 52.8798 70.2096 52.607 71.4892 52.0769C72.7688 51.5469 73.9315 50.77 74.9109 49.7907C75.8903 48.8113 76.6671 47.6486 77.1972 46.369C77.7272 45.0894 78 43.7179 78 42.3329C78 40.9479 77.7272 39.5764 77.1972 38.2968C76.6671 37.0172 75.8903 35.8545 74.9109 34.8751C73.9315 33.8957 72.7688 33.1189 71.4892 32.5888C70.2096 32.0588 68.8382 31.786 67.4531 31.786C64.6559 31.786 61.9733 32.8972 59.9954 34.8751C58.0174 36.853 56.9062 39.5357 56.9062 42.3329C56.9062 45.1301 58.0174 47.8127 59.9954 49.7907C61.9733 51.7686 64.6559 52.8798 67.4531 52.8798Z" fill="url(#paint1_linear_84_1897)"/>
</g>
<g filter="url(#filter8_ii_84_1897)">
<path d="M39.3281 71.6298C42.1253 71.6298 44.808 70.5186 46.7859 68.5407C48.7638 66.5627 49.875 63.8801 49.875 61.0829C49.875 58.2857 48.7638 55.603 46.7859 53.6251C44.808 51.6472 42.1253 50.536 39.3281 50.536C36.5309 50.536 33.8483 51.6472 31.8704 53.6251C29.8924 55.603 28.7812 58.2857 28.7812 61.0829C28.7813 63.8801 29.8924 66.5627 31.8704 68.5407C33.8483 70.5186 36.5309 71.6298 39.3281 71.6298Z" fill="url(#paint2_linear_84_1897)"/>
</g>
<g filter="url(#filter9_f_84_1897)">
<path d="M38.0016 105.202C40.7242 105.202 43.3353 104.12 45.2605 102.195C47.1857 100.27 48.2672 97.6587 48.2672 94.936C48.2672 92.2134 47.1857 89.6023 45.2605 87.6771C43.3353 85.752 40.7242 84.6704 38.0016 84.6704C35.279 84.6704 32.6679 85.752 30.7427 87.6771C28.8175 89.6023 27.736 92.2134 27.736 94.936C27.736 97.6587 28.8175 100.27 30.7427 102.195C32.6679 104.12 35.279 105.202 38.0016 105.202Z" fill="#CB758C"/>
</g>
<g filter="url(#filter10_ii_84_1897)">
<path d="M39.3281 104.442C40.7132 104.442 42.0846 104.169 43.3642 103.639C44.6438 103.109 45.8065 102.333 46.7859 101.353C47.7653 100.374 48.5421 99.2111 49.0722 97.9315C49.6022 96.6519 49.875 95.2804 49.875 93.8954C49.875 92.5104 49.6022 91.1389 49.0722 89.8593C48.5421 88.5797 47.7653 87.417 46.7859 86.4376C45.8065 85.4583 44.6438 84.6814 43.3642 84.1513C42.0846 83.6213 40.7132 83.3485 39.3281 83.3485C36.5309 83.3485 33.8483 84.4597 31.8704 86.4376C29.8924 88.4155 28.7812 91.0982 28.7812 93.8954C28.7812 96.6926 29.8924 99.3752 31.8704 101.353C33.8483 103.331 36.5309 104.442 39.3281 104.442Z" fill="url(#paint3_linear_84_1897)"/>
</g>
<g filter="url(#filter11_ii_84_1897)">
<path d="M65.1094 125.536C67.9066 125.536 70.5892 124.425 72.5671 122.447C74.5451 120.469 75.6562 117.786 75.6562 114.989C75.6562 112.192 74.5451 109.509 72.5671 107.531C70.5892 105.553 67.9066 104.442 65.1094 104.442C62.3122 104.442 59.6295 105.553 57.6516 107.531C55.6737 109.509 54.5625 112.192 54.5625 114.989C54.5625 117.786 55.6737 120.469 57.6516 122.447C59.6295 124.425 62.3122 125.536 65.1094 125.536Z" fill="url(#paint4_linear_84_1897)"/>
</g>
<defs>
<filter id="filter0_iii_84_1897" x="8.42229" y="19.7691" width="133.307" height="121.039" filterUnits="userSpaceOnUse" color-interpolation-filters="sRGB">
<feFlood flood-opacity="0" result="BackgroundImageFix"/>
<feBlend mode="normal" in="SourceGraphic" in2="BackgroundImageFix" result="shape"/>
<feColorMatrix in="SourceAlpha" type="matrix" values="0 0 0 0 0 0 0 0 0 0 0 0 0 0 0 0 0 0 127 0" result="hardAlpha"/>
<feOffset dx="0.45" dy="0.3"/>
<feGaussianBlur stdDeviation="0.225"/>
<feComposite in2="hardAlpha" operator="arithmetic" k2="-1" k3="1"/>
<feColorMatrix type="matrix" values="0 0 0 0 1 0 0 0 0 0.647059 0 0 0 0 0.458824 0 0 0 1 0"/>
<feBlend mode="normal" in2="shape" result="effect1_innerShadow_84_1897"/>
<feColorMatrix in="SourceAlpha" type="matrix" values="0 0 0 0 0 0 0 0 0 0 0 0 0 0 0 0 0 0 127 0" result="hardAlpha"/>
<feOffset dx="0.3" dy="-0.3"/>
<feGaussianBlur stdDeviation="0.225"/>
<feComposite in2="hardAlpha" operator="arithmetic" k2="-1" k3="1"/>
<feColorMatrix type="matrix" values="0 0 0 0 0.937255 0 0 0 0 0.501961 0 0 0 0 0.588235 0 0 0 1 0"/>
<feBlend mode="normal" in2="effect1_innerShadow_84_1897" result="effect2_innerShadow_84_1897"/>
<feColorMatrix in="SourceAlpha" type="matrix" values="0 0 0 0 0 0 0 0 0 0 0 0 0 0 0 0 0 0 127 0" result="hardAlpha"/>
<feOffset dx="-0.3" dy="0.3"/>
<feGaussianBlur stdDeviation="0.225"/>
<feComposite in2="hardAlpha" operator="arithmetic" k2="-1" k3="1"/>
<feColorMatrix type="matrix" values="0 0 0 0 1 0 0 0 0 0.835294 0 0 0 0 0.615686 0 0 0 1 0"/>
<feBlend mode="normal" in2="effect2_innerShadow_84_1897" result="effect3_innerShadow_84_1897"/>
</filter>
<filter id="filter1_f_84_1897" x="27.236" y="50.8938" width="21.5312" height="21.5312" filterUnits="userSpaceOnUse" color-interpolation-filters="sRGB">
<feFlood flood-opacity="0" result="BackgroundImageFix"/>
<feBlend mode="normal" in="SourceGraphic" in2="BackgroundImageFix" result="shape"/>
<feGaussianBlur stdDeviation="0.25" result="effect1_foregroundBlur_84_1897"/>
</filter>
<filter id="filter2_f_84_1897" x="55.2532" y="32.0312" width="21.5312" height="21.5312" filterUnits="userSpaceOnUse" color-interpolation-filters="sRGB">
<feFlood flood-opacity="0" result="BackgroundImageFix"/>
<feBlend mode="normal" in="SourceGraphic" in2="BackgroundImageFix" result="shape"/>
<feGaussianBlur stdDeviation="0.25" result="effect1_foregroundBlur_84_1897"/>
</filter>
<filter id="filter3_f_84_1897" x="52.9469" y="105.302" width="21.5312" height="21.5312" filterUnits="userSpaceOnUse" color-interpolation-filters="sRGB">
<feFlood flood-opacity="0" result="BackgroundImageFix"/>
<feBlend mode="normal" in="SourceGraphic" in2="BackgroundImageFix" result="shape"/>
<feGaussianBlur stdDeviation="0.25" result="effect1_foregroundBlur_84_1897"/>
</filter>
<filter id="filter4_f_84_1897" x="28.8391" y="81.8641" width="21.5312" height="21.5312" filterUnits="userSpaceOnUse" color-interpolation-filters="sRGB">
<feFlood flood-opacity="0" result="BackgroundImageFix"/>
<feBlend mode="normal" in="SourceGraphic" in2="BackgroundImageFix" result="shape"/>
<feGaussianBlur stdDeviation="0.25" result="effect1_foregroundBlur_84_1897"/>
</filter>
<filter id="filter5_f_84_1897" x="29.2047" y="49.1969" width="21.5312" height="21.5312" filterUnits="userSpaceOnUse" color-interpolation-filters="sRGB">
<feFlood flood-opacity="0" result="BackgroundImageFix"/>
<feBlend mode="normal" in="SourceGraphic" in2="BackgroundImageFix" result="shape"/>
<feGaussianBlur stdDeviation="0.25" result="effect1_foregroundBlur_84_1897"/>
</filter>
<filter id="filter6_f_84_1897" x="58.136" y="30.3579" width="21.5312" height="21.5312" filterUnits="userSpaceOnUse" color-interpolation-filters="sRGB">
<feFlood flood-opacity="0" result="BackgroundImageFix"/>
<feBlend mode="normal" in="SourceGraphic" in2="BackgroundImageFix" result="shape"/>
<feGaussianBlur stdDeviation="0.25" result="effect1_foregroundBlur_84_1897"/>
</filter>
<filter id="filter7_ii_84_1897" x="56.6062" y="31.786" width="21.6938" height="21.3938" filterUnits="userSpaceOnUse" color-interpolation-filters="sRGB">
<feFlood flood-opacity="0" result="BackgroundImageFix"/>
<feBlend mode="normal" in="SourceGraphic" in2="BackgroundImageFix" result="shape"/>
<feColorMatrix in="SourceAlpha" type="matrix" values="0 0 0 0 0 0 0 0 0 0 0 0 0 0 0 0 0 0 127 0" result="hardAlpha"/>
<feOffset dx="-0.3" dy="0.3"/>
<feGaussianBlur stdDeviation="0.225"/>
<feComposite in2="hardAlpha" operator="arithmetic" k2="-1" k3="1"/>
<feColorMatrix type="matrix" values="0 0 0 0 0.87451 0 0 0 0 0.490196 0 0 0 0 0.984314 0 0 0 1 0"/>
<feBlend mode="normal" in2="shape" result="effect1_innerShadow_84_1897"/>
<feColorMatrix in="SourceAlpha" type="matrix" values="0 0 0 0 0 0 0 0 0 0 0 0 0 0 0 0 0 0 127 0" result="hardAlpha"/>
<feOffset dx="0.3"/>
<feGaussianBlur stdDeviation="0.5"/>
<feComposite in2="hardAlpha" operator="arithmetic" k2="-1" k3="1"/>
<feColorMatrix type="matrix" values="0 0 0 0 0.635294 0 0 0 0 0.258824 0 0 0 0 0.639216 0 0 0 1 0"/>
<feBlend mode="normal" in2="effect1_innerShadow_84_1897" result="effect2_innerShadow_84_1897"/>
</filter>
<filter id="filter8_ii_84_1897" x="28.4812" y="50.536" width="21.6938" height="21.3938" filterUnits="userSpaceOnUse" color-interpolation-filters="sRGB">
<feFlood flood-opacity="0" result="BackgroundImageFix"/>
<feBlend mode="normal" in="SourceGraphic" in2="BackgroundImageFix" result="shape"/>
<feColorMatrix in="SourceAlpha" type="matrix" values="0 0 0 0 0 0 0 0 0 0 0 0 0 0 0 0 0 0 127 0" result="hardAlpha"/>
<feOffset dx="-0.3" dy="0.3"/>
<feGaussianBlur stdDeviation="0.225"/>
<feComposite in2="hardAlpha" operator="arithmetic" k2="-1" k3="1"/>
<feColorMatrix type="matrix" values="0 0 0 0 1 0 0 0 0 0.34902 0 0 0 0 0.619608 0 0 0 1 0"/>
<feBlend mode="normal" in2="shape" result="effect1_innerShadow_84_1897"/>
<feColorMatrix in="SourceAlpha" type="matrix" values="0 0 0 0 0 0 0 0 0 0 0 0 0 0 0 0 0 0 127 0" result="hardAlpha"/>
<feOffset dx="0.3"/>
<feGaussianBlur stdDeviation="0.5"/>
<feComposite in2="hardAlpha" operator="arithmetic" k2="-1" k3="1"/>
<feColorMatrix type="matrix" values="0 0 0 0 0.807843 0 0 0 0 0.172549 0 0 0 0 0.415686 0 0 0 1 0"/>
<feBlend mode="normal" in2="effect1_innerShadow_84_1897" result="effect2_innerShadow_84_1897"/>
</filter>
<filter id="filter9_f_84_1897" x="27.236" y="84.1704" width="21.5312" height="21.5312" filterUnits="userSpaceOnUse" color-interpolation-filters="sRGB">
<feFlood flood-opacity="0" result="BackgroundImageFix"/>
<feBlend mode="normal" in="SourceGraphic" in2="BackgroundImageFix" result="shape"/>
<feGaussianBlur stdDeviation="0.25" result="effect1_foregroundBlur_84_1897"/>
</filter>
<filter id="filter10_ii_84_1897" x="28.4812" y="83.3485" width="21.6938" height="21.3938" filterUnits="userSpaceOnUse" color-interpolation-filters="sRGB">
<feFlood flood-opacity="0" result="BackgroundImageFix"/>
<feBlend mode="normal" in="SourceGraphic" in2="BackgroundImageFix" result="shape"/>
<feColorMatrix in="SourceAlpha" type="matrix" values="0 0 0 0 0 0 0 0 0 0 0 0 0 0 0 0 0 0 127 0" result="hardAlpha"/>
<feOffset dx="-0.3" dy="0.3"/>
<feGaussianBlur stdDeviation="0.225"/>
<feComposite in2="hardAlpha" operator="arithmetic" k2="-1" k3="1"/>
<feColorMatrix type="matrix" values="0 0 0 0 0.364706 0 0 0 0 0.894118 0 0 0 0 0.737255 0 0 0 1 0"/>
<feBlend mode="normal" in2="shape" result="effect1_innerShadow_84_1897"/>
<feColorMatrix in="SourceAlpha" type="matrix" values="0 0 0 0 0 0 0 0 0 0 0 0 0 0 0 0 0 0 127 0" result="hardAlpha"/>
<feOffset dx="0.3"/>
<feGaussianBlur stdDeviation="0.5"/>
<feComposite in2="hardAlpha" operator="arithmetic" k2="-1" k3="1"/>
<feColorMatrix type="matrix" values="0 0 0 0 0.247059 0 0 0 0 0.533333 0 0 0 0 0.694118 0 0 0 1 0"/>
<feBlend mode="normal" in2="effect1_innerShadow_84_1897" result="effect2_innerShadow_84_1897"/>
</filter>
<filter id="filter11_ii_84_1897" x="54.2625" y="104.442" width="21.6938" height="21.3938" filterUnits="userSpaceOnUse" color-interpolation-filters="sRGB">
<feFlood flood-opacity="0" result="BackgroundImageFix"/>
<feBlend mode="normal" in="SourceGraphic" in2="BackgroundImageFix" result="shape"/>
<feColorMatrix in="SourceAlpha" type="matrix" values="0 0 0 0 0 0 0 0 0 0 0 0 0 0 0 0 0 0 127 0" result="hardAlpha"/>
<feOffset dx="-0.3" dy="0.3"/>
<feGaussianBlur stdDeviation="0.225"/>
<feComposite in2="hardAlpha" operator="arithmetic" k2="-1" k3="1"/>
<feColorMatrix type="matrix" values="0 0 0 0 0.364706 0 0 0 0 0.752941 0 0 0 0 0.945098 0 0 0 1 0"/>
<feBlend mode="normal" in2="shape" result="effect1_innerShadow_84_1897"/>
<feColorMatrix in="SourceAlpha" type="matrix" values="0 0 0 0 0 0 0 0 0 0 0 0 0 0 0 0 0 0 127 0" result="hardAlpha"/>
<feOffset dx="0.3"/>
<feGaussianBlur stdDeviation="0.5"/>
<feComposite in2="hardAlpha" operator="arithmetic" k2="-1" k3="1"/>
<feColorMatrix type="matrix" values="0 0 0 0 0.266667 0 0 0 0 0.4 0 0 0 0 0.917647 0 0 0 1 0"/>
<feBlend mode="normal" in2="effect1_innerShadow_84_1897" result="effect2_innerShadow_84_1897"/>
</filter>
<linearGradient id="paint0_linear_84_1897" x1="112.875" y1="33.6751" x2="64.336" y2="139.298" gradientUnits="userSpaceOnUse">
<stop stop-color="#FFB9A1"/>
<stop offset="1" stop-color="#FFB4AD"/>
</linearGradient>
<linearGradient id="paint1_linear_84_1897" x1="61.275" y1="31.786" x2="70.9641" y2="55.2798" gradientUnits="userSpaceOnUse">
<stop stop-color="#CC67F1"/>
<stop offset="1" stop-color="#C950FC"/>
</linearGradient>
<linearGradient id="paint2_linear_84_1897" x1="33.15" y1="50.536" x2="42.8391" y2="74.0298" gradientUnits="userSpaceOnUse">
<stop stop-color="#F9399F"/>
<stop offset="1" stop-color="#FD328C"/>
</linearGradient>
<linearGradient id="paint3_linear_84_1897" x1="33.15" y1="83.3485" x2="42.8391" y2="106.842" gradientUnits="userSpaceOnUse">
<stop stop-color="#47CFA8"/>
<stop offset="1" stop-color="#48ABEB"/>
</linearGradient>
<linearGradient id="paint4_linear_84_1897" x1="58.9312" y1="104.442" x2="68.6203" y2="127.936" gradientUnits="userSpaceOnUse">
<stop stop-color="#49B1F1"/>
<stop offset="1" stop-color="#4982FE"/>
</linearGradient>
</defs>
</svg>
