<svg width="76" height="76" viewBox="0 0 76 76" fill="none" xmlns="http://www.w3.org/2000/svg">
<g filter="url(#filter0_ii_139_134)">
<path d="M71.3688 33.929C71.3688 29.3358 68.533 25.436 64.5122 23.7735C64.3026 23.689 64.1267 23.5379 64.0117 23.3434C63.8966 23.1489 63.8488 22.922 63.8757 22.6976C63.922 22.3496 63.9466 21.999 63.9493 21.6479C63.9493 15.5441 58.9618 10.597 52.8058 10.597C50.6065 10.597 48.5925 11.2454 46.8754 12.345C46.623 12.5003 46.3202 12.5514 46.0308 12.4876C45.7415 12.4238 45.4882 12.25 45.3245 12.003C44.528 10.7843 43.4398 9.78369 42.1587 9.09192C40.8776 8.40015 39.4441 8.03911 37.9882 8.04152C34.9315 8.04152 32.2407 9.60902 30.6945 11.9745C30.5319 12.2226 30.2794 12.3979 29.9901 12.4635C29.7008 12.5291 29.3973 12.4798 29.1437 12.326C27.3766 11.1874 25.3202 10.5791 23.218 10.5733C17.062 10.5733 12.0745 15.518 12.0745 21.6241C12.0745 21.9804 12.103 22.3295 12.1458 22.6715C12.1727 22.8962 12.1252 23.1235 12.0107 23.3186C11.8962 23.5138 11.7209 23.666 11.5117 23.7521C7.46941 25.4336 4.62891 29.3334 4.62891 33.929C4.62891 38.5199 7.46703 42.4196 11.4879 44.0821C11.9154 44.2603 12.1838 44.6996 12.1244 45.158C12.078 45.5061 12.0534 45.8567 12.0508 46.2078C12.0508 52.3115 17.0383 57.2586 23.1943 57.2586C25.3912 57.2586 27.4052 56.6126 29.1223 55.513C29.3755 55.3584 29.6787 55.308 29.9683 55.3722C30.2579 55.4364 30.5114 55.6103 30.6755 55.8574C31.4682 57.0668 32.5496 58.0597 33.8222 58.7464C35.0948 59.433 36.5184 59.7918 37.9644 59.7904C41.021 59.7904 43.7119 58.2229 45.258 55.8574C45.4206 55.6093 45.6732 55.434 45.9625 55.3684C46.2518 55.3028 46.5552 55.3521 46.8089 55.5059C48.576 56.6445 50.6324 57.2528 52.7345 57.2586C58.8905 57.2586 63.878 52.3139 63.878 46.2078C63.878 45.8515 63.8495 45.5048 63.8068 45.1628C63.7804 44.9373 63.8289 44.7093 63.9448 44.5141C64.0606 44.3188 64.2375 44.1671 64.448 44.0821C68.5093 42.4196 71.3712 38.5199 71.3712 33.929H71.3688Z" fill="url(#paint0_radial_139_134)"/>
<path d="M71.3688 33.929C71.3688 29.3358 68.533 25.436 64.5122 23.7735C64.3026 23.689 64.1267 23.5379 64.0117 23.3434C63.8966 23.1489 63.8488 22.922 63.8757 22.6976C63.922 22.3496 63.9466 21.999 63.9493 21.6479C63.9493 15.5441 58.9618 10.597 52.8058 10.597C50.6065 10.597 48.5925 11.2454 46.8754 12.345C46.623 12.5003 46.3202 12.5514 46.0308 12.4876C45.7415 12.4238 45.4882 12.25 45.3245 12.003C44.528 10.7843 43.4398 9.78369 42.1587 9.09192C40.8776 8.40015 39.4441 8.03911 37.9882 8.04152C34.9315 8.04152 32.2407 9.60902 30.6945 11.9745C30.5319 12.2226 30.2794 12.3979 29.9901 12.4635C29.7008 12.5291 29.3973 12.4798 29.1437 12.326C27.3766 11.1874 25.3202 10.5791 23.218 10.5733C17.062 10.5733 12.0745 15.518 12.0745 21.6241C12.0745 21.9804 12.103 22.3295 12.1458 22.6715C12.1727 22.8962 12.1252 23.1235 12.0107 23.3186C11.8962 23.5138 11.7209 23.666 11.5117 23.7521C7.46941 25.4336 4.62891 29.3334 4.62891 33.929C4.62891 38.5199 7.46703 42.4196 11.4879 44.0821C11.9154 44.2603 12.1838 44.6996 12.1244 45.158C12.078 45.5061 12.0534 45.8567 12.0508 46.2078C12.0508 52.3115 17.0383 57.2586 23.1943 57.2586C25.3912 57.2586 27.4052 56.6126 29.1223 55.513C29.3755 55.3584 29.6787 55.308 29.9683 55.3722C30.2579 55.4364 30.5114 55.6103 30.6755 55.8574C31.4682 57.0668 32.5496 58.0597 33.8222 58.7464C35.0948 59.433 36.5184 59.7918 37.9644 59.7904C41.021 59.7904 43.7119 58.2229 45.258 55.8574C45.4206 55.6093 45.6732 55.434 45.9625 55.3684C46.2518 55.3028 46.5552 55.3521 46.8089 55.5059C48.576 56.6445 50.6324 57.2528 52.7345 57.2586C58.8905 57.2586 63.878 52.3139 63.878 46.2078C63.878 45.8515 63.8495 45.5048 63.8068 45.1628C63.7804 44.9373 63.8289 44.7093 63.9448 44.5141C64.0606 44.3188 64.2375 44.1671 64.448 44.0821C68.5093 42.4196 71.3712 38.5199 71.3712 33.929H71.3688Z" fill="url(#paint1_radial_139_134)"/>
<path d="M71.3688 33.929C71.3688 29.3358 68.533 25.436 64.5122 23.7735C64.3026 23.689 64.1267 23.5379 64.0117 23.3434C63.8966 23.1489 63.8488 22.922 63.8757 22.6976C63.922 22.3496 63.9466 21.999 63.9493 21.6479C63.9493 15.5441 58.9618 10.597 52.8058 10.597C50.6065 10.597 48.5925 11.2454 46.8754 12.345C46.623 12.5003 46.3202 12.5514 46.0308 12.4876C45.7415 12.4238 45.4882 12.25 45.3245 12.003C44.528 10.7843 43.4398 9.78369 42.1587 9.09192C40.8776 8.40015 39.4441 8.03911 37.9882 8.04152C34.9315 8.04152 32.2407 9.60902 30.6945 11.9745C30.5319 12.2226 30.2794 12.3979 29.9901 12.4635C29.7008 12.5291 29.3973 12.4798 29.1437 12.326C27.3766 11.1874 25.3202 10.5791 23.218 10.5733C17.062 10.5733 12.0745 15.518 12.0745 21.6241C12.0745 21.9804 12.103 22.3295 12.1458 22.6715C12.1727 22.8962 12.1252 23.1235 12.0107 23.3186C11.8962 23.5138 11.7209 23.666 11.5117 23.7521C7.46941 25.4336 4.62891 29.3334 4.62891 33.929C4.62891 38.5199 7.46703 42.4196 11.4879 44.0821C11.9154 44.2603 12.1838 44.6996 12.1244 45.158C12.078 45.5061 12.0534 45.8567 12.0508 46.2078C12.0508 52.3115 17.0383 57.2586 23.1943 57.2586C25.3912 57.2586 27.4052 56.6126 29.1223 55.513C29.3755 55.3584 29.6787 55.308 29.9683 55.3722C30.2579 55.4364 30.5114 55.6103 30.6755 55.8574C31.4682 57.0668 32.5496 58.0597 33.8222 58.7464C35.0948 59.433 36.5184 59.7918 37.9644 59.7904C41.021 59.7904 43.7119 58.2229 45.258 55.8574C45.4206 55.6093 45.6732 55.434 45.9625 55.3684C46.2518 55.3028 46.5552 55.3521 46.8089 55.5059C48.576 56.6445 50.6324 57.2528 52.7345 57.2586C58.8905 57.2586 63.878 52.3139 63.878 46.2078C63.878 45.8515 63.8495 45.5048 63.8068 45.1628C63.7804 44.9373 63.8289 44.7093 63.9448 44.5141C64.0606 44.3188 64.2375 44.1671 64.448 44.0821C68.5093 42.4196 71.3712 38.5199 71.3712 33.929H71.3688Z" fill="url(#paint2_radial_139_134)"/>
<path d="M71.3688 33.929C71.3688 29.3358 68.533 25.436 64.5122 23.7735C64.3026 23.689 64.1267 23.5379 64.0117 23.3434C63.8966 23.1489 63.8488 22.922 63.8757 22.6976C63.922 22.3496 63.9466 21.999 63.9493 21.6479C63.9493 15.5441 58.9618 10.597 52.8058 10.597C50.6065 10.597 48.5925 11.2454 46.8754 12.345C46.623 12.5003 46.3202 12.5514 46.0308 12.4876C45.7415 12.4238 45.4882 12.25 45.3245 12.003C44.528 10.7843 43.4398 9.78369 42.1587 9.09192C40.8776 8.40015 39.4441 8.03911 37.9882 8.04152C34.9315 8.04152 32.2407 9.60902 30.6945 11.9745C30.5319 12.2226 30.2794 12.3979 29.9901 12.4635C29.7008 12.5291 29.3973 12.4798 29.1437 12.326C27.3766 11.1874 25.3202 10.5791 23.218 10.5733C17.062 10.5733 12.0745 15.518 12.0745 21.6241C12.0745 21.9804 12.103 22.3295 12.1458 22.6715C12.1727 22.8962 12.1252 23.1235 12.0107 23.3186C11.8962 23.5138 11.7209 23.666 11.5117 23.7521C7.46941 25.4336 4.62891 29.3334 4.62891 33.929C4.62891 38.5199 7.46703 42.4196 11.4879 44.0821C11.9154 44.2603 12.1838 44.6996 12.1244 45.158C12.078 45.5061 12.0534 45.8567 12.0508 46.2078C12.0508 52.3115 17.0383 57.2586 23.1943 57.2586C25.3912 57.2586 27.4052 56.6126 29.1223 55.513C29.3755 55.3584 29.6787 55.308 29.9683 55.3722C30.2579 55.4364 30.5114 55.6103 30.6755 55.8574C31.4682 57.0668 32.5496 58.0597 33.8222 58.7464C35.0948 59.433 36.5184 59.7918 37.9644 59.7904C41.021 59.7904 43.7119 58.2229 45.258 55.8574C45.4206 55.6093 45.6732 55.434 45.9625 55.3684C46.2518 55.3028 46.5552 55.3521 46.8089 55.5059C48.576 56.6445 50.6324 57.2528 52.7345 57.2586C58.8905 57.2586 63.878 52.3139 63.878 46.2078C63.878 45.8515 63.8495 45.5048 63.8068 45.1628C63.7804 44.9373 63.8289 44.7093 63.9448 44.5141C64.0606 44.3188 64.2375 44.1671 64.448 44.0821C68.5093 42.4196 71.3712 38.5199 71.3712 33.929H71.3688Z" fill="url(#paint3_linear_139_134)"/>
<path d="M71.3688 33.929C71.3688 29.3358 68.533 25.436 64.5122 23.7735C64.3026 23.689 64.1267 23.5379 64.0117 23.3434C63.8966 23.1489 63.8488 22.922 63.8757 22.6976C63.922 22.3496 63.9466 21.999 63.9493 21.6479C63.9493 15.5441 58.9618 10.597 52.8058 10.597C50.6065 10.597 48.5925 11.2454 46.8754 12.345C46.623 12.5003 46.3202 12.5514 46.0308 12.4876C45.7415 12.4238 45.4882 12.25 45.3245 12.003C44.528 10.7843 43.4398 9.78369 42.1587 9.09192C40.8776 8.40015 39.4441 8.03911 37.9882 8.04152C34.9315 8.04152 32.2407 9.60902 30.6945 11.9745C30.5319 12.2226 30.2794 12.3979 29.9901 12.4635C29.7008 12.5291 29.3973 12.4798 29.1437 12.326C27.3766 11.1874 25.3202 10.5791 23.218 10.5733C17.062 10.5733 12.0745 15.518 12.0745 21.6241C12.0745 21.9804 12.103 22.3295 12.1458 22.6715C12.1727 22.8962 12.1252 23.1235 12.0107 23.3186C11.8962 23.5138 11.7209 23.666 11.5117 23.7521C7.46941 25.4336 4.62891 29.3334 4.62891 33.929C4.62891 38.5199 7.46703 42.4196 11.4879 44.0821C11.9154 44.2603 12.1838 44.6996 12.1244 45.158C12.078 45.5061 12.0534 45.8567 12.0508 46.2078C12.0508 52.3115 17.0383 57.2586 23.1943 57.2586C25.3912 57.2586 27.4052 56.6126 29.1223 55.513C29.3755 55.3584 29.6787 55.308 29.9683 55.3722C30.2579 55.4364 30.5114 55.6103 30.6755 55.8574C31.4682 57.0668 32.5496 58.0597 33.8222 58.7464C35.0948 59.433 36.5184 59.7918 37.9644 59.7904C41.021 59.7904 43.7119 58.2229 45.258 55.8574C45.4206 55.6093 45.6732 55.434 45.9625 55.3684C46.2518 55.3028 46.5552 55.3521 46.8089 55.5059C48.576 56.6445 50.6324 57.2528 52.7345 57.2586C58.8905 57.2586 63.878 52.3139 63.878 46.2078C63.878 45.8515 63.8495 45.5048 63.8068 45.1628C63.7804 44.9373 63.8289 44.7093 63.9448 44.5141C64.0606 44.3188 64.2375 44.1671 64.448 44.0821C68.5093 42.4196 71.3712 38.5199 71.3712 33.929H71.3688Z" fill="url(#paint4_radial_139_134)"/>
</g>
<g filter="url(#filter1_i_139_134)">
<path d="M11.1626 69.5874C12.8601 69.5874 14.4882 68.913 15.6885 67.7127C16.8889 66.5123 17.5632 64.8843 17.5632 63.1868C17.5632 61.4892 16.8889 59.8612 15.6885 58.6608C14.4882 57.4605 12.8601 56.7861 11.1626 56.7861C9.46504 56.7861 7.83701 57.4605 6.63666 58.6608C5.43631 59.8612 4.76196 61.4892 4.76196 63.1868C4.76196 64.8843 5.43631 66.5123 6.63666 67.7127C7.83701 68.913 9.46504 69.5874 11.1626 69.5874Z" fill="url(#paint5_radial_139_134)"/>
<path d="M11.1626 69.5874C12.8601 69.5874 14.4882 68.913 15.6885 67.7127C16.8889 66.5123 17.5632 64.8843 17.5632 63.1868C17.5632 61.4892 16.8889 59.8612 15.6885 58.6608C14.4882 57.4605 12.8601 56.7861 11.1626 56.7861C9.46504 56.7861 7.83701 57.4605 6.63666 58.6608C5.43631 59.8612 4.76196 61.4892 4.76196 63.1868C4.76196 64.8843 5.43631 66.5123 6.63666 67.7127C7.83701 68.913 9.46504 69.5874 11.1626 69.5874Z" fill="url(#paint6_radial_139_134)"/>
<path d="M11.1626 69.5874C12.8601 69.5874 14.4882 68.913 15.6885 67.7127C16.8889 66.5123 17.5632 64.8843 17.5632 63.1868C17.5632 61.4892 16.8889 59.8612 15.6885 58.6608C14.4882 57.4605 12.8601 56.7861 11.1626 56.7861C9.46504 56.7861 7.83701 57.4605 6.63666 58.6608C5.43631 59.8612 4.76196 61.4892 4.76196 63.1868C4.76196 64.8843 5.43631 66.5123 6.63666 67.7127C7.83701 68.913 9.46504 69.5874 11.1626 69.5874Z" fill="url(#paint7_radial_139_134)"/>
<path d="M11.1626 69.5874C12.8601 69.5874 14.4882 68.913 15.6885 67.7127C16.8889 66.5123 17.5632 64.8843 17.5632 63.1868C17.5632 61.4892 16.8889 59.8612 15.6885 58.6608C14.4882 57.4605 12.8601 56.7861 11.1626 56.7861C9.46504 56.7861 7.83701 57.4605 6.63666 58.6608C5.43631 59.8612 4.76196 61.4892 4.76196 63.1868C4.76196 64.8843 5.43631 66.5123 6.63666 67.7127C7.83701 68.913 9.46504 69.5874 11.1626 69.5874Z" fill="url(#paint8_linear_139_134)"/>
<path d="M11.1626 69.5874C12.8601 69.5874 14.4882 68.913 15.6885 67.7127C16.8889 66.5123 17.5632 64.8843 17.5632 63.1868C17.5632 61.4892 16.8889 59.8612 15.6885 58.6608C14.4882 57.4605 12.8601 56.7861 11.1626 56.7861C9.46504 56.7861 7.83701 57.4605 6.63666 58.6608C5.43631 59.8612 4.76196 61.4892 4.76196 63.1868C4.76196 64.8843 5.43631 66.5123 6.63666 67.7127C7.83701 68.913 9.46504 69.5874 11.1626 69.5874Z" fill="url(#paint9_radial_139_134)"/>
</g>
<g filter="url(#filter2_f_139_134)">
<path d="M20.3396 29.4711L13.6492 20.4556L13.0626 23.8684L10.2529 25.0726L20.3396 29.4711Z" fill="url(#paint10_linear_139_134)" fill-opacity="0.6"/>
</g>
<g filter="url(#filter3_f_139_134)">
<path d="M57.5131 15.0527C62.2536 16.8791 62.3676 21.8595 61.8356 24.1252L54.5515 27.3315L57.5131 15.0527Z" fill="url(#paint11_linear_139_134)"/>
</g>
<g filter="url(#filter4_f_139_134)">
<path d="M60.6647 42.3914C63.8709 46.5239 60.9805 51.8011 59.0568 52.9411L49.4927 38.1924L60.6647 42.3914Z" fill="url(#paint12_linear_139_134)"/>
</g>
<g filter="url(#filter5_f_139_134)">
<path d="M29.4975 14.6818C32.0625 17.3466 31.8487 21.7973 31.4379 23.4456L20.824 13.1974C22.648 12.4564 26.9301 12.0147 29.4975 14.6818Z" fill="#FAFAFC" fill-opacity="0.25"/>
</g>
<g filter="url(#filter6_f_139_134)">
<path d="M43.814 22.8877L45.7876 13.972C50.2003 11.6564 52.5777 11.9342 53.5325 11.9342L43.814 22.8877Z" fill="#E6E4EC" fill-opacity="0.5"/>
</g>
<defs>
<filter id="filter0_ii_139_134" x="4.62891" y="7.7415" width="66.8422" height="52.149" filterUnits="userSpaceOnUse" color-interpolation-filters="sRGB">
<feFlood flood-opacity="0" result="BackgroundImageFix"/>
<feBlend mode="normal" in="SourceGraphic" in2="BackgroundImageFix" result="shape"/>
<feColorMatrix in="SourceAlpha" type="matrix" values="0 0 0 0 0 0 0 0 0 0 0 0 0 0 0 0 0 0 127 0" result="hardAlpha"/>
<feOffset dx="0.1" dy="0.1"/>
<feGaussianBlur stdDeviation="0.5"/>
<feComposite in2="hardAlpha" operator="arithmetic" k2="-1" k3="1"/>
<feColorMatrix type="matrix" values="0 0 0 0 0.716667 0 0 0 0 0.716667 0 0 0 0 0.716667 0 0 0 1 0"/>
<feBlend mode="normal" in2="shape" result="effect1_innerShadow_139_134"/>
<feColorMatrix in="SourceAlpha" type="matrix" values="0 0 0 0 0 0 0 0 0 0 0 0 0 0 0 0 0 0 127 0" result="hardAlpha"/>
<feOffset dy="-0.3"/>
<feGaussianBlur stdDeviation="0.25"/>
<feComposite in2="hardAlpha" operator="arithmetic" k2="-1" k3="1"/>
<feColorMatrix type="matrix" values="0 0 0 0 0.764633 0 0 0 0 0.670625 0 0 0 0 0.925 0 0 0 1 0"/>
<feBlend mode="normal" in2="effect1_innerShadow_139_134" result="effect2_innerShadow_139_134"/>
</filter>
<filter id="filter1_i_139_134" x="4.76196" y="56.7861" width="12.9013" height="12.9013" filterUnits="userSpaceOnUse" color-interpolation-filters="sRGB">
<feFlood flood-opacity="0" result="BackgroundImageFix"/>
<feBlend mode="normal" in="SourceGraphic" in2="BackgroundImageFix" result="shape"/>
<feColorMatrix in="SourceAlpha" type="matrix" values="0 0 0 0 0 0 0 0 0 0 0 0 0 0 0 0 0 0 127 0" result="hardAlpha"/>
<feOffset dx="0.1" dy="0.1"/>
<feGaussianBlur stdDeviation="0.5"/>
<feComposite in2="hardAlpha" operator="arithmetic" k2="-1" k3="1"/>
<feColorMatrix type="matrix" values="0 0 0 0 0.758333 0 0 0 0 0.758333 0 0 0 0 0.758333 0 0 0 1 0"/>
<feBlend mode="normal" in2="shape" result="effect1_innerShadow_139_134"/>
</filter>
<filter id="filter2_f_139_134" x="9.65293" y="19.8556" width="11.2867" height="10.2156" filterUnits="userSpaceOnUse" color-interpolation-filters="sRGB">
<feFlood flood-opacity="0" result="BackgroundImageFix"/>
<feBlend mode="normal" in="SourceGraphic" in2="BackgroundImageFix" result="shape"/>
<feGaussianBlur stdDeviation="0.3" result="effect1_foregroundBlur_139_134"/>
</filter>
<filter id="filter3_f_139_134" x="53.5515" y="14.0527" width="9.50049" height="14.2788" filterUnits="userSpaceOnUse" color-interpolation-filters="sRGB">
<feFlood flood-opacity="0" result="BackgroundImageFix"/>
<feBlend mode="normal" in="SourceGraphic" in2="BackgroundImageFix" result="shape"/>
<feGaussianBlur stdDeviation="0.5" result="effect1_foregroundBlur_139_134"/>
</filter>
<filter id="filter4_f_139_134" x="47.4927" y="36.1924" width="16.6086" height="18.7485" filterUnits="userSpaceOnUse" color-interpolation-filters="sRGB">
<feFlood flood-opacity="0" result="BackgroundImageFix"/>
<feBlend mode="normal" in="SourceGraphic" in2="BackgroundImageFix" result="shape"/>
<feGaussianBlur stdDeviation="1" result="effect1_foregroundBlur_139_134"/>
</filter>
<filter id="filter5_f_139_134" x="19.824" y="11.6304" width="12.8635" height="12.8154" filterUnits="userSpaceOnUse" color-interpolation-filters="sRGB">
<feFlood flood-opacity="0" result="BackgroundImageFix"/>
<feBlend mode="normal" in="SourceGraphic" in2="BackgroundImageFix" result="shape"/>
<feGaussianBlur stdDeviation="0.5" result="effect1_foregroundBlur_139_134"/>
</filter>
<filter id="filter6_f_139_134" x="42.814" y="10.9238" width="11.7185" height="12.9639" filterUnits="userSpaceOnUse" color-interpolation-filters="sRGB">
<feFlood flood-opacity="0" result="BackgroundImageFix"/>
<feBlend mode="normal" in="SourceGraphic" in2="BackgroundImageFix" result="shape"/>
<feGaussianBlur stdDeviation="0.5" result="effect1_foregroundBlur_139_134"/>
</filter>
<radialGradient id="paint0_radial_139_134" cx="0" cy="0" r="1" gradientUnits="userSpaceOnUse" gradientTransform="translate(48.8951 17.0886) rotate(102.766) scale(37.3744 70.2798)">
<stop stop-color="white"/>
<stop offset="1" stop-color="#E4DBF7"/>
</radialGradient>
<radialGradient id="paint1_radial_139_134" cx="0" cy="0" r="1" gradientUnits="userSpaceOnUse" gradientTransform="translate(49.6187 56.6263) rotate(-165.279) scale(57.3774 105.919)">
<stop offset="0.523" stop-color="#CECECE" stop-opacity="0"/>
<stop offset="1" stop-color="#CECECE"/>
</radialGradient>
<radialGradient id="paint2_radial_139_134" cx="0" cy="0" r="1" gradientUnits="userSpaceOnUse" gradientTransform="translate(50.4661 56.7448) rotate(-131.228) scale(57.4332 47.0226)">
<stop offset="0.753" stop-color="#CECECE" stop-opacity="0"/>
<stop offset="1" stop-color="#CECECE"/>
</radialGradient>
<linearGradient id="paint3_linear_139_134" x1="20.6412" y1="32.5135" x2="3.44616" y2="58.097" gradientUnits="userSpaceOnUse">
<stop offset="0.439" stop-color="#B6A8F2" stop-opacity="0"/>
<stop offset="0.966" stop-color="#B6A8F2"/>
</linearGradient>
<radialGradient id="paint4_radial_139_134" cx="0" cy="0" r="1" gradientUnits="userSpaceOnUse" gradientTransform="translate(44.5479 25.3648) rotate(117.537) scale(70.5149 162.9)">
<stop offset="0.278" stop-color="#B6A8F2" stop-opacity="0"/>
<stop offset="1" stop-color="#B6A8F2"/>
</radialGradient>
<radialGradient id="paint5_radial_139_134" cx="0" cy="0" r="1" gradientUnits="userSpaceOnUse" gradientTransform="translate(17.5606 59.5671) rotate(124.829) scale(10.3232 15.3504)">
<stop stop-color="white"/>
<stop offset="1" stop-color="#E0D8F0"/>
</radialGradient>
<radialGradient id="paint6_radial_139_134" cx="0" cy="0" r="1" gradientUnits="userSpaceOnUse" gradientTransform="translate(13.3885 68.8016) rotate(-161.281) scale(11.2397 25.6607)">
<stop offset="0.523" stop-color="#CECECE" stop-opacity="0"/>
<stop offset="1" stop-color="#CECECE"/>
</radialGradient>
<radialGradient id="paint7_radial_139_134" cx="0" cy="0" r="1" gradientUnits="userSpaceOnUse" gradientTransform="translate(12.8895 69.3968) rotate(-128.192) scale(16.0441 17.6446)">
<stop offset="0.619" stop-color="#CECECE" stop-opacity="0"/>
<stop offset="1" stop-color="#CECECE"/>
</radialGradient>
<linearGradient id="paint8_linear_139_134" x1="7.83046" y1="62.84" x2="3.28234" y2="68.0864" gradientUnits="userSpaceOnUse">
<stop offset="0.439" stop-color="#B6A8F2" stop-opacity="0"/>
<stop offset="0.966" stop-color="#B6A8F2"/>
</linearGradient>
<radialGradient id="paint9_radial_139_134" cx="0" cy="0" r="1" gradientUnits="userSpaceOnUse" gradientTransform="translate(12.4166 61.0706) rotate(112.012) scale(16.6854 32.6722)">
<stop offset="0.278" stop-color="#B6A8F2" stop-opacity="0"/>
<stop offset="1" stop-color="#B6A8F2"/>
</radialGradient>
<linearGradient id="paint10_linear_139_134" x1="20.8241" y1="29.8059" x2="19.9406" y2="22.6667" gradientUnits="userSpaceOnUse">
<stop offset="0.516" stop-color="#CEC7D4" stop-opacity="0"/>
<stop offset="1" stop-color="#CEC7D5"/>
</linearGradient>
<linearGradient id="paint11_linear_139_134" x1="61.5245" y1="25.6049" x2="51.5899" y2="20.8525" gradientUnits="userSpaceOnUse">
<stop stop-color="white"/>
<stop offset="1" stop-color="white" stop-opacity="0"/>
</linearGradient>
<linearGradient id="paint12_linear_139_134" x1="61.4009" y1="53.0409" x2="54.2427" y2="40.1138" gradientUnits="userSpaceOnUse">
<stop stop-color="white" stop-opacity="0.6"/>
<stop offset="1" stop-color="white" stop-opacity="0"/>
</linearGradient>
</defs>
</svg>
